<svg width="158" height="92" viewBox="0 0 158 92" fill="none" xmlns="http://www.w3.org/2000/svg">
<g clip-path="url(#clip0_13_4297)">
<path d="M157.996 3.68524V40.3106C157.996 42.3453 156.332 43.9958 154.281 43.9958H3.71433C1.66353 43.9958 0 42.3453 0 40.3106V3.68524C0 1.6505 1.66353 0 3.71433 0H154.281C156.332 0 157.996 1.6505 157.996 3.68524Z" fill="#DF6D26"/>
<path d="M152.666 14.8807C153.507 14.3523 156.438 13.0948 158 11.8155V10.1955C156.398 10.916 155.122 12.0032 153.621 12.8241C152.451 13.4703 150.91 13.955 149.7 14.6667C148.846 15.1776 148.208 16.0727 147.143 16.3609C147.918 13.2258 152.781 4.16554 154.444 1.43218L154.673 0.0174656C154.541 0.0043664 154.413 0 154.281 0H152.565C152.332 0.681158 152.151 1.44964 151.914 1.92995C150.739 4.314 144.608 16.2386 143.019 18.0769C141.774 19.5134 138.636 19.2995 136.915 19.2034C133.522 19.0113 130.01 18.8061 126.631 18.5441C124.531 18.3825 122.56 17.4612 120.43 17.7276C120.28 16.898 120.685 17.3084 121.081 17.1556C123.26 16.3216 126.89 15.4701 129.069 15.2562C129.157 15.2475 133.58 12.6669 135.956 11.0033C137.95 9.61044 145.414 2.85999 146.888 0H145.554C143.42 2.08714 139.741 5.85097 138.403 6.74172C134.064 9.61917 131.348 12.549 125.799 13.0817C124.536 13.204 122.973 13.0817 121.666 13.0817C121.512 13.0817 120.931 13.6712 120.707 13.2215C122.018 12.1299 123.282 10.9422 124.465 9.71523C124.646 9.53185 124.646 9.02534 124.954 8.70223C125.473 8.1608 131.018 2.90802 133.324 0H128.505L120.28 8.43151C117.983 9.77636 116.236 11.7325 113.789 12.9245L97.2988 14.9942L102.562 12.1692C103.869 11.4618 107.416 9.02971 108.596 8.28742C109.96 7.41414 118.907 1.24442 120.153 0.0043664H113.784C110.814 2.38842 106.739 6.01253 104.842 7.02117C102.285 8.37912 96.3042 11.1387 93.6329 12.3176C89.5401 14.1297 85.0952 15.23 81.0552 17.1818C81.3237 16.4002 81.1784 15.3261 81.3413 14.6449C81.3853 14.444 81.7945 14.4528 81.8562 14.2388C82.5735 11.6452 80.6591 3.8468 79.4665 0.0043664H77.068C77.4949 1.77276 78.6787 6.18719 78.7271 6.57143C79.0132 8.68913 79.7878 10.4313 79.2641 12.8154C79.0088 13.9812 76.2407 19.5484 75.2637 20.033C74.5683 20.3823 73.4725 20.1335 72.6671 20.199C72.2403 20.2339 71.8266 20.64 71.5449 20.64C71.3645 20.6356 68.6844 18.9065 68.4775 18.7231C67.2277 17.6097 65.7226 14.968 64.4287 13.728C63.6498 12.9726 62.1755 12.4748 61.6914 12.0076C61.0577 11.3919 59.9442 10.0907 59.1477 9.27423C58.1751 8.26559 54.9008 3.63284 52.1547 0.0043664H48.5196C49.4966 1.59374 54.4167 7.37921 55.2881 8.73716C55.4245 8.94675 56.8284 11.178 56.1287 11.178C54.5444 10.5012 53.1009 9.23056 51.4418 8.69786C48.59 7.78092 49.3778 7.5495 46.4248 6.60199C46.3015 6.5627 39.7795 3.8075 39.0621 3.55425C38.2259 3.26607 34.7933 1.41471 31.7655 0.00873279H27.6155C30.0755 1.48458 35.1894 3.7551 36.1355 4.24414C38.6308 5.52349 40.8929 6.82468 43.3178 8.0429C50.0379 11.4181 58.1795 14.1253 62.9808 19.8147L65.8986 21.5656L65.7622 22.1114C64.2615 21.6006 63.2977 23.1026 62.3911 23.4083C57.1189 25.1897 51.8026 26.4997 46.2839 27.3642C43.0449 27.8751 43.1065 28.1065 39.731 27.1677C39.1985 27.0193 37.6802 26.7486 37.6802 26.7486C37.2358 26.5477 36.7429 26.0543 34.6348 25.6744C33.6138 25.491 31.3606 24.8317 31.3606 24.8317C30.2824 24.3034 29.1294 23.7445 28.0907 23.1463C25.7187 21.784 23.6987 19.9064 21.8371 17.8804C21.0582 17.0333 16.9698 11.3177 15.6935 9.90299C15.3326 9.50565 13.141 6.46227 12.6657 5.92084C12.2168 5.38813 10.0736 2.0915 8.5905 0H7.37146C8.6037 1.93431 13.7747 10.3353 15.1082 12.2783C16.8773 14.872 18.5453 17.4656 20.2176 20.0505C20.5169 20.5177 21.6523 21.0286 21.1858 21.5482C20.0636 20.9456 18.7169 20.7186 17.4715 20.3212C16.0852 19.8671 16.2876 19.7929 14.7033 19.5178C12.8505 19.1991 11.3454 16.601 10.4301 15.016C8.79734 12.191 6.03359 4.22231 4.22043 0H3.71873C3.09381 0 2.49969 0.152824 1.98479 0.423541C2.93978 3.09141 5.47028 8.08657 5.75194 8.99478C6.64971 11.9334 7.44187 14.885 8.65651 17.7276C8.15481 18.2515 4.62091 14.4484 4.26004 14.0292C2.42048 11.9159 3.063 11.9814 0.523703 10.3615C0.312462 10.2261 0.15403 10.0427 0.00440087 9.84623V11.8548L5.34706 18.8148C3.70553 18.0027 0 18.0507 0 18.0507V19.2689C0.347669 19.2995 0.695337 19.3344 1.04741 19.3999C8.44087 20.6531 15.7419 22.5786 22.9153 24.7531C25.4062 25.5041 31.7083 29.0191 33.8031 30.6128C34.1067 30.8442 34.3664 30.8879 34.2564 31.3813C33.4466 31.6127 32.6941 31.9839 31.8491 32.1367C22.6073 33.8221 14.0036 32.6956 5.00819 30.7744C4.20723 30.6084 1.76475 29.7483 0.00440087 29.3859V33.3986L16.0852 36.311C16.27 36.5555 11.8119 41.9698 10.6545 44.0046H12.4501C12.8109 43.5199 13.0838 43.0396 13.0926 42.782L13.6427 42.9173C13.6295 43.1618 13.2466 43.629 13.1146 44.0046H14.3336C15.7815 42.0746 18.5057 38.3195 19.1218 36.5904C22.0528 36.9659 25.1026 36.9485 28.0687 36.8655C28.8565 36.848 29.5122 36.5991 30.2472 36.5686C33.627 36.407 36.9981 36.7476 40.1755 35.215C40.4088 35.429 40.5584 35.4813 40.5364 35.835C40.5188 36.1407 39.3702 39.97 39.2117 40.1927C38.9345 40.59 37.8299 42.4152 37.2049 44.0002H42.5124C43.5642 41.734 44.8273 37.9746 44.9461 37.7562C45.9143 35.9704 47.1553 33.6868 48.9421 32.7043C50.742 31.7219 56.9252 29.9928 59.0861 29.6391C60.1555 29.4601 61.4537 29.8531 62.1843 29.7483C64.8072 29.3728 62.3427 29.578 64.3891 29.7177C66.0966 29.8356 68.1255 28.5999 70.0046 30.0626C70.2599 32.2458 69.943 34.3374 69.1641 36.3721C68.9484 36.9354 66.4135 41.8039 65.4365 43.9958H70.3919L76.5487 29.7614C77.4729 29.1108 79.6557 30.1412 80.6987 30.5168C82.8552 31.2983 84.8531 32.4685 86.9964 33.2894C87.4937 35.7826 87.8986 41.245 88.924 43.6116C88.9548 43.6771 89.0252 43.8212 89.122 44.0002H91.4941L90.7283 35.5992C90.9484 35.4028 95.9257 36.5424 99.7589 38.9308C100.705 39.5203 101.603 40.5726 102.342 41.0441C103.94 42.0746 105.66 42.9435 107.28 44.0002H109.608L109.291 42.8562C109.947 43.2623 110.629 43.6596 111.333 44.0002H120.843C120.051 43.6334 118.969 43.5766 118.243 43.2623C111.791 40.4852 105.462 37.5467 99.0504 34.7172C98.7467 34.5862 98.5046 34.3504 98.2758 34.119C98.2758 34.119 96.4318 33.1672 95.2788 32.4292C93.9718 31.5953 93.8529 31.8005 92.6647 31.2197C90.8383 30.3246 87.5817 28.7396 85.9754 27.7485C85.3064 27.338 84.3162 26.0936 83.6341 25.7093C82.9828 25.3426 81.8254 24.9496 81.064 24.8317C80.1178 23.8318 85.2316 23.203 85.5969 23.1768C92.8627 22.7227 100.595 25.0937 107.487 26.8883C109.947 27.5258 112.662 27.8096 115.078 28.6392C117.987 29.6478 121.191 32.2589 123.928 33.7872C123.928 33.7872 125.522 34.4509 125.816 34.6517C128.994 36.8349 133.197 39.8696 136.026 42.4065C136.396 42.7383 136.867 43.3758 137.422 43.9958H141.343L134.482 38.7561C134.812 37.9222 135.956 38.9701 136.409 39.1797C138.077 39.9525 137.012 39.5727 137.778 40.2538C138.139 40.5726 139.151 40.5507 139.692 40.8258C141.035 41.507 142.329 42.6772 144.023 43.3627C144.679 43.629 145.73 43.8037 146.487 43.9958H150.734L131.269 34.1583C128.822 32.5777 126.45 30.7787 123.858 29.495C123.568 29.3466 123.343 29.6347 123.466 28.923C124.395 28.9579 125.288 28.7265 126.16 28.4514C128.695 27.6568 132.673 25.5827 135.168 25.6264C137.919 25.6744 140.784 26.3032 143.411 26.7529C143.957 26.8533 144.943 27.2856 144.943 27.2856L158.004 29.8312V27.2682C156.64 26.8271 154.321 26.2726 153.59 25.9451C153.269 25.7967 153.093 26.0761 153.207 25.3731L158.009 22.7271V20.2688C157.784 20.2645 157.564 20.2557 157.366 20.343C155.065 21.2949 150.466 24.8142 148.182 24.4955C146.355 24.2422 142.196 23.4345 139.996 23.1856C142.144 21.1596 144.973 20.0025 147.464 18.4437C149.247 17.3171 150.901 15.9985 152.679 14.8807H152.666ZM57.9374 14.444C57.6646 14.7584 56.7008 13.3874 56.3355 13.1647C55.7106 12.7848 54.584 12.8983 54.6368 11.9901C55.1517 11.8679 55.3981 12.1561 55.7766 12.3569C56.2035 12.584 58.4567 13.8371 57.9374 14.4397V14.444ZM42.5212 40.3979C42.3276 38.7518 43.2869 37.3152 43.6214 35.7608L43.8239 36.6472L42.5168 40.4023L42.5212 40.3979ZM91.3885 22.3647C90.2926 22.2905 88.9064 22.4215 87.947 21.9586C89.2144 21.4477 90.4995 21.4914 91.7977 21.8233C91.8153 22.3341 91.9386 22.3953 91.3885 22.3647ZM129.377 24.823C129.377 24.823 124.281 26.408 122.437 26.6743C117.006 27.4603 112.227 25.1199 106.941 24.4256L90.9748 19.5091C91.252 19.1947 91.6613 19.0244 92.0574 18.9371C94.5219 18.3956 96.8763 18.4437 99.2836 18.186C103.847 17.6839 110.603 16.553 115.074 17.1643C116.333 17.3346 118.894 19.1423 120.183 19.7449C120.94 20.0942 121.944 20.1378 122.709 20.5177C123.361 20.8365 123.867 21.9717 124.773 21.4565C125.698 20.9281 128.184 20.9849 129.654 20.9936C131.115 21.0067 133.06 21.0679 134.508 21.1639C134.829 21.1901 135.881 21.1072 135.846 21.5394L129.377 24.8142V24.823Z" fill="#FBF9ED"/>
<path d="M31.475 88.7123L29.7675 81.4641C29.6795 81.0973 29.2834 80.9052 28.9269 81.0406C26.2468 82.0798 23.4698 82.3505 21.1066 82.3505C14.7517 82.3505 11.2222 79.6477 11.2222 72.7575C11.2222 66.2865 14.7517 63.2693 21.1066 63.2693C23.483 63.2693 26.2732 63.7671 28.9577 64.6404C29.3054 64.7495 29.6751 64.5531 29.7587 64.1994L31.475 56.9293C31.5366 56.663 31.4266 56.3879 31.1846 56.2525C28.4956 54.7723 24.416 53.6152 20.0416 53.6152C7.69272 53.6152 0 61.1997 0 72.9147C0 84.6298 7.69272 92.0002 20.0328 92.0002C24.4248 92.0002 28.566 91.0309 31.211 89.3717C31.4354 89.2363 31.5322 88.9656 31.4706 88.7123H31.475Z" fill="#DF6D26"/>
<path d="M71.0212 90.5375L57.5105 54.0956C57.4049 53.8205 57.1189 53.6545 56.824 53.7026L45.9319 55.5234C45.7162 55.5583 45.5358 55.7068 45.4566 55.9163L32.5312 90.5331C32.3816 90.9392 32.6808 91.3628 33.1121 91.3628H42.6752C42.9437 91.3628 43.1769 91.1925 43.2649 90.9392L45.1221 85.2673C45.2013 85.014 45.4434 84.8437 45.7118 84.8437H57.0529C57.3213 84.8437 57.5546 85.0097 57.6426 85.2629L59.5481 90.9479C59.6362 91.2012 59.8694 91.3671 60.1379 91.3671H70.4491C70.8804 91.3671 71.1796 90.9436 71.03 90.5419L71.0212 90.5375ZM47.9299 76.6262L51.2437 66.3957L54.7116 76.6262H47.9299Z" fill="#DF6D26"/>
<path d="M118.515 54.8031C118.485 54.4887 118.216 54.2573 117.904 54.2573H107.835C107.575 54.2573 107.337 54.4189 107.254 54.6634L98.0514 80.3902L88.3739 54.659C88.2815 54.4189 88.0527 54.2617 87.793 54.2617H77.9879C77.6666 54.2617 77.407 54.4931 77.3674 54.8075L73.5474 90.6905C73.5122 91.053 73.7939 91.3673 74.1591 91.3673H83.1985C83.5286 91.3673 83.8014 91.1141 83.819 90.791L84.9589 70.9632L91.7626 90.9525C91.8418 91.2058 92.0839 91.3717 92.3435 91.3717H102.413C102.681 91.3717 102.914 91.2058 103.002 90.9613L109.965 71.1204L111.575 90.8084C111.602 91.1272 111.866 91.3717 112.187 91.3717H121.772C122.142 91.3717 122.428 91.0573 122.393 90.6905L118.515 54.8162V54.8031Z" fill="#DF6D26"/>
<path d="M151.372 72.3295V72.1679C154.039 71.3208 157.032 68.4565 157.032 63.6884C157.032 57.4837 151.421 53.6675 139.618 53.6675C136.907 53.6675 132.779 53.864 128.642 54.2002C128.321 54.2264 128.074 54.4971 128.074 54.8158V90.7906C128.074 91.1093 128.321 91.3801 128.642 91.4063C132.779 91.7425 136.898 91.939 139.398 91.939C151.531 91.939 157.996 87.7472 157.996 81.071C157.996 76.7264 155.536 73.7049 151.368 72.3295H151.372ZM139.296 61.6231H141.963C144.639 61.6231 146.083 62.8413 146.083 65.1205C146.083 67.9849 144.423 69.5262 141.272 69.5262H139.296V61.6231ZM142.078 83.9921H139.296V76.0889H141.33C144.692 76.0889 146.514 77.4731 146.514 80.0143C146.514 82.5556 144.96 83.9878 142.078 83.9878V83.9921Z" fill="#DF6D26"/>
</g>
<defs>
<clipPath id="clip0_13_4297">
<rect width="158" height="92" fill="white"/>
</clipPath>
</defs>
</svg>
