<svg width="409" height="409" viewBox="0 0 409 409" fill="none" xmlns="http://www.w3.org/2000/svg">
<path d="M402.85 191.33L334.68 189.84C333 189.8 332.32 187.6 333.7 186.64C357.74 169.9 383.67 159.16 394.31 155.13C397.13 154.06 398.63 151.02 397.82 148.13C396.68 144.08 395.1 138.47 393.93 134.33C393.06 131.24 389.83 129.43 386.75 130.31C375.2 133.63 347.89 142.54 321.43 159.82C319.94 160.79 318.06 159.21 318.87 157.63C333.92 128.18 359.07 108.45 369.07 101.43C371.49 99.73 372.22 96.51 370.82 93.91L364.19 81.67C362.61 78.76 358.96 77.72 356.12 79.42C339.48 89.37 289.13 123.91 279.71 184.25C279.24 187.29 276.59 189.51 273.52 189.27L228.15 185.75C225.29 185.53 223.02 183.26 222.79 180.4L219.23 135.04C218.99 131.97 221.21 129.32 224.25 128.85C284.64 119.45 319.18 69.06 329.12 52.42C330.82 49.58 329.78 45.94 326.87 44.36L314.67 37.73C312.07 36.32 308.85 37.05 307.15 39.47C300.12 49.47 280.38 74.63 250.92 89.68C249.33 90.49 247.75 88.62 248.73 87.12C266.02 60.64 274.94 33.33 278.26 21.79C279.14 18.72 277.32 15.5 274.25 14.63L260.44 10.74C257.54 9.92002 254.5 11.43 253.44 14.25C249.42 24.89 238.71 50.84 221.91 74.91C220.95 76.29 218.75 75.61 218.71 73.93L217.2 5.71002C217.13 2.54002 214.54 0.0200195 211.38 0.0200195H197.14C193.97 0.0200195 191.39 2.55002 191.32 5.72002L189.83 73.89C189.79 75.57 187.59 76.25 186.63 74.87C169.89 50.83 159.15 24.9 155.12 14.26C154.05 11.44 151.01 9.94002 148.12 10.75C144.07 11.89 138.46 13.47 134.32 14.64C131.24 15.51 129.42 18.73 130.3 21.81C133.62 33.36 142.53 60.67 159.82 87.14C160.79 88.63 159.21 90.51 157.63 89.7C128.18 74.65 108.46 49.5 101.43 39.51C99.73 37.09 96.52 36.35 93.92 37.76C90.33 39.7 85.38 42.39 81.66 44.4C78.75 45.98 77.72 49.62 79.42 52.46C89.37 69.1 123.91 119.45 184.25 128.87C187.29 129.34 189.51 131.99 189.27 135.06L185.75 180.43C185.53 183.29 183.26 185.56 180.4 185.79L135.04 189.34C131.97 189.58 129.32 187.36 128.85 184.32C119.45 123.93 69.06 89.39 52.42 79.45C49.58 77.75 45.94 78.79 44.36 81.7L37.73 93.9C36.32 96.5 37.05 99.72 39.47 101.42C49.47 108.45 74.63 128.19 89.68 157.65C90.49 159.24 88.62 160.82 87.12 159.84C60.64 142.55 33.33 133.63 21.78 130.31C18.71 129.43 15.49 131.25 14.62 134.32L10.73 148.13C9.91 151.03 11.42 154.07 14.24 155.13C24.88 159.15 50.83 169.86 74.9 186.66C76.28 187.62 75.6 189.82 73.92 189.86L5.69 191.37C2.52 191.44 0 194.03 0 197.19V211.43C0 214.6 2.53 217.18 5.7 217.25L73.87 218.74C75.56 218.78 76.24 220.97 74.85 221.94C50.8 238.69 24.86 249.42 14.23 253.46C11.42 254.53 9.91 257.55 10.73 260.44C11.87 264.5 13.46 270.13 14.63 274.28C15.5 277.36 18.72 279.16 21.79 278.28C33.34 274.96 60.65 266.05 87.12 248.76C88.61 247.79 90.49 249.37 89.68 250.95C74.63 280.4 49.48 300.13 39.48 307.15C37.06 308.85 36.33 312.07 37.73 314.67L44.36 326.91C45.94 329.82 49.59 330.86 52.43 329.16C69.07 319.21 119.42 284.67 128.84 224.33C129.31 221.29 131.96 219.07 135.03 219.31L180.4 222.83C183.26 223.05 185.53 225.32 185.76 228.18L189.32 273.54C189.56 276.61 187.34 279.26 184.3 279.73C123.91 289.13 89.37 339.52 79.43 356.16C77.73 359 78.77 362.64 81.68 364.22L93.88 370.85C96.48 372.26 99.7 371.53 101.4 369.11C108.43 359.11 128.17 333.95 157.63 318.9C159.22 318.09 160.8 319.96 159.82 321.46C142.53 347.94 133.61 375.25 130.29 386.8C129.41 389.87 131.23 393.09 134.3 393.96L148.11 397.85C151.01 398.67 154.05 397.16 155.11 394.34C159.13 383.7 169.84 357.75 186.64 333.68C187.6 332.3 189.8 332.98 189.84 334.66L191.35 402.89C191.42 406.06 194.01 408.58 197.17 408.58H211.41C214.58 408.58 217.16 406.05 217.23 402.88L218.72 334.71C218.76 333.03 220.96 332.35 221.92 333.73C238.66 357.77 249.4 383.7 253.43 394.34C254.5 397.16 257.54 398.66 260.43 397.85C264.48 396.71 270.09 395.13 274.23 393.96C277.31 393.09 279.13 389.87 278.25 386.79C274.93 375.24 266.02 347.93 248.73 321.46C247.76 319.97 249.34 318.09 250.92 318.9C280.37 333.95 300.1 359.1 307.12 369.1C308.82 371.52 312.04 372.25 314.64 370.85L326.88 364.22C329.79 362.64 330.83 358.99 329.13 356.15C319.18 339.51 284.64 289.16 224.3 279.74C221.26 279.27 219.04 276.62 219.28 273.55L222.8 228.18C223.02 225.32 225.29 223.05 228.15 222.82L273.51 219.27C276.58 219.03 279.23 221.25 279.7 224.29C289.1 284.68 339.49 319.22 356.13 329.16C358.97 330.86 362.61 329.82 364.19 326.91L370.82 314.71C372.23 312.11 371.5 308.89 369.08 307.19C359.08 300.16 333.92 280.42 318.87 250.96C318.06 249.37 319.93 247.79 321.43 248.77C347.91 266.06 375.22 274.98 386.77 278.3C389.84 279.18 393.06 277.36 393.93 274.29L397.82 260.48C398.64 257.58 397.13 254.54 394.31 253.48C383.67 249.46 357.72 238.75 333.65 221.95C332.27 220.99 332.95 218.79 334.63 218.75L402.86 217.24C406.03 217.17 408.55 214.58 408.55 211.42V197.18C408.55 194.01 406.02 191.43 402.85 191.36V191.33Z" fill="#5F6C37"/>
</svg>
