<?xml version="1.0" encoding="UTF-8"?>
<svg id="Camada_2" data-name="Camada 2" xmlns="http://www.w3.org/2000/svg" viewBox="0 0 212.54 212.54">
  <defs>
    <style>
      .cls-1 {
        fill: #2a3318;
      }
    </style>
  </defs>
  <g id="Camada_1-2" data-name="Camada 1">
    <path class="cls-1" d="M209.58,99.54l-35.47-.78c-.87-.02-1.23-1.16-.51-1.66,12.5-8.71,26-14.29,31.53-16.39,1.46-.56,2.25-2.14,1.82-3.64-.59-2.11-1.42-5.03-2.02-7.18-.45-1.61-2.13-2.55-3.74-2.09-6.01,1.73-20.21,6.36-33.98,15.35-.78.51-1.75-.32-1.33-1.14,7.83-15.32,20.92-25.58,26.11-29.24,1.26-.88,1.64-2.56.91-3.91l-3.45-6.37c-.82-1.51-2.72-2.06-4.2-1.17-8.66,5.18-34.85,23.14-39.75,54.54-.25,1.58-1.62,2.73-3.22,2.61l-23.6-1.83c-1.49-.12-2.67-1.3-2.79-2.78l-1.85-23.6c-.13-1.6,1.03-2.98,2.61-3.22,31.42-4.89,49.38-31.11,54.56-39.76.88-1.48.34-3.37-1.17-4.19l-6.34-3.45c-1.35-.73-3.03-.35-3.91.91-3.66,5.2-13.92,18.29-29.25,26.12-.82.42-1.65-.55-1.14-1.33,9-13.77,13.63-27.98,15.36-33.99.46-1.6-.49-3.27-2.09-3.73l-7.18-2.02c-1.51-.42-3.09.36-3.64,1.82-2.09,5.54-7.66,19.03-16.4,31.56-.5.72-1.64.36-1.66-.51l-.79-35.49c-.04-1.65-1.38-2.96-3.03-2.96h-7.41c-1.65,0-2.99,1.32-3.03,2.96l-.78,35.47c-.02.87-1.16,1.23-1.66.51-8.71-12.5-14.29-26-16.39-31.53-.56-1.46-2.14-2.25-3.64-1.82-2.11.59-5.03,1.42-7.18,2.02-1.6.45-2.55,2.13-2.09,3.73,1.73,6.01,6.36,20.22,15.36,33.99.51.78-.32,1.75-1.14,1.33-15.32-7.83-25.58-20.91-29.24-26.11-.88-1.26-2.56-1.64-3.91-.91-1.87,1.01-4.44,2.41-6.38,3.46-1.51.82-2.05,2.72-1.17,4.19,5.18,8.66,23.14,34.85,54.54,39.75,1.58.25,2.74,1.62,2.61,3.22l-1.83,23.6c-.12,1.49-1.3,2.67-2.78,2.79l-23.6,1.85c-1.6.13-2.98-1.03-3.22-2.61-4.89-31.42-31.11-49.38-39.76-54.56-1.48-.88-3.37-.34-4.19,1.17l-3.45,6.34c-.73,1.35-.35,3.03.91,3.91,5.2,3.66,18.29,13.92,26.12,29.25.42.82-.55,1.65-1.33,1.14-13.77-9-27.99-13.63-33.99-15.36-1.6-.46-3.27.49-3.73,2.09l-2.02,7.18c-.42,1.51.36,3.09,1.82,3.64,5.54,2.09,19.03,7.66,31.56,16.4.72.5.36,1.64-.51,1.66l-35.49.79c-1.65.04-2.96,1.38-2.96,3.03v7.41c0,1.65,1.32,2.99,2.96,3.03l35.47.78c.88.02,1.23,1.16.51,1.66-12.51,8.71-26.01,14.3-31.54,16.4-1.46.56-2.25,2.13-1.82,3.63.6,2.11,1.42,5.04,2.03,7.2.45,1.6,2.13,2.54,3.73,2.08,6.01-1.73,20.22-6.36,33.99-15.36.78-.51,1.75.32,1.33,1.14-7.83,15.32-20.92,25.58-26.11,29.24-1.26.88-1.64,2.56-.91,3.91l3.45,6.37c.82,1.51,2.72,2.06,4.2,1.17,8.66-5.18,34.85-23.14,39.75-54.54.25-1.58,1.62-2.74,3.22-2.61l23.6,1.83c1.49.12,2.67,1.3,2.79,2.78l1.85,23.6c.13,1.6-1.03,2.98-2.61,3.22-31.42,4.89-49.38,31.1-54.56,39.76-.88,1.48-.34,3.37,1.17,4.19l6.34,3.45c1.35.73,3.03.35,3.91-.91,3.66-5.2,13.92-18.29,29.25-26.12.82-.42,1.65.55,1.14,1.33-9,13.77-13.63,27.99-15.36,33.99-.46,1.6.49,3.27,2.09,3.73l7.18,2.02c1.51.42,3.09-.36,3.64-1.82,2.09-5.54,7.66-19.03,16.4-31.56.5-.72,1.64-.36,1.66.51l.79,35.49c.04,1.65,1.38,2.96,3.03,2.96h7.41c1.65,0,2.99-1.32,3.03-2.96l.78-35.47c.02-.87,1.16-1.23,1.66-.51,8.71,12.5,14.29,26,16.39,31.53.56,1.46,2.14,2.25,3.64,1.82,2.11-.59,5.03-1.42,7.18-2.02,1.6-.45,2.55-2.13,2.09-3.73-1.73-6.01-6.36-20.22-15.36-33.99-.51-.78.32-1.75,1.14-1.33,15.32,7.83,25.58,20.92,29.24,26.11.88,1.26,2.56,1.64,3.91.91l6.37-3.45c1.51-.82,2.06-2.72,1.17-4.2-5.18-8.66-23.14-34.85-54.54-39.75-1.58-.25-2.73-1.62-2.61-3.22l1.83-23.6c.12-1.49,1.3-2.67,2.78-2.79l23.6-1.85c1.6-.13,2.98,1.03,3.22,2.61,4.89,31.42,31.11,49.38,39.76,54.56,1.48.88,3.37.34,4.19-1.17l3.45-6.34c.73-1.35.35-3.03-.91-3.91-5.2-3.66-18.29-13.92-26.12-29.25-.42-.82.55-1.65,1.33-1.14,13.77,9,27.99,13.63,33.99,15.36,1.6.46,3.27-.49,3.73-2.09l2.03-7.18c.42-1.51-.36-3.09-1.82-3.64-5.53-2.09-19.04-7.66-31.56-16.4-.72-.5-.36-1.64.51-1.66l35.49-.79c1.65-.04,2.96-1.38,2.96-3.03v-7.41c0-1.65-1.32-2.99-2.96-3.03Z"/>
  </g>
</svg>