<svg width="1245" height="351" viewBox="0 0 1245 351" fill="none" xmlns="http://www.w3.org/2000/svg">
<path d="M1244.97 29.8243V320.848C1244.97 337.016 1231.86 350.13 1215.7 350.13H29.268C13.1082 350.13 0 337.016 0 320.848V29.8243C0 13.6563 13.1082 0.541504 29.268 0.541504H1215.7C1231.86 0.541504 1244.97 13.6563 1244.97 29.8243Z" fill="#273617"/>
<path d="M841.975 165.239C858.794 160.902 876.41 168.396 893.645 168.396C930.092 168.396 1139.55 134.36 1245 34.3689V29.8238C1245 25.1399 1243.93 20.7337 1241.98 16.8478C1241.25 17.3682 1240.53 17.958 1239.83 18.5479C1138.33 107.263 918.613 147.787 891.911 148.967C877.312 149.488 884.352 143.832 892.258 139.704C916.741 126.519 939.108 108.617 960.539 90.5751C978.64 73.8173 1035.48 23.9256 1052.54 5.57185C1054.1 3.66361 1055.38 1.99824 1056.28 0.541043H1036.59C1005.03 23.197 946.113 79.4379 918.336 100.81C907.759 107.888 895.414 118.678 882.895 121.211C880.468 120.517 881.716 115.972 881.855 113.786C882.375 110.872 880.398 109.97 881.855 105.147C882.964 101.227 885.427 96.5427 887.369 92.6915C899.575 69.9314 928.947 24.3766 943.442 0.506348H931.964C930.438 3.24727 928.808 5.8841 926.797 8.0699C900.997 36.7628 863.268 91.9976 847.593 127.595C844.854 134.465 837.155 144.179 829.977 143.173C821.446 141.265 823.631 130.579 822.556 123.258C822.209 119.164 821.966 115.452 821.862 111.392C821.62 86.4811 852.067 34.4383 862.851 13.3089C865.036 9.00667 868.469 4.77386 871.729 0.506348H852.275C843.189 16.1192 818.152 57.4759 810.939 76.9746C803.761 98.1733 793.288 115.972 789.161 138.628C787.982 143.867 786.283 149.279 782.538 152.992C775.741 159.827 761.419 159.584 750.669 159.827C728.406 159.619 754.137 126.034 757.396 115.694C772.343 89.6383 776.712 53.0002 794.536 30.0667C797.31 25.1746 810.8 10.4292 817.042 0.541043H793.461C788.19 7.86173 782.434 17.1254 779.209 22.2255C755.246 56.0187 745.883 98.2427 725.285 134.118C720.707 141.091 716.442 148.655 709.506 153.165C702.294 157.502 687.902 158.716 683.498 154.727C679.58 149.453 684.226 139.599 686.758 130.232C688.804 124.021 691.786 117.741 694.11 111.809C697.612 103.204 693.867 102.545 697.335 94.3916C705.935 76.3154 713.911 54.5615 722.753 37.6996C729.585 24.2726 743.491 14.4538 749.143 0.541043H735.341C731.388 6.05758 727.157 12.9966 721.782 16.4661C717.586 18.7213 714.708 20.9071 712.662 25.4522C705.935 39.365 693.347 64.7966 686.307 80.4788C679.614 104.418 670.009 127.699 654.404 147.51C646.74 160.347 632.973 160.937 618.789 162.359C615.703 162.706 610.293 162.637 609.288 161.006C608.247 159.896 608.56 157.988 609.531 155.49C615.842 143.138 619.102 127.803 623.228 114.237C634.013 80.7563 645.907 49.3919 663.732 18.5479C666.853 12.6497 671.846 6.71679 675.384 0.575738H650.832C649.271 3.31666 647.919 6.12697 646.636 8.93728C620.246 67.364 609.635 113.994 589.972 142.549C584.354 150.737 580.54 162.186 570.275 164.892C561.883 166.835 547.145 167.043 542.013 164.302C534.8 159.376 546.244 142.687 546.833 134.846C556.786 89.0138 561.953 40.7528 588.03 0.541043H567.293C562.404 10.6027 559.144 21.7745 555.191 31.5586C546.695 54.7003 538.684 79.4032 531.124 103.655C524.882 125.201 508.965 143.242 496.134 161.18C492.181 165.378 488.367 165.76 480.876 165.898C468.878 166.176 447.169 166.731 432.015 167.078C423.727 167.286 417.416 167.668 416.202 165.968C415.266 164.892 416.237 162.949 418.144 160.208C421.022 156.114 425.426 150.528 428.651 145.012C446.51 112.502 460.035 79.3338 479.628 47.3796C488.297 30.3442 498.596 15.1477 510.04 0.575738H485.141C484.205 1.06147 483.477 1.26964 483.477 0.575738H473.975C445.782 38.1853 439.089 90.3669 408.642 124.542C397.892 137.101 382.773 145.324 373.063 158.959C365.053 173.601 347.991 171.797 333.738 175.023C328.363 175.752 322.017 177.695 317.925 175.96C311.614 172.629 331.103 145.775 331.97 138.108C343.448 106.778 347.575 74.5459 347.575 41.4814C347.61 27.9156 346.881 14.1763 347.193 0.575738H327.323C322.538 29.234 326.595 61.327 319.451 87.1056C314.146 105.216 307.904 123.882 299.408 140.675C293.686 150.875 282.624 163.574 274.509 175.578C267.955 186.611 260.638 194.904 248.882 199.9C241.947 202.571 236.988 206.11 235.427 199.553C232.896 177.591 233.034 154.588 229.116 132.903C227.451 123.57 193.779 31.1075 196.761 0.610433H175.296C181.503 67.1558 186.358 75.6562 191.144 103.274C193.259 115.625 202.032 153.061 204.564 165.239C210.355 193.204 211.881 213.882 196.692 226.719C180.186 240.667 171.377 231.299 160.835 226.372C151.091 221.827 137.74 203.716 133.475 193.793C118.112 157.71 66.824 57.4412 29.0946 0.541043C13.0388 0.645128 0.104033 13.5864 0 29.6503C41.8214 90.9221 137.012 262.143 146.548 266.931C173.285 280.393 152.062 295.728 147.276 315.955C144.988 322.547 141.763 337.883 141.659 350.165H208.17C208.795 342.289 208.864 334.829 209.141 331.811C211.291 314.637 222.111 298.469 231.682 283.966C236.502 276.16 244.062 269.117 253.945 271.233C297.292 278.762 345.668 325.045 387.177 350.165H441.066C422.409 337.431 396.471 318.765 384.403 310.022C350.731 286.256 315.151 258.43 274.023 249.826C266.394 248.161 259.528 245.35 268.718 237.856C282.381 227.066 300.517 216.762 318.134 219.537C351.806 226.615 383.12 249.861 412.838 267.382C429.727 275.986 436.107 292.571 452.857 302.84C468.67 313.18 483.789 328.376 501.024 331.29C506.26 331.915 509.451 332.227 514.826 334.413C521.414 336.703 531.818 343.503 542.256 350.13H583.869C575.858 342.081 559.317 331.707 554.289 329.347C531.748 320.223 508.757 311.826 488.505 297.671C472.658 285.84 461.145 269.255 443.181 260.026C419.809 246.461 402.817 224.256 380.519 209.892C377.294 207.775 368.798 203.508 371.086 199.83C387.42 191.712 419.358 193.203 432.952 203.681C438.188 207.741 447.204 211.488 450.36 212.355C456.359 214.125 462.982 217.594 468.704 220.543C479.94 226.684 483.2 234.456 492.909 240.458C504.804 247.675 518.918 253.643 529.598 262.733C543.643 275.778 560.6 289.24 575.997 300.412C583.175 304.645 591.013 306.969 597.809 312.069C609.704 320.812 620.315 333.303 633.389 339.791C642.336 343.989 648.82 341.977 658.773 345.169C661.374 346.001 665.119 347.805 669.523 350.095H719.702C696.433 342.809 660.056 315.955 642.197 303.812C629.227 295.797 615.114 288.928 601.832 281.156C568.437 261.831 540.73 237.232 510.664 215.061C505.844 211.314 499.984 208.261 495.406 204.514C490.1 199.796 487.708 197.575 479.108 194.695C461.63 188.242 484.829 189.526 491.904 188.832C510.734 187.965 528.454 187.409 546.798 192.232C596.422 206.631 643.549 232.721 680.204 265.161C686.168 269.325 692.514 270.713 698.86 273.523C706.385 276.958 714.673 283.446 722.198 289.379C731.145 297.879 738.878 301.002 748.935 306.379C759.928 313.735 770.851 321.506 782.885 327.127C799.911 335.905 821.862 343.642 846.275 350.061H919.619C903.91 347.458 890.455 345.169 883.277 344.058C830.462 334.552 738.878 277.062 699.45 241.222C691.821 234.179 686.723 225.956 678.331 218.67C665.951 208.122 649.895 200.524 635.678 193.169C620.454 185.224 646.428 187.548 651.525 187.548C689.151 194.765 725.562 208.678 760.448 224.603C812.361 249.549 852.136 290.94 912.024 295.832C960.781 299.822 1100.67 303.5 1244.97 278.692V264.918C1143.85 271.302 902.661 278.45 868.851 258.604C831.607 236.781 794.675 216.38 757.05 197.332C753.963 195.424 740.959 189.075 746.854 186.022C785.104 177.521 809.066 193.655 841.663 212.668C847.559 216.102 974.202 255.134 1244.97 182.587V167.633C1196.1 172.213 1007.28 215.686 894.269 200.628C877 198.338 845.963 186.126 830.185 179.881C824.463 177.695 820.579 176.029 820.232 174.468C821.03 170.756 832.682 167.633 841.941 165.031L841.975 165.239Z" fill="#FBF9ED"/>
</svg>
