<svg width="330" height="472" viewBox="0 0 330 472" fill="none" xmlns="http://www.w3.org/2000/svg">
<path d="M107.032 40.4474C103.726 42.8761 100.363 37.439 98.5784 41.4298C98.0205 42.6711 99.0387 43.9698 98.7679 45.0014C97.5991 49.3032 95.6297 50.8295 97.1957 56.1931C100.817 68.5828 108.294 77.1452 117.319 86.1066C121.341 90.0993 129.557 94.0424 130.246 100.063C128.16 105.32 129.613 112.393 128.29 117.331C127.438 120.503 125.306 123.044 124.14 126.053C122.519 130.25 118.932 151.751 119.183 156.076C119.984 169.5 132.616 189.615 132.159 201.645C131.855 209.61 129.263 217.446 121.265 220.725C120.357 221.095 110.862 222.049 109.354 222.08C105.408 222.162 93.1044 219.487 91.169 222.45C90.5977 223.32 91.2782 231.997 91.0821 234.346C90.5569 240.895 88.2435 247.856 89.0606 254.418C89.894 261.101 96.3037 274.284 93.9544 279.508C90.0508 288.155 79.3974 290.011 73.6774 296.448C71.4989 298.894 71.69 301.902 70.1604 304.025C64.0792 312.482 43.2122 319.056 33.1897 315.967C29.5223 314.831 26.9018 311.674 23.3703 309.837C13.3839 304.643 -3.80717 307.611 -15.0858 307.642C-19.1645 307.653 -25.0557 306.234 -28.6451 306.508C-36.6974 307.107 -46.0571 312.602 -54.8691 310.127C-57.3122 309.442 -64.8069 304.271 -66.9974 302.474C-74.8127 296.062 -76.6309 293.195 -85.9554 287.886C-87.4001 287.062 -88.1907 285.266 -89.9652 284.472C-93.2894 282.979 -94.9628 286.346 -97.2011 287.461C-101.459 289.586 -117.65 276.139 -124.762 280.305C-129.475 283.069 -130.849 288.191 -137.662 283.984C-138.149 289.606 -127.786 291.173 -124.137 294C-115.706 300.531 -113.649 307.693 -108.27 315.705C-105.295 320.14 -101.355 323.866 -98.4019 327.965C-93.9616 334.124 -95.9859 346.762 -89.8117 355.578C-81.2358 367.835 -79.0577 367.667 -79.7841 383.842C-79.8902 386.259 -81.5912 400.945 -82.2745 402.11C-86.1465 408.765 -103.487 413.997 -110.974 413.855C-118.624 413.714 -118.01 413.189 -126.107 414.35C-129.016 414.767 -139.815 414.932 -142.074 413.582C-148.132 409.97 -153.911 401.627 -159.775 397.259C-165.25 393.178 -171.917 391.856 -177.148 385.835C-179.986 382.576 -182.497 368.889 -185.641 363.511C-189.752 356.472 -198.527 358.67 -206.066 355.283C-221.067 348.534 -250.697 331.551 -248.768 312.332C-248.466 309.338 -246.176 306.953 -246.187 303.546C-246.195 300.26 -249.32 290.583 -251.297 287.931C-255.962 281.677 -259.676 282.725 -264.572 279.153C-267.062 277.344 -268.551 274.819 -270.848 273.175C-275.997 269.508 -285.274 266.35 -288.672 260.904C-290.006 258.771 -289.572 255.668 -291.927 252.472C-306.484 232.799 -329.003 225.993 -341.587 208.358C-343.445 205.761 -344.592 201.493 -346.384 198.684C-358.534 179.524 -375.467 166.433 -386.289 147.27C-390.938 139.052 -391.653 125.11 -388.317 116.369C-387.052 113.035 -385.047 111.86 -383.905 109.436C-382.919 107.334 -383.119 102.812 -381.639 99.4584C-371.637 76.6845 -351.768 84.8899 -334.298 72.8563C-328.068 62.1624 -328.983 51.1761 -327.025 39.4646C-325.055 27.6322 -321.496 4.03039 -309.961 -1.39684C-307.944 -2.34986 -295.002 -6.01255 -292.564 -6.43413C-289.132 -7.04357 -285.361 -4.94657 -282.503 -6.02946C-281.393 -6.44825 -273.186 -10.4833 -272.217 -11.115C-262.169 -17.7387 -261.755 -30.2776 -257.994 -40.6868C-255.289 -48.1467 -249.89 -60.8744 -244.94 -66.8211C-241.019 -71.5315 -234.952 -74.2258 -231.508 -78.1129C-224.544 -85.9699 -224.824 -109.315 -221.3 -120.383C-218.972 -127.702 -201.406 -151.173 -195.147 -156.102C-186.121 -163.225 -172.079 -162.028 -161.08 -163.078C-157.889 -163.383 -154.353 -164.61 -150.928 -164.898C-147.502 -165.186 -136.546 -164.302 -134.327 -165.14C-129.859 -166.814 -125.042 -173.68 -120.815 -176.628C-109.816 -184.306 -87.3195 -173.115 -76.7147 -168.024C-70.6417 -165.111 -69.245 -161.719 -61.4767 -163.758C-45.7813 -167.872 -31.4026 -185.36 -16.3849 -193.859C-1.53492 -202.271 11.6461 -205.332 28.4771 -203.864C45.6994 -202.359 55.421 -187.906 68.9959 -180.172C87.8262 -169.445 126.036 -160.368 137.695 -142.457C143.319 -133.82 140.759 -123.433 152.955 -117.435C155.167 -116.344 158.188 -116.863 160.561 -115.166C171.933 -107.023 167.702 -88.4412 176.83 -77.9829C179.913 -74.4428 183.818 -74.0472 186.656 -72.0241C194.616 -66.3489 198.524 -52.4118 205.688 -45.4407C213.208 -38.1122 228.949 -35.9967 234.662 -28.8421C242.408 -19.1546 235.142 -5.6535 242.775 4.68645C246.875 10.2395 252.214 13.6505 258.959 14.8051C264.668 15.7887 268.344 12.8823 271.836 19.5174C275.792 27.0286 268.766 28.5622 266.16 32.9122C265.163 34.5855 266.165 47.0824 266.801 49.5296C268.583 56.4232 274.507 62.0938 273.102 69.3712C271.323 71.9981 264.111 71.2743 261.255 74.7428C259.008 77.4719 262.275 82.6123 259.93 85.9945C255.785 91.9956 251.687 88.6496 250.725 89.2745C249.749 89.9131 248.072 96.1652 245.462 98.1724C241.082 101.536 236.184 99.7495 231.732 100.324C225.665 101.112 223.232 104.369 216.28 101.277C210.775 98.8166 209.092 94.5482 204.847 90.9534C201.886 88.4396 197.634 86.4157 194.487 83.3729C188.572 77.6386 181.054 64.4893 174.043 61.4669C167.046 58.4451 159.209 64.9664 153.739 65.1211C149.935 65.2225 144.88 62.3873 140.838 61.679C134.868 60.6205 128.517 61.339 122.559 59.4738C118.652 58.2569 110.278 51.7005 108.908 47.8306C108.204 45.8448 109.09 41.1173 107.03 40.5044L107.032 40.4474ZM-377.1 104.072C-377.251 108.109 -374.514 108.071 -378.384 113.804C-381.737 118.774 -382.774 117.917 -383.871 124.843C-388.022 151.049 -356.674 173.53 -344.022 194.038C-338.798 202.494 -337.551 207.973 -329.527 215.415C-321.724 222.648 -309.492 227.941 -301.899 235.423C-298.803 238.47 -290.106 248.64 -287.838 252.039C-286.378 254.22 -286.62 257.339 -285.427 259.273C-282.95 263.303 -273.286 267.133 -268.952 270.303C-266.636 271.998 -265.158 274.451 -262.675 276.253C-257.625 279.916 -253.594 279.303 -248.825 285.64C-245.831 289.619 -242.019 301.71 -243.227 306.61C-243.809 308.971 -245.551 310.521 -245.725 313.028C-246.954 330.655 -216.983 348.573 -202.441 353.96C-194.54 356.89 -188.955 353.062 -183.728 361.79C-180.725 366.791 -178.221 378.878 -175.774 382.263C-169.61 390.815 -165.593 389.679 -159.054 394.482C-147.552 402.945 -143.653 415.532 -126.55 411.232C-124.754 410.784 -122.975 409.215 -121.129 408.94C-117.536 408.416 -112.367 410.734 -106.939 409.864C-103.1 409.25 -88.1666 404.026 -86.3941 401.377C-83.3365 390.889 -83.7401 380.159 -84.4642 369.409C-89.5262 359.596 -95.8901 354.193 -98.4573 342.754C-99.3464 338.825 -98.4855 333.846 -100.419 330.825C-102.815 327.077 -106.935 323.037 -109.585 319.194C-115.24 310.97 -116.954 302.765 -125.387 296.099C-127.096 294.751 -129.752 294.371 -131.787 293.13C-135.647 290.787 -145.352 284.29 -138.308 280.765C-132.607 287.162 -129.731 281.123 -125.26 278.499C-117.986 274.24 -101.875 286.841 -98.2593 285.046C-96.772 284.307 -95.705 282.666 -93.978 281.829C-89.5118 279.677 -88.0461 283.129 -85.2028 284.681C-74.0605 290.772 -67.3444 299.61 -57.02 305.618C-48.1329 310.796 -38.0889 304.286 -29.0811 303.548C-23.1475 303.062 -15.7291 304.337 -9.5581 304.333C0.091391 304.321 9.97537 302.418 19.4495 305.12C29.7214 308.047 30.6686 314.571 43.4067 313.607C49.4178 313.146 63.8003 308.128 67.269 303.299C69.1625 300.663 69.175 296.342 72.0893 293.369C77.2772 288.068 88.6146 285.032 90.9928 277.009C91.6806 274.687 86.4132 259.945 86.0922 254.875C85.6588 248.015 88.1611 240.797 88.7582 234.236C89.0712 230.778 87.8357 222.75 89.537 220.619C92.798 216.503 103.798 219.789 108.904 219.627C120.518 219.259 128.951 216.512 129.748 203.317C130.422 192.267 117.014 170.328 115.613 157.101C115.14 152.596 118.209 131.545 119.786 127.046C121.201 122.997 124.022 119.356 124.948 115.401C126.004 110.874 124.66 104.812 126.262 100.043C118.413 89.3796 105.452 82.3712 99.2742 70.4981C97.8575 67.7689 92.5565 55.4175 92.5895 53.0406C92.6351 50.007 96.8349 42.3226 97.004 38.3657C99.4455 35.2517 101.464 37.7697 103.313 37.9454C105.348 38.143 106.731 36.814 108.663 38.3001C112.88 41.5367 108.996 45.6915 112.279 49.7469C120.757 60.2143 129.821 57.9284 140.937 59.7904C144.136 60.3285 146.949 61.9078 149.721 62.414C157.965 63.9442 168.337 54.484 176.514 59.3825C178.257 60.4252 185.101 66.8404 186.818 68.6891C196.127 78.7334 199.779 81.9826 210.204 90.6013C214.971 94.5388 215.866 99.3536 223.502 98.6305C227.388 98.2611 232.2 97.2582 236.621 96.7535C247.333 95.5421 243.391 90.4884 249.472 86.7377C252.285 85.0102 254.754 88.0467 257.619 84.7071C260.679 81.1328 253.237 77.2857 258.915 72.2329C262.428 69.1056 266.433 69.3268 270.399 67.525C268.478 59.3186 262.336 50.5967 261.382 42.1585C261.239 40.9171 261.498 33.557 261.833 32.6994C263.815 27.5525 270.564 27.5645 268.624 20.5144C267.071 14.8371 260.976 17.3517 256.515 16.3977C247.05 14.3604 238.799 6.19498 236.745 -3.3024C235.315 -9.9031 238.103 -19.7308 233.843 -25.9331C228.484 -33.7302 214.388 -35.5213 206.747 -41.9978C197.898 -49.5021 194.843 -60.3831 187.66 -67.5835C184.497 -70.7484 181.638 -70.694 178.398 -73.1835C164.32 -83.9944 169.423 -106.233 158.092 -112.946C156.781 -113.728 154.301 -112.98 152.207 -114.001C136.172 -121.828 140.762 -137.296 129.255 -146.866C113.341 -160.102 85.4834 -166.999 67.1088 -177.693C53.7217 -185.476 45.8776 -198.338 28.9472 -200.867C12.6841 -203.296 -1.18397 -199.329 -15.2982 -191.443C-30.2531 -183.085 -45.2568 -165.679 -60.9774 -161.473C-69.4909 -159.201 -70.7855 -162.646 -77.3916 -165.795C-86.6947 -170.232 -103.95 -178.431 -114.295 -176.433C-122.473 -174.854 -126.797 -165.353 -133.242 -162.489C-135.694 -161.396 -146.664 -162.267 -150.456 -161.929C-155.245 -161.497 -159.991 -160.184 -164.776 -159.673C-180.752 -157.948 -188.326 -161.344 -200.696 -147.409C-204.102 -143.57 -209.322 -136.263 -212.594 -131.89C-224.953 -115.398 -220.282 -101.272 -224.861 -83.7974C-228.365 -70.4279 -236.937 -72.3144 -244.075 -62.6504C-246.963 -58.7405 -252.79 -43.5877 -254.932 -38.1974C-261.008 -22.8977 -259.097 -14.9703 -275.983 -5.84826C-283.126 -1.98395 -286.373 -4.49515 -292.695 -3.06126C-295.745 -2.36474 -310.185 2.32221 -311.935 3.90752C-316.415 7.96657 -319.887 20.5374 -321.536 26.6407C-324.963 39.349 -325.594 64.3421 -332.258 73.6111C-334.136 76.2197 -341.066 80.2856 -344.184 81.7721C-354.134 86.5071 -365.304 83.9001 -373.245 95.0453C-373.973 96.0726 -377.055 103.153 -377.086 104.073L-377.1 104.072Z" fill="#5F6C37"/>
<path d="M32.6148 135.441C30.1929 135.285 20.1062 138.65 17.9088 139.988C8.98726 145.423 7.22269 152.414 -4.98324 149.1C-13.269 146.854 -14.0957 146.985 -22.6628 146.727C-31.7222 146.456 -28.2197 147.085 -35.7957 148.96C-37.8811 149.482 -40.5591 148.601 -42.9045 149.019C-45.7823 149.53 -48.4545 151.649 -51.3042 151.475C-55.1013 151.241 -58.7237 148.308 -59.7567 144.58C-59.937 143.923 -59.4632 134.443 -59.2683 133.344C-58.8858 131.153 -52.1946 114.078 -50.9523 112.344C-45.3091 104.469 -31.3705 99.4753 -26.2388 90.8363C-25.8703 90.2086 -22.4851 82.0123 -22.4145 81.5081C-22.0143 78.7105 -24.5562 70.843 -22.7418 67.8676C-18.8074 62.3078 -12.9948 57.4463 -8.81849 52.432C-7.19608 50.4844 -6.42971 47.1161 -4.79571 45.5832C-0.687829 41.716 5.87241 40.2276 10.9942 34.2736C13.3715 31.5069 15.8485 22.1164 15.8479 18.4668C15.838 13.1241 11.0909 6.95897 11.0741 1.08746C11.0662 -2.03395 14.1499 -4.43602 13.761 -7.67304L2.24483 -12.3083C1.78007 -11.2488 5.66393 -5.45473 5.8359 -2.67655C5.97926 -0.420913 4.64344 0.63142 4.66297 1.72496C4.71611 4.09118 7.42651 9.93722 6.26133 12.7535C4.32722 17.431 -2.49505 19.7372 -5.78541 23.5235C-7.65901 25.6752 -7.54708 28.0009 -9.05366 29.9105C-13.9572 36.1162 -23.4559 43.2624 -31.5057 44.3256C-37.4447 45.1181 -47.7456 42.7253 -53.4809 45.3473C-56.7492 46.8491 -58.4251 49.9302 -62.0405 51.7106C-65.6559 53.491 -85.3639 57.2266 -89.514 56.8925C-100.797 55.9807 -109.457 45.0774 -114.172 35.6854C-119.408 25.2507 -115.409 22.8004 -115.512 13.1115C-115.537 10.4178 -116.963 7.91687 -116.866 5.17831C-116.492 -5.86952 -106.089 -17.8424 -96.9014 -23.1372C-93.8731 -24.8845 -86.9952 -26.2813 -85.5356 -27.3929C-81.3793 -30.5224 -80.0651 -42.7388 -72.9064 -44.8884C-61.951 -48.1896 -49.8628 -42.1739 -39.9452 -39.1397C-27.5725 -35.3622 -18.656 -34.9187 -8.49256 -24.4537C-5.48412 -21.3523 -3.03441 -16.1168 0.776864 -13.2611C1.50329 -14.7812 -0.117134 -16.1974 0.0622149 -18.3113C0.629776 -25.023 5.66585 -21.0316 8.01839 -22.3209C9.44292 -23.0982 9.05111 -25.0426 9.94269 -26.2345C13.9778 -31.6402 36.3174 -38.5964 42.8892 -36.0063C55.8499 -30.8905 54.068 -26.7925 70.3932 -27.2741C77.4297 -27.486 75.8678 -26.8429 82.1775 -25.699C94.0804 -23.5334 100.019 -37.4032 110.663 -40.9385C123.363 -45.1611 131.798 -35.2168 141.406 -39.1159C145.175 -40.64 146.938 -43.7461 149.983 -45.907C151.035 -46.6567 152.591 -46.2787 153.615 -47.0296C155.116 -48.1251 156.038 -51.4585 157.952 -53.3728C159.68 -55.1019 165.049 -59.0745 167.174 -60.3874C170.676 -62.5438 174.26 -62.8542 177.858 -60.7072C188.705 -54.2067 198.176 -41.3203 196.106 -28.0779C194.278 -16.4039 185.77 -23.3301 179.07 -18.7763C174.515 -15.6773 178.607 0.902765 178.691 6.17708C178.738 9.38581 177.614 13.1108 177.676 15.6202C177.772 19.3738 180.482 23.6557 180.026 28.1651C179.807 30.3845 175.093 39.9976 173.592 41.4217C168.991 45.8115 163.909 43.4537 158.757 43.8785C151.676 44.4743 149.459 48.3974 142.825 42.0908C138.81 38.2697 136.806 31.5669 132.685 29.1342C130.725 27.9755 124.945 27.3318 122.139 26.2528C118.877 25.0051 116.251 22.6764 112.249 21.6699C103.873 19.5486 92.1191 20.196 85.3533 26.1827C83.6937 27.6431 83.2204 30.4806 81.8969 32.4548C80.6271 34.3383 78.5966 35.2623 77.522 37.6109C74.3783 44.4458 79.9386 56.3936 80.2483 62.6127C80.3749 65.1033 79.4736 66.8805 79.5543 69.0979C79.6094 70.5429 81.444 83.3023 81.7868 84.002C85.6208 91.8867 101.323 96.1505 103.976 105.658C106.848 115.953 97.255 126.616 97.5922 137.572C97.9005 147.662 105.712 159.045 107.624 169.222C108.386 173.282 107.282 185.606 103.721 187.803C103.12 188.179 94.8893 189.299 93.5281 189.4C85.068 190.018 79.6094 186.402 74.565 196.923C71.2701 203.787 73.9678 214.654 72.648 220.549C71.5385 225.496 66.2391 231.079 64.6456 235.634C63.619 238.556 61.6212 250.373 62.0651 253.313C63.2517 261.139 68.7563 264.328 70.6589 269.67C72.2349 274.091 67.5064 281.604 63.5947 283.643C61.6315 284.67 58.6602 283.977 57.0352 285.639C53.0623 289.697 55.7514 297.635 49.8298 301.142C43.4985 304.89 40.6019 301.15 35.0642 299.817C30.2412 298.648 23.4388 296.105 19.8389 295.415C16.8058 294.834 12.4128 296.768 9.11753 296.662C5.04475 296.531 0.194318 294.111 -3.80132 293.841C-12.2056 293.268 -29.7702 297.334 -38.3921 298.938C-49.0365 300.924 -75.1113 296.885 -65.8946 281.272C-58.926 269.458 -52.351 272.32 -41.2936 268.623C-31.8078 265.454 -20.2862 260.012 -14.4928 251.957C-11.5695 247.892 -10.5394 243.663 -6.36481 240.434C-1.51832 236.669 7.1648 236.71 12.877 233.78C16.2037 232.073 22.7578 226.721 24.3114 223.313C24.8847 222.044 21.4153 212.931 22.3784 208.421C23.0057 205.483 25.328 203.014 26.3111 200.283C28.7915 193.428 27.6436 188.667 33.3722 182.196C36.5021 178.667 42.2278 175.23 44.5206 171.389C46.5602 167.973 45.8863 159.66 46.3009 155.463C46.6141 152.348 48.4082 152.314 46.8768 148.373C44.7712 142.931 38.7478 135.842 32.6 135.455L32.6148 135.441ZM-14.5391 143.51C-12.8692 143.192 -7.19653 146.639 -4.91421 147.239C5.38758 149.96 10.8668 141.207 19.212 137.113C22.1568 135.663 33.144 131.934 35.9666 133.121C41.1201 135.289 47.8253 144.22 49.2389 149.641C49.7698 151.677 49.7263 167.745 49.1072 169.784C46.7813 177.402 35.7357 182.035 31.8187 191.01C30.3056 194.476 30.9858 198.446 29.9669 201.004C28.741 204.082 25.7885 205.897 25.1757 209.7C24.474 214.106 28.178 219.408 26.7864 223.393C24.8366 228.977 16.8718 236.164 11.4979 238.508C7.18533 240.396 -0.90544 240.715 -4.11793 242.947C-8.21229 245.787 -12.0338 255.743 -16.6653 260.189C-19.1557 262.58 -35.9444 271.42 -39.6872 272.824C-45.3228 274.929 -53.2484 273.133 -58.2822 277.112C-59.9132 278.395 -63.0291 282.982 -63.8854 284.882C-65.4345 288.354 -64.5566 289.59 -61.8191 291.98C-50.6009 301.803 -17.7727 289.862 -3.65481 290.261C1.44588 290.406 5.95107 293.583 10.4185 293.844C13.7388 294.037 16.6689 292.422 20.5169 293.158C25.0596 294.022 32.9964 296.768 38.0891 298.155C42.4615 299.341 44.8953 302.697 50.0143 297.857C52.1393 295.845 50.885 293.336 51.5958 290.802C51.9301 289.615 53.9803 285.243 54.7232 284.366C58.004 280.465 63.2208 283.357 66.8511 277.199C71.6246 269.109 62.9116 264.389 60.1492 257.369C57.4199 250.416 59.9053 246.054 61.225 239.637C61.6794 237.434 60.9249 234.754 61.7866 232.546C63.1504 229.067 66.1012 227.816 68.0695 225.097C70.9305 221.157 69.1932 213.523 69.5891 208.561C69.8281 205.514 70.6714 196.078 71.7203 193.836C76.3946 183.807 84.1712 187.674 92.4203 186.976C95.7747 186.685 98.8945 184.799 102.594 185.493L105.497 172.692C103.738 159.3 91.9911 144.942 94.8895 131.362C96.6319 123.17 103.597 115.627 100.848 106.716C96.8053 93.6301 79.8755 95.9725 78.4395 81.501C78.1971 79.0485 79.3528 77.1602 79.1837 75.0107C78.5931 67.2802 74.5926 56.8318 73.8649 49.31C73.3162 43.6952 73.4337 38.2078 76.4866 33.4189C85.3493 19.4761 97.5466 14.7973 113.525 19.1224C117.459 20.1905 120.44 22.5908 123.998 23.9506C127.38 25.2389 135.333 26.3643 137.357 28.7541C138.481 30.0785 138.798 32.4627 140.161 34.2397C141.659 36.1937 146.169 41.3421 148.139 42.244C150.747 43.4364 155.49 41.1522 158.271 40.9089C166.966 40.1435 167.612 43.391 174.819 34.4727C180.424 27.5386 176.573 24.7599 175.882 17.918C175.485 14.0164 176.513 9.48754 176.284 5.48574C175.766 -3.50595 170.954 -17.68 181.052 -23.0732C183.827 -24.5595 191.353 -22.423 192.411 -25.2223C193.579 -28.3027 192.879 -37.7018 191.288 -40.7238C188.956 -45.1617 176.078 -60.4944 170.65 -58.7596C168.146 -57.9622 160.362 -51.3387 158.359 -49.178C156.648 -47.3268 155.733 -44.5075 154.547 -43.4561C154.05 -43.0122 144.631 -37.6412 143.08 -36.7476C132.594 -30.7775 118.547 -41.2729 109.934 -37.783C105.605 -36.0318 99.1763 -28.6814 94.6301 -25.7964C84.4818 -19.3554 82.7824 -24.7744 73.8426 -24.826C70.2723 -24.8436 65.6124 -23.0203 61.9382 -23.6421C55.6331 -24.7215 47.5997 -30.864 41.5756 -33.0532C34.2355 -35.7177 25.3662 -31.2098 18.8519 -28.2268C17.1924 -27.4662 13.2812 -26.6621 12.2628 -25.861C11.0161 -24.8907 11.2334 -22.3464 9.12429 -20.8972C7.84568 -20.021 1.40288 -20.8776 3.15732 -16.9776C5.57327 -11.615 15.3599 -13.757 16.7159 -7.10215C17.227 -4.58151 13.4266 -0.723192 13.5189 1.20896C13.6824 4.54388 17.0447 11.038 17.6348 14.4189C17.977 16.3541 16.7644 27.8319 16.1209 29.7696C12.6408 40.1118 2.3261 41.368 -3.81957 47.9086C-6.07444 50.3017 -6.71563 53.4037 -8.37007 55.4358C-10.3854 57.9102 -13.4823 59.7618 -15.5913 62.2538C-17.4295 64.414 -18.3129 67.8489 -21.0755 69.7356C-22.5039 72.1769 -19.7909 79.53 -20.6388 82.795C-21.1053 84.5971 -22.3264 88.6039 -22.943 90.407C-25.2659 97.2541 -32.3809 99.7339 -37.5571 104.05C-44.4036 109.741 -51.5189 116.763 -54.6739 125.269C-55.9909 128.829 -58.6791 142.681 -57.0152 145.828C-53.5622 152.376 -45.362 147.812 -39.895 146.686C-38.3825 146.376 -36.4432 147.156 -35.1553 146.751C-32.9563 146.07 -31.6352 144.331 -28.5104 143.716C-24.2188 142.864 -21.3816 145.437 -18.4944 145.219C-16.4025 145.062 -15.6694 143.728 -14.5751 143.515L-14.5391 143.51ZM-40.5208 40.007C-38.3531 39.9172 -35.4848 41.0345 -32.5502 40.7046C-24.6933 39.8192 -18.2036 34.9925 -13.1008 29.152C-10.7629 26.4766 -9.66698 22.0362 -7.72208 19.8875C-5.21644 17.1261 0.712095 15.8903 2.80635 12.0122C3.47891 10.7612 1.73913 4.58354 1.61787 2.48593C1.50678 0.488745 2.51233 -1.2199 2.4562 -2.81489C2.25571 -8.03683 -9.96686 -22.2857 -14.4256 -25.725C-25.475 -34.2621 -31.8332 -34.0439 -44.1599 -37.5481C-47.8451 -38.5988 -51.2046 -40.8004 -54.6485 -41.8127C-60.2874 -43.4648 -67.2773 -42.4725 -73.0759 -41.7956C-75.7868 -40.2996 -79.3532 -29.2468 -83.1218 -25.8157C-85.9336 -23.2525 -91.2464 -22.9272 -94.6362 -20.7233C-100.125 -17.1484 -105.436 -13.3804 -108.807 -7.95475C-115.52 2.84077 -112.074 3.09607 -111.968 13.2494C-111.914 18.3867 -114.848 24.6445 -113.052 29.7961C-109.306 40.5198 -102.17 52.0035 -89.9824 53.8522C-85.8513 54.4784 -66.6734 50.9567 -63.105 48.753C-52.474 42.2103 -54.2637 40.5658 -40.5202 39.9928L-40.5208 40.007Z" fill="#5F6C37"/>
<path d="M-116.513 187.817C-137.162 186.957 -176.591 174.694 -193.272 190.831C-199.414 196.779 -195.809 198.548 -196.897 204.189C-197.36 206.605 -198.788 208.004 -199.349 210.016C-201.534 217.862 -194.28 221.744 -194.882 227.39C-195.345 231.714 -198.825 235.606 -202.991 236.864C-206.136 237.814 -219.533 237.08 -222.494 235.43C-227.99 232.37 -231.741 223.696 -237.356 222.159C-241.968 220.892 -252.724 225.408 -258.258 225.91C-270.761 227.055 -278.336 220.532 -286.178 211.812C-295.659 201.267 -304.647 197.143 -315.391 188.311C-327.614 178.262 -336.182 162.484 -342.133 147.878C-346.06 138.254 -350.278 129.446 -343.476 119.969C-336.379 110.067 -322.494 112.314 -318.145 105C-316.925 102.943 -318.309 98.0154 -318.036 95.5269C-317.675 92.1206 -314.425 75.5411 -313.115 73.2092C-309.156 66.1578 -300.195 61.168 -297.166 56.0854C-295.639 53.5124 -295.785 43.4646 -292.984 39.0726C-290.558 35.2723 -284.972 31.5942 -281.579 28.2763C-276.348 23.141 -276.815 19.1795 -268.133 18.742C-258.887 18.2778 -241.677 22.3604 -232.219 24.5831C-225.668 26.1225 -223.566 29.3725 -215.728 27.0364C-204.897 23.8087 -199.854 12.2735 -187.357 14.4134C-177.201 16.1576 -162.927 28.7763 -155.938 28.6909C-154.301 28.6651 -152.789 27.67 -151.154 27.6726C-140.272 27.7324 -129.258 28.7688 -121.949 37.76C-117.829 42.8424 -114.799 50.4942 -110.211 55.4743C-108.33 57.5154 -99.9278 64.4158 -97.5779 65.2833C-95.4457 66.0633 -86.2653 66.1677 -82.822 66.6729C-75.6658 67.7229 -73.2647 70.6566 -65.681 67.8959C-60.7 66.0785 -39.5027 53.8761 -36.1417 55.6921C-26.6664 60.808 -42.3285 70.2159 -46.4442 74.6255C-54.295 83.039 -50.0221 86.3064 -53.9828 92.6864C-60.2527 102.786 -73.1258 110.887 -79.157 122.481C-83.7692 131.342 -78.1065 133.809 -77.0373 141.538C-76.7177 143.85 -78.0442 158.809 -78.9344 161.015C-81.2255 166.735 -91.0891 176.166 -96.3357 179.586C-98.3757 180.917 -114.86 187.899 -116.528 187.83L-116.513 187.817ZM-145.03 30.3873C-149.189 29.9242 -155.009 31.293 -159.538 30.0863C-169.804 27.3592 -180.058 15.2907 -192.834 18.2103C-202.084 20.3385 -207.215 28.949 -218.245 30.7545C-232.892 33.1618 -253.373 19.3177 -269.438 21.824C-277.438 23.075 -275.481 25.3334 -279.338 29.518C-283.038 33.5446 -288.273 36.6943 -290.934 41.492C-293.617 46.3388 -292.143 54.6269 -294.93 58.5123C-297.316 61.8358 -300.174 62.383 -302.603 64.6762C-311.367 72.9022 -309.836 76.6645 -312.614 86.2498C-313.395 88.9318 -315.267 91.2335 -315.688 93.8303C-316.223 97.1366 -313.525 103.982 -315.244 106.883C-319.109 113.367 -329.996 113.778 -335.593 117.906C-340.453 121.492 -345.136 127.371 -343.812 133.575C-340.764 147.755 -328.209 172.895 -317.511 182.511C-306.13 192.733 -294.421 197.711 -283.699 209.528C-277.657 216.174 -270.942 223.284 -261.108 223.487C-254.579 223.618 -241.853 217.368 -235.999 219.344C-232.159 220.636 -226.171 229.638 -222.367 232.5C-217.268 236.337 -202.454 235.436 -199.065 229.597C-196.806 225.704 -201.972 217.565 -201.882 212.569C-201.817 209.422 -199.5 205.86 -199.296 203.491C-199.09 201.078 -200.961 198.451 -200.041 195.161C-198.981 191.426 -193.984 186.26 -190.751 184.228C-177.029 175.605 -147.151 180.092 -131.395 182.001C-127.643 182.455 -116.035 185.387 -113.735 185.024C-111.995 184.738 -95.8393 177.057 -94.3368 175.769C-91.939 173.724 -84.6099 166.189 -82.7127 163.81C-81.6813 162.517 -81.1297 160.732 -80.7507 159.148C-80.3905 157.677 -79.2439 144.147 -79.3166 142.608C-79.6788 135.23 -86.7848 129.811 -82.057 120.57C-77.8412 112.322 -64.6089 101.9 -58.1907 94.2854C-52.8158 87.9061 -55.8894 84.3021 -52.7455 78.51C-49.849 73.1791 -41.8947 66.9483 -37.5046 61.9428C-35.362 59.5022 -36.3035 57.8995 -39.2453 58.579C-45.9584 60.1398 -56.2493 67.0963 -63.3737 69.8044C-72.9649 73.4542 -74.9455 70.3664 -84.0871 68.9637C-90.3113 68.0019 -97.5195 68.7424 -102.905 65.2652C-104.798 64.045 -111.318 59.1429 -112.715 57.6716C-119.357 50.7004 -121.455 41.5869 -130.11 35.0976C-131.226 34.2591 -143.154 30.607 -145.031 30.4016L-145.03 30.3873Z" fill="#5F6C37"/>
<path d="M56.9115 -167.804C57.7326 -167.449 62.5993 -167.171 64.2587 -166.532C70.0819 -164.322 75.5574 -161.12 81.7357 -159.21C96.561 -154.632 110.697 -154.154 120.7 -139.603C125.096 -133.224 126.012 -123.68 130.453 -118.413C133.158 -115.21 136.922 -114.877 139.104 -112.688C140.627 -111.169 141.53 -108.611 143.576 -106.613C148.274 -102.035 156.459 -96.2935 160.042 -91.1688C161.668 -88.8382 164.614 -78.283 163.101 -76.2166C158.494 -69.9273 154.235 -77.0223 149.977 -74.3612C140.786 -68.6238 137.604 -51.0915 123.225 -58.0294C120.942 -59.137 119.446 -61.1339 116.875 -62.0176C116.072 -62.2933 106.241 -63.7741 105.68 -63.6828C101.767 -63.0002 89.775 -53.9278 85.0367 -51.7577C82.6273 -50.6493 72.0146 -47.8697 69.4763 -47.9736C68.0149 -48.0406 62.6979 -48.6582 61.2224 -48.9043C49.1755 -50.8686 40.823 -58.6383 28.5116 -60.7706C18.8386 -62.4521 6.22946 -60.9756 -3.35315 -64.1675C-19.1362 -69.4274 -31.8127 -81.3093 -43.6794 -92.3868C-55.9177 -103.808 -70.1391 -133.437 -54.9275 -147.37C-50.2082 -151.691 -40.4559 -152.47 -34.6047 -154.609C-28.5218 -156.824 -17.7134 -162.816 -12.7673 -166.921C-5.98759 -172.55 -3.67109 -180.461 5.11484 -183.63C17.2064 -187.991 36.2636 -185.597 46.3434 -177.278C49.8392 -174.393 52.7621 -169.552 56.9315 -167.767L56.9115 -167.804ZM63.8637 -164.384C51.1559 -167.825 53.3964 -169.519 43.3315 -176.63C33.2665 -183.742 17.1589 -185.958 5.6012 -181.553C-0.152531 -179.353 1.142 -177.129 -1.79895 -173.678C-6.5633 -168.081 -17.9948 -158.907 -24.5193 -155.324C-38.5614 -147.629 -58.6115 -152.113 -58.1029 -130.338C-57.5804 -107.683 -46.3028 -99.8363 -30.9157 -85.9507C-24.9784 -80.5939 -23.619 -77.6886 -16.0207 -73.478C4.47019 -62.1404 24.2608 -67.0226 44.9896 -58.1821C48.2889 -56.7757 51.427 -53.8762 54.8521 -52.9289C58.4398 -51.9393 75.0536 -51.2735 78.5238 -52.1242C87.8451 -54.4139 97.3687 -64.9586 105.182 -66.1886C106.563 -66.4035 115.397 -65.1706 116.977 -64.6774C121.708 -63.191 126.249 -57.5629 131.598 -59.4723C134.591 -60.5425 140.579 -68.9965 143.355 -71.7183C146.198 -74.5159 148.245 -77.2389 152.462 -77.3234C155.328 -77.3847 160.801 -73.7681 161.347 -78.3882C162.516 -88.275 152.918 -93.346 146.844 -99.3868C140.922 -105.279 137.24 -109.036 130.868 -114.404C124.405 -119.839 124.15 -128.084 120.45 -134.885C111.749 -150.897 95.651 -151.941 80.4624 -157.241C75.5263 -158.964 67.8614 -163.292 63.8563 -164.377L63.8637 -164.384Z" fill="#5F6C37"/>
<path d="M-69.0351 252.975C-69.085 246.517 -59.3566 238.994 -56.2137 233.052C-52.0805 225.251 -51.5374 217.216 -49.4311 209.032C-48.7344 206.318 -45.2911 200.017 -46.3399 197.896C-48.7608 193.004 -50.1532 192.997 -50.9777 186.443C-51.9686 178.546 -49.7457 178.68 -47.9892 172.931C-47.1967 170.321 -49.6098 165.587 -47.6569 163.417C-47.2977 163.017 -39.0354 159.206 -38.0009 158.884C-24.5718 154.648 -3.59483 164.056 4.6517 159.408C10.4932 156.112 16.0945 152.228 21.6847 148.614C25.0226 146.458 30.8925 145.084 34.1603 147.782C45.2832 156.965 36.7254 160.143 31.5205 168.479C27.7294 174.552 25.5072 181.031 19.5538 186.366C21.4779 199.207 19.2038 215.505 7.94836 223.694C1.12419 228.664 -6.85868 228.266 -13.6912 231.171C-21.0036 234.286 -18.5855 239.77 -22.8739 245.08C-28.418 251.931 -30.2256 251.771 -37.1749 254.565C-43.0281 256.925 -48.0339 258.998 -53.4557 261.29C-55.905 262.326 -61.3063 263.419 -63.5454 261.763C-65.7988 260.107 -69.0184 255.883 -69.0419 252.968L-69.0351 252.975ZM-46.6697 166.171C-43.4666 173.937 -50.1108 176.779 -49.0754 185.335C-48.3859 190.998 -46.2487 192.528 -43.9527 196.808C-41.9215 200.576 -46.2505 207.927 -47.3131 212.076C-49.6793 221.378 -50.1923 230.07 -56.3675 238.381C-60.6683 244.168 -72.2033 252.381 -62.263 259.223C-57.9977 262.154 -53.6573 257.318 -50.2804 256.128C-39.3964 252.303 -31.9934 253.084 -23.7256 242.681C-21.5645 239.963 -21.9475 235.883 -20.3365 233.342C-13.6023 222.719 6.58664 228.695 13.0034 210.995C13.8973 208.525 15.9044 198.922 16.1185 196.31C16.429 192.387 14.1489 188.244 15.9898 184.449C18.0015 180.317 22.5533 178.168 25.2929 174.752C26.8508 172.809 27.5539 169.416 28.9946 167.197C33.0054 160.99 41.4023 157.206 32.9241 150.238C30.354 148.119 26.6499 148.403 24.0169 150.088C18.1425 153.84 12.4635 157.878 6.36811 161.271C-2.27104 166.089 -10.3425 161.573 -19.0845 160.53C-28.8288 159.366 -38.7378 159.961 -46.6703 166.185L-46.6697 166.171Z" fill="#5F6C37"/>
<path d="M194.682 32.0221C195.337 27.0137 193.156 13.983 192.775 7.93942C192.679 6.43566 193.596 4.9876 193.446 3.23166C193.069 -1.16903 186.258 -12.4038 194.314 -13.7882C195.012 -13.9096 207.745 -13.017 208.492 -12.7579C212.585 -11.3833 218.471 -5.11446 220.975 -1.56232C223.898 2.57834 223.383 6.264 227.683 10.6181C233.314 16.3123 239.411 17.7617 244.424 21.6094C252.36 27.7051 248.378 28.9991 250.132 35.1917C251.05 38.4217 253.196 41.4664 253.927 45.4174C256.577 59.7172 246.798 60.2882 240.378 69.1674C237.508 73.1423 239.243 81.6982 234.756 85.4212C233.713 86.2856 228.673 88.8576 227.451 88.8719C225.372 88.8939 224.078 86.8197 222.22 86.3223C220.602 85.8918 218.914 87.1726 216.896 86.0686C210.106 82.3339 209.158 73.7389 200.979 69.5973C194.863 66.5044 189.932 68.1524 188.467 58.7435C187.991 55.7243 188.36 44.2691 189.448 41.5925C190.995 37.8063 194.166 36.0648 194.689 32.0295L194.682 32.0221ZM196.426 4.23212C196.489 5.31315 195.643 6.95695 195.731 8.64609C196.056 14.8516 198.348 34.0506 195.469 38.268C194.314 39.9634 192.247 40.8929 191.41 42.8442C190.684 44.5428 190.435 59.0025 191.19 60.6119C194.069 66.7148 202.558 66.2623 207.506 70.143L216.335 84.2387C218.905 85.8366 221.391 83.3672 223.495 83.789C225.954 84.2682 226.917 87.1001 230.536 85.3985C238.066 81.85 234.825 74.9966 238.04 69.0574C241.717 62.2658 248.67 60.6077 250.657 52.3828C252.916 43.0691 246.914 38.5953 246.432 32.2191C246.198 29.0598 250.353 28.2086 244.314 23.9476C239.83 20.7786 231.774 18.8562 226.341 14.0914C221.501 9.85084 221.402 3.72602 217.95 -1.10763C210.357 -11.7316 205.992 -9.27485 194.698 -10.9442C191.614 -8.88493 196.207 0.523523 196.419 4.23897L196.426 4.23212Z" fill="#5F6C37"/>
<path d="M13.2583 43.8944C15.1965 44.0023 19.7035 47.1364 21.4164 47.1637C22.6868 47.1871 24.7915 45.4949 26.5396 45.1879C28.7339 44.7992 36.9607 43.6004 38.6141 43.8609C45.7458 44.9885 46.3799 53.2278 52.8204 54.6628C57.3431 55.6692 60.857 50.0851 64.7543 53.63C68.1284 56.6963 66.2683 57.8201 66.9785 60.8846C68.6517 68.1666 69.0858 82.8614 71.3334 88.3242C73.2941 93.1183 80.5201 97.6993 78.4042 104.026L57.8439 120.033C52.674 120.707 46.1766 123.976 41.0976 123.826C32.9012 123.583 27.8517 115.034 19.3109 120.241C12.3522 124.485 4.79884 133.31 -4.33535 133.122C-6.49041 133.077 -8.59251 131.912 -10.7937 131.772C-19.8334 131.195 -21.8939 132.503 -29.9423 136.323C-36.0383 139.209 -38.3345 143.658 -44.1678 135.762C-47.1451 131.727 -45.0567 129.734 -44.4402 125.667C-43.9421 122.395 -44.3999 119.098 -42.1675 115.682C-33.9998 103.189 -17.8381 99.3727 -12.9765 85.4661C-10.8888 79.4807 -10.928 69.4445 -6.8823 63.7821C-5.20018 61.4226 -2.86074 60.1043 -1.34949 58.0806C1.8152 53.8749 6.56685 43.5276 13.2514 43.887L13.2583 43.8944ZM61.9919 54.6382C60.6785 54.2702 55.3545 58.7089 51.5325 56.9884C46.1259 54.5459 45.036 46.9735 38.9401 46.0169C34.3631 45.2939 25.8774 48.8033 21.6326 49.0367C15.5053 49.3715 14.097 43.1217 7.40305 49.097C5.3198 50.9615 -3.40086 62.4819 -4.83505 65.0658C-10.0684 74.4434 -7.52244 85.3536 -14.9087 94.286C-22.7165 103.744 -32.899 104.563 -40.4653 117.545C-42.1245 120.391 -43.9689 131.6 -42.293 134.104C-41.6738 135.029 -38.2669 137.818 -37.4323 137.845C-35.599 137.899 -24.2269 131.222 -20.8257 130.311C-13.7203 128.417 -4.6982 132.564 0.485375 130.684C10.4251 127.07 15.9043 115.874 28.8888 117.441C34.2121 118.08 37.2082 121.481 42.9724 120.946C56.745 119.659 57.9195 116.094 67.7929 108.341C70.7003 106.061 74.8897 105.261 77.0844 101.894C75.6281 96.992 70.4132 93.3574 68.8778 88.8165C66.7684 82.5951 67.1308 73.218 66.337 66.7862C66.0534 64.4677 63.9685 55.2048 61.9845 54.645L61.9919 54.6382Z" fill="#5F6C37"/>
<path d="M44.5273 212.564C45.896 204.949 47.5099 196.23 51.0477 188.84C53.1802 184.378 55.9064 179.369 61.7226 180.528C66.6152 190.992 59.8402 198.249 57.9687 207.329C56.5792 214.057 58.9241 225.866 55.3888 231.099C53.8991 233.295 51.6702 234.704 50.1383 237.405C45.072 246.368 58.8965 260.39 55.1549 266.65C53.5375 269.348 49.2285 271.15 48.0022 274.064C46.7759 276.978 50.8134 281.985 45.2103 284.691C40.8896 286.779 39.6033 283.655 36.9853 282.183C33.7252 280.343 24.3009 284.8 20.0216 284.132C16.92 283.655 10.0709 278.068 6.52069 277.208C3.67772 276.521 0.226064 279.536 -2.45648 274.405C-5.80752 267.983 -1.57414 262.271 4.13981 259.298C12.1674 255.113 16.3883 254.243 23.0669 246.375C26.9912 241.757 26.618 233.95 29.7544 228.865C33.5255 222.755 43.5083 218.264 44.5341 212.571L44.5273 212.564ZM46.5487 210.29C46.3574 211.125 47.3072 212.349 46.6484 214.136C43.7318 222.052 34.8481 224.295 30.994 230.687C28.7184 234.457 28.679 243.098 26.3399 246.501C24.5863 249.037 16.3783 256.407 13.6573 258.324C8.95781 261.638 -0.127934 261.488 -1.00037 268.494C-1.92509 275.906 2.69916 273.731 7.04231 275.109C10.7086 276.273 15.4946 279.218 18.7009 279.928C23.4146 280.978 31.6077 277.985 36.4883 279.842C38.816 280.73 42.2811 284.714 45.0865 281.608C47.0617 279.418 44.5691 275.58 45.8877 273.377C48.6317 268.805 55.9618 267.526 54.1491 260.688C52.9736 256.255 49.1408 250.784 47.6739 246.839C45.5839 241.19 45.2958 237.586 49.1485 232.622C50.6717 230.656 53.7751 229.169 54.6528 226.92C55.1795 225.57 53.7494 221.248 53.7627 219.177C53.7947 216.129 54.3336 207.673 55.0001 205C56.7075 198.185 63.638 190.441 58.5248 182.926C55.1301 185.422 53.4958 189.755 52.0307 193.616C50.3804 197.991 47.5334 205.952 46.5419 210.282L46.5487 210.29Z" fill="#5F6C37"/>
<path d="M34.0528 29.4968C30.9418 26.8055 25.7846 20.5379 25.364 16.5068C24.8099 11.199 29.9592 3.8748 29.6313 -0.502449C29.0733 -7.81024 16.4719 -21.3533 25.8997 -25.8954C32.0489 -28.8577 46.7975 -15.9481 57.5771 -17.9209C64.5142 -19.194 65.126 -22.6257 73.6845 -20.4113C84.434 -17.6358 90.21 -8.16467 101.738 -10.7996C105.876 -11.7444 109.157 -15.6454 112.143 -10.7808C119.804 1.68859 95.4989 6.75026 89.0432 9.87138C83.7752 12.4197 69.1838 27.428 66.5009 32.4248C64.4369 36.2613 64.6173 41.6253 59.753 44.9544C52.2653 50.0831 47.273 36.9944 43.0091 33.8559C40.8668 32.2755 38.2951 33.1629 34.0664 29.5117L34.0528 29.4968ZM73.8595 -17.183C71.6605 -17.9016 70.9382 -18.9239 68.2852 -19.0182C60.1048 -19.303 55.8375 -12.0642 45.6443 -16.2167C42.6164 -17.4477 26.1289 -28.1786 24.437 -20.8701C24.2016 -19.8298 31.7467 -6.29383 31.9374 -1.00801C32.1437 4.77125 25.8588 13.1417 28.179 18.4004C29.486 21.3679 35.0637 28.7026 37.8314 30.0086C39.3515 30.735 42.2956 29.9985 44.3101 31.5593C47.6328 34.1379 49.8978 41.0942 54.4758 43.1885C56.5146 43.8076 60.5856 40.3175 61.7433 38.7294C62.9011 37.1412 62.1862 35.4121 62.8857 34.0266C65.8306 28.2121 81.7588 11.0802 87.3205 7.98679C94.7457 3.86261 115.334 1.82703 108.552 -11.1635C101.916 -8.50689 96.635 -6.52326 89.8109 -9.58087C84.0462 -12.1737 79.9134 -15.1997 73.8384 -17.1911L73.8595 -17.183Z" fill="#5F6C37"/>
<path d="M128.84 -6.22617C128.984 -7.30587 126.816 -9.82292 126.393 -11.3686C124.142 -19.6956 128.666 -27.6239 136.904 -30.315C143.643 -32.5174 149.702 -27.8627 157.133 -32.3081C161.665 -35.0151 163.509 -40.1034 167.034 -43.5159C174.916 -51.121 187.139 -42.293 180.244 -34.0332C177.428 -30.656 172.829 -29.6301 169.833 -25.0033C168.811 -23.4167 161.156 -4.79627 160.741 -2.84919C160.363 -1.11485 160.082 5.04445 160.539 6.62726C162.099 11.9691 169.614 23.2542 167.382 28.248C165.299 32.8979 154.344 36.5277 150.26 32.8252C149.041 31.7254 148.726 29.9984 147.521 28.8992C146.316 27.8 144.148 27.2184 142.885 25.9526C138.982 22.0289 137.928 15.4936 135.077 11.5202C132.124 7.40686 125.212 4.92418 126.174 -1.28582C126.495 -3.37958 128.673 -5.12594 128.825 -6.21248L128.84 -6.22617ZM151.339 -28.2457C148.914 -28.1663 145.233 -29.3027 142.19 -29.1201C136.497 -28.7603 133.27 -27.3926 129.749 -22.5015C125.099 -16.0497 131.328 -11.538 131.22 -6.443C131.143 -2.99651 127.556 -0.872116 129.869 3.00785C131.386 5.54827 134.815 7.10988 137.027 9.77872C141.13 14.739 147.536 31.1496 154.513 31.8851C157.229 32.1677 164.393 29.5612 165.405 26.9815C166.785 23.4597 156.869 8.5268 157.73 0.391497C158.267 -4.68601 166.068 -23.0576 169.018 -27.4221C172.12 -32.0232 186.49 -38.4842 177.196 -44.0284C169.834 -48.415 161.659 -28.5875 151.354 -28.2593L151.339 -28.2457Z" fill="#5F6C37"/>
<path d="M66.8691 145.914C66.9063 142.037 72.663 138.545 74.9574 135.882C77.9275 132.418 85.5213 118.766 89.4645 128.169C91.7218 133.568 85.7927 138.482 86.0291 141.956C86.2731 145.765 94.3409 151.766 89.5995 156.629C86.0504 158.883 84.2077 155.394 81.9187 154.608C78.0661 153.286 66.8259 151.854 66.8833 145.914L66.8691 145.914ZM85.7143 127.137L69.1698 145.715C72.0061 152.323 77.5425 151.422 82.5727 153.113C84.6159 153.797 86.9986 157.529 88.5013 153.62C89.8445 150.118 83.8299 145.78 83.5452 141.568C83.2211 136.748 91.5856 132.184 85.7143 127.137Z" fill="#5F6C37"/>
<path d="M-86.357 22.8753C-89.938 18.9291 -88.1269 16.5607 -89.1527 13.0048C-89.7031 11.0967 -91.2459 9.70513 -91.6655 7.56675C-91.9318 6.22027 -88.7957 -7.05711 -88.0741 -8.28458C-84.5439 -14.268 -75.8292 -14.9969 -70.3837 -19.4378C-66.1947 -22.8445 -62.045 -30.0025 -57.4166 -32.2771C-53.787 -34.0569 -27.0476 -29.5056 -22.6527 -27.2974C-17.5856 -24.7616 -7.59245 -17.1176 -4.39311 -12.5729C1.35041 -4.40289 -0.289624 9.14284 -8.96755 14.5585C-11.0126 15.8389 -20.9205 19.5472 -23.4167 20.1592C-28.1136 21.3169 -37.9927 18.5627 -41.7863 19.9858C-45.9137 21.5381 -48.5074 26.4529 -52.2103 28.4511C-55.4383 30.1902 -61.7002 28.0555 -64.0831 28.865C-69.8412 30.822 -69.9075 37.6757 -78.3786 30.5368C-80.4363 28.8099 -84.5951 24.8472 -86.3787 22.8815L-86.357 22.8753ZM-72.1459 30.9419C-71.1127 30.8271 -67.4562 27.6914 -65.1692 26.9565C-61.8471 25.8854 -56.5631 27.6587 -53.8894 26.3754C-49.8684 24.4545 -47.026 19.05 -42.8662 17.5776C-37.4675 15.6774 -29.0109 18.809 -24.5007 17.8508C-22.0799 17.3357 -11.4186 13.194 -9.44074 11.8108C-6.77223 9.95595 -5.50323 8.96514 -4.5026 5.80644C1.34397 -12.7951 -20.0549 -25.5055 -35.6358 -28.5501C-39.3555 -29.2809 -51.0577 -30.7669 -54.5129 -30.6298C-59.3915 -30.4438 -65.8175 -20.5436 -70.4744 -17.0489C-75.0873 -13.581 -82.227 -12.7662 -85.6818 -8.80087C-87.0683 -7.2078 -90.3004 5.62283 -89.7837 7.65805C-89.3723 9.29615 -87.8819 10.7499 -87.3964 12.4981C-86.8301 14.5425 -87.0352 18.5051 -86.1915 19.7038C-85.6315 20.5052 -78.3544 27.1524 -77.077 28.226C-76.3589 28.8268 -72.713 31.0115 -72.1459 30.9419Z" fill="#5F6C37"/>
<path d="M234.775 53.2115C234.367 55.6731 231.847 56.6913 231.043 58.6939C230.39 60.3384 232.377 63.8051 231.941 66.4298C230.845 73.1342 220.7 80.3682 214.934 74.6613C211.557 71.3234 212.543 68.6998 211.299 65.592C209.09 60.0522 206.059 56.9713 205.39 49.9447C204.247 37.9063 226.395 34.9418 232.027 42.693C233.19 44.2975 235.079 51.367 234.767 53.2183L234.775 53.2115ZM220.629 74.2588C224.206 74.2695 230.142 69.0202 230.242 65.1818C230.298 63.2915 228.603 60.7366 229.189 58.618C229.885 56.0968 232.192 55.7698 232.526 52.8266C232.572 52.4142 231.692 46.6789 231.517 46.2503C228.365 38.6292 208.558 40.0825 208.277 48.8629C208.247 49.7545 209.916 56.6292 210.345 57.8395C211.233 60.3828 213.169 62.2904 213.907 64.5061C214.933 67.5406 212.546 69.1356 216.234 72.2291C216.917 72.807 219.851 74.2484 220.636 74.2519L220.629 74.2588Z" fill="#5F6C37"/>
<path d="M207.907 15.9941C202.274 11.9211 193.283 -2.73827 203.473 -5.85648C209.643 -7.73945 218.72 8.84468 219.134 13.7468C219.635 19.6524 211.258 18.4096 207.915 15.9873L207.907 15.9941ZM201.419 -2.08385C202.342 0.496512 201.051 2.55062 201.951 5.3443C203.338 9.67918 210.317 17.8355 215.077 14.7949C216.441 13.9223 213.989 10.1437 215.108 8.27545C211.648 3.4629 208.761 -6.43286 201.419 -2.08385Z" fill="#5F6C37"/>
<path d="M2.41784 113.136C-0.385449 111.478 -5.43872 105.115 -6.00831 101.756C-7.73702 91.6436 2.33436 88.8276 6.68674 82.1279C11.4961 74.7327 7.13353 59.87 18.4052 55.6461C24.846 53.2386 29.7854 59.9401 34.75 61.6645C38.4333 62.9366 40.7345 60.9811 44.7223 64.2368C55.4697 72.9973 55.8598 84.0549 53.4439 96.4904C50.5323 99.0495 47.8553 101.983 44.8486 104.423C43.1349 105.81 37.9694 109.691 36.3089 110.302C33.5755 111.297 30.9938 109.463 28.6262 109.723C26.1514 109.986 23.3787 112.294 20.8151 112.282C18.5226 112.281 16.6653 110.369 14.3802 110.361C11.2451 110.354 4.71886 114.501 2.41043 113.142L2.41784 113.136ZM3.69717 110.845C5.59805 111.866 11.4105 109.104 13.8474 109.068C16.2558 109.031 19.1228 110.877 21.4853 110.566C23.7399 110.273 25.3673 108.554 27.5103 108.02C29.5381 107.511 32.3511 108.583 34.0218 108.073C36.6614 107.274 47.3983 100.235 49.2788 98.0912C56.2849 90.0717 50.8764 73.7163 43.3861 67.5675C40.4146 65.1318 36.0167 65.616 32.8515 64.2509C27.3216 61.8533 22.4342 53.8826 16.4429 59.9653C9.06597 67.4483 14.3685 77.4928 7.0616 85.7071C3.5429 89.6627 -3.66557 93.203 -3.44213 98.9115C-3.32203 102.259 0.810502 109.306 3.68234 110.859L3.69717 110.845Z" fill="#5F6C37"/>
<path d="M19.5929 256.602C20.4666 253.753 27.0022 253.042 28.7311 251.284C29.7297 250.268 29.4034 248.469 30.0965 247.24C31.9603 243.931 35.9716 235.968 40.3478 241.075C43.8578 245.182 40.711 247.382 40.6851 250.631C40.6616 253.822 45.807 261.775 43.6825 263.773C42.821 264.581 41.0836 264.453 40.0362 265.088C36.703 267.13 33.9544 270.417 29.212 269.023C25.4293 267.911 18.389 260.538 19.5941 256.574L19.5929 256.602ZM37.1184 242.5C33.1903 244.417 33.3006 250.271 31.1313 252.668C28.962 255.065 23.0507 256.23 22.5389 257.566C21.6114 259.985 27.7768 266.572 29.8712 267.4C33.8919 268.979 38.9604 262.58 42.8146 262.295C41.027 259.029 37.4551 252.77 37.786 249.048C37.9964 246.7 40.8603 245.131 37.1184 242.5Z" fill="#5F6C37"/>
<path d="M51.6856 24.4478C46.5881 21.4323 48.3089 10.6254 46.2002 4.91106C44.7213 0.908082 34.616 -11.8471 45.4114 -10.541C52.156 -9.72932 53.8886 -6.86583 58.778 -4.00169C64.6366 -0.562225 82.1979 -4.72147 83.9938 -1.83398C84.7934 5.67654 81.0637 7.63081 74.8023 9.84568C72.2802 10.7423 66.1349 11.3407 64.6907 12.4243C61.5517 14.7813 63.2188 22.3845 56.4044 24.8481C55.6649 25.1178 52.4182 24.8706 51.6862 24.4336L51.6856 24.4478ZM42.7747 -7.37073C42.3417 -6.0386 48.755 4.43711 49.661 7.43102C50.8688 11.4229 49.4747 21.2291 53.992 22.3639C61.9478 21.8539 59.5871 13.5724 64.0787 10.4495C68.8723 7.10322 83.1517 9.3161 81.7412 -0.719158C80.9548 -1.57269 64.0962 1.47258 58.6874 -1.6128C56.9006 -2.6287 44.6356 -13.0511 42.7816 -7.36332L42.7747 -7.37073Z" fill="#5F6C37"/>
<path d="M142.374 6.16946C142.585 3.10699 143.377 -6.28106 144.957 -8.259C147.787 -11.7856 150.449 -12.2624 153.261 -8.5405C155.856 -5.1132 153.778 2.72948 154.683 6.97322C155.851 12.4562 161.357 16.3169 160.162 21.4246C158.36 29.15 152.594 30.2638 147.706 23.8858C143.732 18.7094 141.933 12.4079 142.374 6.16946ZM145.549 -0.214183C143.954 10.148 143.392 17.2528 151.807 25.2393C165.224 22.346 154.557 14.5816 152.891 7.48553C151.601 1.99047 155.647 -4.02898 150.876 -8.38812L147.203 -8.15995C145.264 -6.6752 145.898 -2.44255 145.55 -0.228447L145.549 -0.214183Z" fill="#5F6C37"/>
<path d="M81.132 141.198C81.1904 141.514 80.6348 142.177 80.7466 142.76C81.0383 144.358 83.3672 146.439 81.6304 148.039C73.221 150.559 71.5283 139.741 80.207 139.017C81.0974 139.075 81.0174 140.507 81.1394 141.191L81.132 141.198Z" fill="#5F6C37"/>
<path d="M219.552 63.4083C217.418 62.1354 218.401 58.3618 217.769 56.3646C216.756 53.1807 212.909 50.3449 216.158 47.0354C222.13 44.2088 228.143 49.2901 227.129 55.5622C226.757 57.8396 222.626 65.2411 219.552 63.4083ZM216.921 49.5164L220.589 60.9296C227.178 56.4641 225.158 44.7541 216.921 49.5164Z" fill="#5F6C37"/>
<path d="M206.392 2.26864L211.757 9.1947C208.689 15.9469 200.634 5.08979 206.392 2.26864Z" fill="#5F6C37"/>
<path d="M30.0711 96.4126C14.5117 104.011 2.68374 76.4578 24.2227 72.8328C30.9469 71.701 40.4197 72.1673 40.5243 81.1278C40.5739 85.5008 38.5888 84.7911 37.252 86.9147C34.9829 90.5286 36.8488 92.4048 31.5715 96.224C30.5115 96.9948 30.1368 96.3796 30.0711 96.4126C33.5743 95.6275 34.373 88.8538 35.5003 86.2645C37.0757 82.6722 40.8532 81.9912 36.8308 76.7914C33.1679 72.0562 17.104 74.3555 14.4319 80.6598C12.4001 85.4547 19.324 96.5441 25.0238 96.5345C26.2879 96.5363 27.6308 95.8342 28.9419 95.5593C29.3669 95.4696 29.9992 96.4239 30.0643 96.4052L30.0711 96.4126Z" fill="#5F6C37"/>
<path d="M54.7241 0.818047L62.2069 6.45233L56.9618 11.9299C53.1937 12.3827 51.8701 0.922634 54.7241 0.818047Z" fill="#5F6C37"/>
<path d="M147.22 15.8524L150.241 13.0692C152.505 14.9903 155.89 17.4286 154.773 20.9825L150.755 22.1322L147.22 15.8524Z" fill="#5F6C37"/>
<path d="M25.0708 88.2157C21.3916 88.0651 18.6237 83.2738 23.2858 80.3506C32.7194 74.4446 31.9585 88.4977 25.0708 88.2157ZM21.8372 83.6338C23.791 90.3417 31.8969 85.4669 27.7807 80.4632L21.8372 83.6338Z" fill="#5F6C37"/>
</svg>
