<svg width="740" height="484" viewBox="0 0 740 484" fill="none" xmlns="http://www.w3.org/2000/svg">
<mask id="mask0_13_4210" style="mask-type:alpha" maskUnits="userSpaceOnUse" x="0" y="0" width="740" height="484">
<rect width="740" height="484" fill="#D9D9D9"/>
</mask>
<g mask="url(#mask0_13_4210)">
<path d="M205.477 173.929C209.185 170.968 213.326 177.095 215.202 172.399C215.789 170.938 214.551 169.485 214.816 168.28C215.966 163.254 218.171 161.398 216.11 155.272C211.347 141.121 202.305 131.575 191.455 121.639C186.62 117.212 176.94 113.039 175.862 106.113C178.028 99.9398 176.018 91.833 177.317 86.0638C178.153 82.358 180.499 79.3216 181.706 75.7894C183.384 70.8624 186.525 45.845 186.032 40.8591C184.48 25.3814 168.94 2.72348 168.906 -11.2016C168.886 -20.4218 171.516 -29.5993 180.606 -33.7631C181.638 -34.2331 192.568 -35.7793 194.309 -35.8857C198.866 -36.1641 213.211 -33.6474 215.309 -37.1627C215.929 -38.1942 214.737 -48.1908 214.854 -50.9147C215.155 -58.5086 217.503 -66.6627 216.252 -74.2078C214.977 -81.8933 206.953 -96.8295 209.424 -102.978C213.532 -113.153 225.758 -115.797 232.068 -123.503C234.472 -126.432 234.11 -129.899 235.779 -132.424C242.412 -142.483 266.222 -151.055 277.95 -147.954C282.242 -146.813 285.418 -143.286 289.585 -141.328C301.37 -135.791 321.1 -140.024 334.134 -140.587C338.847 -140.791 345.722 -139.425 349.858 -139.91C359.137 -140.979 369.697 -147.767 379.998 -145.318C382.853 -144.64 391.757 -139.014 394.372 -137.04C403.705 -129.994 405.94 -126.765 416.965 -121.064C418.673 -120.18 419.671 -118.141 421.759 -117.306C425.67 -115.736 427.447 -119.705 429.982 -121.099C434.804 -123.754 454.145 -108.969 462.17 -114.116C467.488 -117.53 468.836 -123.514 476.907 -118.97C477.207 -125.491 465.157 -126.818 460.808 -129.915C450.758 -137.069 448.047 -145.25 441.456 -154.259C437.81 -159.247 433.082 -163.368 429.478 -167.967C424.058 -174.879 425.807 -189.579 418.26 -199.48C407.775 -213.245 405.266 -212.95 405.35 -231.679C405.359 -234.477 406.639 -251.53 407.375 -252.908C411.539 -260.78 431.336 -267.638 439.995 -267.823C448.844 -268.017 448.159 -267.382 457.462 -269.102C460.805 -269.72 473.278 -270.415 475.952 -268.961C483.123 -265.069 490.192 -255.697 497.173 -250.922C503.691 -246.462 511.458 -245.244 517.786 -238.53C521.218 -234.896 524.759 -219.195 528.644 -213.126C533.725 -205.183 543.763 -208.133 552.635 -204.57C570.287 -197.471 605.326 -179.227 603.994 -156.925C603.786 -153.45 601.25 -150.587 601.422 -146.649C601.585 -142.852 605.649 -131.814 608.057 -128.841C613.741 -121.83 617.984 -123.215 623.81 -119.316C626.772 -117.342 628.612 -114.493 631.343 -112.7C637.466 -108.702 648.335 -105.486 652.517 -99.3504C654.158 -96.9476 653.801 -93.3406 656.672 -89.7567C674.416 -67.7002 700.76 -60.8852 716.128 -41.0916C718.397 -38.1767 719.921 -33.2975 722.123 -30.135C737.061 -8.5587 757.244 5.7812 770.646 27.4228C776.403 36.7036 777.881 52.7839 774.433 63.0423C773.127 66.9542 770.865 68.4058 769.658 71.2612C768.617 73.7369 769.06 78.954 767.506 82.8987C757.009 109.687 733.662 101.132 714.034 115.856C707.333 128.506 708.903 141.161 707.188 154.788C705.464 168.556 702.453 196 689.375 202.811C687.088 204.007 672.302 208.845 669.503 209.446C665.565 210.311 661.109 208.063 657.856 209.448C656.593 209.984 647.296 215.031 646.206 215.806C634.902 223.931 635.01 238.442 631.149 250.649C628.371 259.397 622.726 274.359 617.282 281.463C612.971 287.091 606.085 290.488 602.285 295.141C594.604 304.547 596.018 331.515 592.462 344.473C590.114 353.039 570.908 380.987 563.905 386.976C553.806 395.63 537.52 394.904 524.857 396.63C521.184 397.132 517.155 398.715 513.209 399.208C509.263 399.701 496.56 399.191 494.033 400.263C488.948 402.407 483.702 410.568 478.954 414.172C466.601 423.559 440.077 411.676 427.583 406.288C420.428 403.205 418.655 399.35 409.772 402.069C391.824 407.557 376.023 428.441 359.063 438.965C342.293 449.382 327.202 453.534 307.681 452.624C287.706 451.69 275.795 435.439 259.744 427.135C237.48 415.617 192.894 406.911 178.583 386.755C171.679 377.036 174.154 364.911 159.778 358.548C157.17 357.391 153.703 358.132 150.881 356.282C137.356 347.401 141.379 325.727 130.341 314.067C126.612 310.119 122.08 309.844 118.705 307.639C109.241 301.451 104.073 285.526 95.4679 277.804C86.4335 269.685 68.1427 267.976 61.2049 259.974C51.8004 249.139 59.5677 233.195 50.2627 221.602C45.2638 215.375 38.9346 211.682 31.0852 210.663C24.4409 209.793 20.3284 213.324 15.9822 205.818C11.0586 197.322 19.1077 195.221 21.9168 190.072C22.9909 188.091 21.2483 173.695 20.3996 170.896C18.0181 163.012 10.9061 156.735 12.1898 148.259C14.123 145.139 22.4926 145.639 25.6314 141.497C28.1011 138.238 24.0841 132.449 26.6368 128.431C31.1473 121.301 36.0403 124.977 37.1221 124.21C38.2203 123.426 39.8666 116.122 42.7899 113.68C47.6951 109.589 53.4392 111.424 58.5573 110.552C65.5329 109.358 68.1928 105.48 76.3712 108.728C82.8496 111.315 84.9932 116.17 90.0676 120.126C93.6073 122.893 98.6167 125.034 102.395 128.403C109.499 134.755 118.803 149.601 127.047 152.766C135.275 155.932 144.029 148.029 150.343 147.595C154.735 147.3 160.71 150.34 165.414 150.97C172.364 151.915 179.67 150.788 186.644 152.665C191.216 153.889 201.2 161.075 202.964 165.484C203.871 167.746 203.067 173.251 205.477 173.863L205.477 173.929ZM762.044 77.7782C762.03 73.1063 758.869 73.278 763.074 66.4703C766.717 60.5703 767.954 61.5119 768.9 53.4561C772.473 22.9746 735.192 -1.54344 719.611 -24.6554C713.178 -34.1842 711.481 -40.4584 701.86 -48.6846C692.504 -56.6797 678.119 -62.2257 668.994 -70.5177C665.273 -73.8957 654.747 -85.2426 651.967 -89.0658C650.177 -91.5182 650.311 -95.1336 648.843 -97.3135C645.791 -101.855 634.443 -105.831 629.286 -109.292C626.53 -111.143 624.707 -113.909 621.753 -115.875C615.746 -119.873 611.115 -118.976 605.307 -126.077C601.661 -130.537 596.691 -144.332 597.858 -150.052C598.42 -152.809 600.361 -154.681 600.445 -157.587C601.041 -178.016 565.566 -197.325 548.507 -202.872C539.239 -205.89 532.963 -201.204 526.513 -211.047C522.81 -216.687 519.35 -230.539 516.364 -234.338C508.841 -243.933 504.251 -242.433 496.47 -247.679C482.78 -256.922 477.686 -271.287 458.121 -265.519C456.065 -264.918 454.083 -263.02 451.961 -262.617C447.834 -261.843 441.752 -264.281 435.519 -263.022C431.111 -262.132 414.095 -255.397 412.17 -252.253C409.126 -239.989 410.094 -227.607 411.433 -215.216C417.742 -204.111 425.349 -198.164 428.851 -185.063C430.062 -180.563 429.3 -174.769 431.675 -171.367C434.62 -167.148 439.57 -162.671 442.812 -158.353C449.732 -149.112 452.097 -139.709 462.155 -132.399C464.193 -130.921 467.28 -130.605 469.69 -129.267C474.261 -126.739 485.781 -119.684 477.805 -115.28C470.916 -122.407 467.875 -115.293 462.83 -112.052C454.622 -106.79 435.413 -120.601 431.318 -118.358C429.633 -117.434 428.477 -115.487 426.52 -114.439C421.459 -111.743 419.603 -115.665 416.245 -117.325C403.082 -123.845 394.907 -133.746 382.694 -140.207C372.181 -145.776 360.877 -137.783 350.5 -136.509C343.665 -135.671 335.032 -136.798 327.9 -136.504C316.748 -136.039 305.413 -133.379 294.337 -136.059C282.329 -138.963 280.929 -146.458 266.252 -144.749C259.326 -143.935 242.938 -137.464 239.155 -131.721C237.089 -128.585 237.277 -123.591 234.047 -120.019C228.299 -113.649 215.338 -109.611 212.964 -100.227C212.277 -97.5119 219.054 -80.7191 219.662 -74.8747C220.483 -66.9666 217.928 -58.5071 217.545 -50.8968C217.345 -46.8853 219.148 -37.6642 217.281 -35.1228C213.704 -30.2133 200.837 -33.4969 194.943 -33.0707C181.538 -32.1035 171.92 -28.5343 171.615 -13.2474C171.352 -0.44496 187.873 24.2853 190.11 39.5075C190.867 44.6916 188.304 69.1645 186.692 74.4382C185.245 79.1837 182.156 83.524 181.27 88.1377C180.26 93.42 182.097 100.363 180.468 105.95C190.037 117.907 205.345 125.402 213.04 138.836C214.805 141.924 221.508 155.951 221.581 158.7C221.67 162.208 217.175 171.286 217.165 175.867C214.488 179.58 212.038 176.764 209.892 176.647C207.531 176.514 205.995 178.115 203.693 176.487C198.668 172.944 202.963 167.96 198.978 163.427C188.691 151.725 178.322 154.79 165.388 153.157C161.666 152.685 158.34 150.991 155.113 150.536C145.514 149.152 133.968 160.57 124.289 155.291C122.226 154.167 114.016 147.072 111.945 145.016C100.717 133.842 96.344 130.258 83.893 120.783C78.1997 116.455 76.9396 110.932 68.1481 112.125C63.6739 112.733 58.1593 114.117 53.0742 114.907C40.7495 116.808 45.5424 122.464 38.6889 127.083C35.5181 129.211 32.5235 125.817 29.3683 129.811C25.9984 134.085 34.7789 138.183 28.4529 144.288C24.5384 148.067 19.8995 147.998 15.3997 150.266C18.0033 159.661 25.5098 169.454 27.0071 179.162C27.2292 180.59 27.2744 189.109 26.9272 190.116C24.8771 196.157 17.0765 196.458 19.6477 204.516C21.708 211.005 28.6351 207.814 33.8348 208.708C44.87 210.621 54.7871 219.672 57.6045 230.553C59.5652 238.115 56.8024 249.604 62.0156 256.573C68.5733 265.334 84.9492 266.746 94.0832 273.874C104.661 282.134 108.699 294.567 117.338 302.553C121.141 306.063 124.443 305.867 128.305 308.593C145.08 320.43 140.221 346.371 153.631 353.601C155.182 354.443 158.014 353.462 160.481 354.545C179.38 362.842 174.797 380.933 188.544 391.456C207.554 406.01 240.073 412.68 261.809 424.181C277.645 432.551 287.312 447.05 306.998 449.182C325.907 451.23 341.75 445.997 357.694 436.224C374.588 425.865 391.116 405.048 409.088 399.452C418.822 396.428 420.479 400.349 428.261 403.68C439.22 408.374 459.546 417.043 471.409 414.251C480.787 412.044 485.341 400.861 492.657 397.25C495.439 395.873 508.159 396.366 512.526 395.799C518.04 395.075 523.464 393.336 528.97 392.522C547.354 389.783 556.267 393.353 569.911 376.67C573.669 372.074 579.361 363.385 582.938 358.178C596.452 338.54 590.393 322.432 594.869 302.022C598.295 286.406 608.29 288.186 616.088 276.683C619.243 272.03 625.27 254.244 627.494 247.914C633.801 229.948 631.222 220.875 650.312 209.543C658.387 204.743 662.257 207.494 669.497 205.542C672.989 204.594 689.46 198.502 691.409 196.588C696.397 191.688 699.822 176.997 701.443 169.866C704.81 155.018 704.371 126.103 711.641 115.079C713.689 111.976 721.509 106.953 725.042 105.09C736.321 99.1521 749.353 101.643 758.011 88.3913C758.804 87.1701 762.035 78.843 762.028 77.7782L762.044 77.7782Z" fill="#DF6D26"/>
<path d="M287.047 60.6631C289.854 60.7305 301.354 56.3699 303.831 54.7202C313.889 48.0228 315.601 39.8602 329.863 43.1197C339.544 45.3285 340.494 45.1392 350.407 45.0369C360.89 44.9267 356.813 44.3633 365.481 41.8419C367.867 41.1415 371.004 42.0346 373.695 41.4416C376.997 40.717 379.986 38.1431 383.288 38.2109C387.688 38.3039 392.011 41.5253 393.379 45.7853C393.618 46.5365 393.514 57.5148 393.34 58.7941C393 61.3445 386.064 81.3909 384.709 83.4538C378.555 92.8193 362.679 99.2414 357.151 109.466C356.755 110.208 353.225 119.839 353.167 120.425C352.835 123.678 356.141 132.652 354.183 136.175C349.895 142.785 343.404 148.675 338.812 154.665C337.028 156.992 336.299 160.921 334.482 162.769C329.915 167.43 322.403 169.457 316.761 176.578C314.143 179.886 311.719 190.855 311.89 195.073C312.151 201.248 317.926 208.151 318.219 214.937C318.374 218.544 314.922 221.464 315.523 225.187L329.05 230.006C329.537 228.76 324.778 222.245 324.449 219.042C324.178 216.442 325.673 215.163 325.599 213.9C325.427 211.168 322.022 204.538 323.237 201.229C325.254 195.732 333.031 192.748 336.657 188.218C338.722 185.644 338.484 182.961 340.136 180.684C345.513 173.283 356.157 164.58 365.411 162.975C372.238 161.781 384.255 164.066 390.762 160.767C394.469 158.879 396.262 155.24 400.357 153.013C404.452 150.786 427.056 145.548 431.868 145.741C444.951 146.267 455.469 158.464 461.357 169.099C467.897 180.914 463.388 183.933 463.96 195.126C464.115 198.238 465.88 201.062 465.895 204.232C465.98 217.018 454.515 231.342 444.144 237.89C440.726 240.051 432.842 241.987 431.207 243.34C426.55 247.151 425.601 261.332 417.428 264.15C404.921 268.477 390.668 262.09 379.064 259.046C364.588 255.258 354.262 255.162 342.027 243.542C338.405 240.098 335.329 234.162 330.791 231.039C330.022 232.83 331.961 234.391 331.853 236.842C331.51 244.626 325.503 240.248 322.844 241.848C321.234 242.813 321.778 245.042 320.803 246.461C316.392 252.897 290.898 261.981 283.182 259.294C267.963 253.987 269.831 249.167 250.986 250.487C242.863 251.06 244.638 250.244 237.292 249.217C223.434 247.27 217.219 263.577 205.082 268.161C190.602 273.634 180.388 262.535 169.465 267.49C165.18 269.428 163.288 273.1 159.869 275.74C158.689 276.656 156.873 276.291 155.725 277.207C154.04 278.543 153.13 282.439 151.008 284.741C149.092 286.82 143.072 291.662 140.677 293.279C136.73 295.935 132.603 296.461 128.345 294.148C115.505 287.141 103.956 272.69 105.73 257.288C107.297 243.711 117.454 251.318 124.985 245.742C130.105 241.948 124.601 222.976 124.257 216.885C124.053 213.178 125.178 208.82 124.989 205.923C124.702 201.589 121.37 196.767 121.687 191.534C121.836 188.959 126.836 177.628 128.504 175.912C133.617 170.624 139.6 173.111 145.535 172.38C153.691 171.36 156.07 166.723 164.032 173.702C168.851 177.93 171.48 185.583 176.357 188.202C178.676 189.45 185.386 189.924 188.679 191.04C192.509 192.33 195.652 194.898 200.324 195.875C210.104 197.935 223.658 196.638 231.198 189.403C233.048 187.637 233.463 184.336 234.9 181.992C236.28 179.756 238.583 178.593 239.715 175.829C243.03 167.782 236.045 154.233 235.397 147.06C235.134 144.187 236.093 142.091 235.896 139.532C235.765 137.865 233.048 123.204 232.619 122.411C227.82 113.477 209.472 109.283 205.962 98.4184C202.162 86.6539 212.751 73.8816 211.85 61.2355C211.022 49.5881 201.462 36.7972 198.777 25.1242C197.706 20.4682 198.407 6.17195 202.42 3.46657C203.097 3.00467 212.557 1.32561 214.125 1.14482C223.874 0.0354606 230.352 3.9596 235.691 -8.43573C239.178 -16.5232 235.553 -28.9562 236.803 -35.8314C237.854 -41.6007 243.718 -48.3002 245.347 -53.64C246.397 -57.065 248.154 -70.8159 247.503 -74.1922C245.766 -83.1821 239.255 -86.611 236.807 -92.6957C234.779 -97.7319 239.893 -106.636 244.319 -109.176C246.54 -110.454 250.006 -109.792 251.807 -111.789C256.209 -116.665 252.73 -125.713 259.41 -130.043C266.552 -134.67 270.075 -130.484 276.537 -129.201C282.166 -128.076 290.147 -125.455 294.34 -124.825C297.872 -124.295 302.859 -126.736 306.673 -126.767C311.386 -126.806 317.105 -124.236 321.736 -124.11C331.476 -123.841 351.586 -129.361 361.476 -131.617C373.686 -134.409 404.01 -130.96 394.087 -112.484C386.585 -98.5045 378.853 -101.505 366.246 -96.7155C355.43 -92.6103 342.368 -85.7824 336.049 -76.2023C332.86 -71.3669 331.867 -66.4313 327.193 -62.5046C321.768 -57.9262 311.73 -57.5681 305.265 -53.9147C301.5 -51.787 294.175 -45.2946 292.539 -41.2838C291.936 -39.7901 296.371 -29.4203 295.469 -24.1628C294.881 -20.7375 292.312 -17.7755 291.304 -14.5733C288.757 -6.53485 290.306 -1.08619 283.988 6.66143C280.535 10.8859 274.078 15.1254 271.608 19.6722C269.41 23.7158 270.577 33.2914 270.294 38.1613C270.078 41.7766 268.006 41.8994 269.96 46.3825C272.647 52.5747 279.94 60.4861 287.064 60.6466L287.047 60.6631ZM341.169 49.1346C339.253 49.5794 332.536 45.8615 329.87 45.2741C317.837 42.61 311.913 52.9827 302.459 58.1038C299.124 59.9181 286.599 64.7405 283.282 63.5006C277.224 61.2358 269.057 51.2274 267.17 45.0274C266.462 42.6993 265.761 24.1266 266.382 21.7414C268.714 12.8279 281.263 6.95721 285.371 -3.59803C286.958 -7.67487 285.987 -12.2318 287.045 -15.2358C288.318 -18.8506 291.645 -21.0858 292.176 -25.5099C292.781 -30.6356 288.252 -36.5893 289.675 -41.2605C291.667 -47.8052 300.537 -56.4843 306.638 -59.4445C311.534 -61.8275 320.87 -62.5738 324.479 -65.3042C329.078 -68.7769 333.03 -80.4631 338.175 -85.8175C340.942 -88.6969 359.933 -99.6985 364.193 -101.496C370.608 -104.192 379.852 -102.487 385.484 -107.321C387.309 -108.88 390.696 -114.326 391.597 -116.563C393.225 -120.648 392.153 -122.035 388.877 -124.67C375.453 -135.498 338.069 -120.164 321.734 -119.966C315.832 -119.895 310.476 -123.356 305.301 -123.449C301.454 -123.518 298.143 -121.513 293.662 -122.184C288.371 -122.971 279.07 -125.774 273.119 -127.139C268.01 -128.306 265.04 -132.071 259.35 -126.238C256.988 -123.813 258.555 -120.972 257.852 -118.009C257.521 -116.623 255.356 -111.473 254.538 -110.425C250.929 -105.763 244.764 -108.862 240.856 -101.575C235.717 -92.0029 246.008 -86.9542 249.528 -78.9705C253.007 -71.061 250.339 -65.9034 249.113 -58.4256C248.691 -55.8587 249.688 -52.7958 248.795 -50.2044C247.382 -46.1192 244.03 -44.5361 241.882 -41.3014C238.759 -36.6146 241.124 -27.872 240.898 -22.1188C240.764 -18.586 240.23 -7.64099 239.123 -5.00016C234.189 6.80932 225.02 2.70221 215.519 3.89424C211.656 4.38753 208.138 6.71347 203.83 6.08394L201.073 21.0147C203.732 36.4104 217.979 52.456 215.263 68.2864C213.632 77.8359 205.935 86.8787 209.528 97.05C214.812 111.985 234.269 108.487 236.605 125.145C236.999 127.968 235.752 130.205 236.048 132.681C237.092 141.588 242.203 153.477 243.396 162.136C244.292 168.6 244.413 174.948 241.108 180.625C231.516 197.154 217.638 203.131 198.968 198.879C194.371 197.828 190.815 195.193 186.639 193.788C182.669 192.457 173.425 191.527 170.975 188.86C169.613 187.382 169.136 184.641 167.478 182.651C165.655 180.463 160.202 174.723 157.883 173.773C154.813 172.516 149.438 175.378 146.235 175.789C136.222 177.08 135.324 173.357 127.411 184.001C121.257 192.277 125.837 195.308 126.955 203.184C127.597 207.674 126.62 212.957 127.072 217.571C128.09 227.939 134.314 244.096 122.894 250.801C119.757 252.648 110.959 250.531 109.867 253.815C108.66 257.43 109.91 268.261 111.889 271.679C114.792 276.699 130.392 293.818 136.584 291.56C139.441 290.521 148.128 282.502 150.342 279.912C152.233 277.692 153.159 274.391 154.481 273.12C155.034 272.584 165.669 265.937 167.42 264.831C179.26 257.442 195.986 268.915 205.778 264.48C210.698 262.253 217.785 253.458 222.905 249.911C234.333 241.993 236.55 248.176 246.885 247.819C251.012 247.672 256.312 245.347 260.588 245.894C267.926 246.847 277.497 253.571 284.562 255.82C293.17 258.556 303.21 252.932 310.599 249.18C312.482 248.224 316.965 247.111 318.104 246.138C319.5 244.958 319.13 242.028 321.5 240.254C322.937 239.182 330.423 239.871 328.213 235.446C325.17 229.361 313.959 232.293 312.081 224.665C311.373 221.776 315.585 217.139 315.388 214.91C315.043 211.064 310.854 203.715 310.014 199.835C309.528 197.615 310.393 184.292 311.047 182.023C314.586 169.907 326.448 167.973 333.245 160.127C335.74 157.256 336.336 153.641 338.153 151.215C340.367 148.261 343.86 145.976 346.181 142.998C348.204 140.415 349.065 136.404 352.17 134.094C353.706 131.206 350.227 122.834 351.055 119.021C351.51 116.916 352.734 112.229 353.362 110.116C355.727 102.094 363.834 98.8953 369.615 93.665C377.262 86.7682 385.158 78.3198 388.407 68.3419C389.763 64.1659 392.222 48.0299 390.152 44.4712C385.856 37.0648 376.591 42.7226 370.326 44.2795C368.592 44.7078 366.314 43.8977 364.845 44.4252C362.335 45.3154 360.889 47.3865 357.306 48.2431C352.386 49.4293 348.987 46.588 345.66 46.9743C343.25 47.2537 342.465 48.8299 341.21 49.1264L341.169 49.1346ZM376.032 167.545C373.531 167.75 370.164 166.593 366.788 167.111C357.748 168.501 350.473 174.383 344.849 181.371C342.272 184.573 341.212 189.756 339.065 192.33C336.298 195.639 329.504 197.344 327.264 201.924C326.546 203.401 328.845 210.46 329.083 212.879C329.305 215.182 328.222 217.203 328.362 219.044C328.837 225.07 343.629 240.967 348.943 244.734C362.113 254.085 369.451 253.535 383.861 257.01C388.17 258.052 392.155 260.439 396.183 261.449C402.777 263.095 410.809 261.621 417.479 260.568C420.543 258.712 424.148 245.771 428.344 241.63C431.474 238.536 437.599 237.912 441.414 235.206C447.59 230.818 453.552 226.215 457.196 219.787C464.449 206.996 460.454 206.862 459.858 195.132C459.555 189.197 462.655 181.828 460.338 175.958C455.507 163.739 446.723 150.8 432.551 149.233C427.747 148.702 405.747 153.668 401.726 156.382C389.744 164.44 391.89 166.257 376.032 167.561L376.032 167.545Z" fill="#DF6D26"/>
<path d="M456.957 -6.83695C480.862 -6.80822 527.005 5.52263 545.53 -13.9069C552.352 -21.0682 548.102 -22.9442 549.095 -29.5141C549.518 -32.3286 551.104 -34.0117 551.658 -36.3639C553.817 -45.5334 545.251 -49.6815 545.684 -56.2352C546.016 -61.2537 549.857 -65.9155 554.612 -67.5639C558.204 -68.8085 573.722 -68.586 577.221 -66.8177C583.715 -63.5374 588.456 -53.6876 595.018 -52.1736C600.407 -50.9245 612.627 -56.6468 618.999 -57.4854C633.396 -59.3931 642.456 -52.2072 651.927 -42.4952C663.378 -30.7516 673.958 -26.4044 686.788 -16.699C701.385 -5.65546 712.024 12.1794 719.584 28.7828C724.573 39.7224 729.859 49.7046 722.44 60.9763C714.7 72.7513 698.547 70.8033 693.863 79.4597C692.549 81.8941 694.378 87.5245 694.179 90.4134C693.921 94.3672 690.94 113.681 689.535 116.437C685.288 124.772 675.165 130.957 671.901 136.973C670.257 140.018 670.895 151.624 667.863 156.831C665.236 161.337 658.952 165.849 655.186 169.842C649.38 176.021 650.104 180.578 640.091 181.489C629.426 182.458 609.345 178.543 598.31 176.416C590.667 174.943 588.085 171.285 579.136 174.351C566.769 178.587 561.479 192.155 546.936 190.266C535.117 188.724 518.029 174.807 509.956 175.232C508.066 175.338 506.365 176.559 504.474 176.632C491.894 177.072 479.117 176.388 470.249 166.338C465.249 160.657 461.391 151.955 455.855 146.413C453.586 144.142 443.553 136.559 440.796 135.666C438.296 134.864 427.68 135.173 423.677 134.75C415.357 133.87 412.445 130.592 403.809 134.137C398.137 136.47 374.208 151.563 370.239 149.621C359.049 144.151 376.711 132.547 381.262 127.258C389.942 117.167 384.851 113.59 389.131 106.032C395.906 94.0662 410.405 84.1023 416.834 70.4199C421.751 59.9641 415.091 57.3771 413.494 48.4946C413.017 45.8365 413.851 28.4862 414.777 25.8948C417.158 19.177 428.117 7.81631 434.021 3.61786C436.316 1.98467 455.042 -6.85444 456.973 -6.85345L456.957 -6.83695ZM497.27 173.781C502.098 174.122 508.76 172.268 514.051 173.451C526.043 176.123 538.459 189.593 553.088 185.621C563.68 182.73 569.207 172.538 581.871 169.936C598.687 166.47 623.004 181.513 641.455 177.866C650.643 176.047 648.275 173.528 652.537 168.511C656.625 163.685 662.529 159.8 665.38 154.131C668.255 148.404 666.164 138.894 669.204 134.273C671.806 130.32 675.083 129.554 677.784 126.79C687.529 116.874 685.583 112.597 688.346 101.389C689.123 98.2525 691.18 95.5048 691.545 92.4839C692.009 88.6376 688.571 80.852 690.422 77.4192C694.586 69.7447 707.149 68.7606 713.425 63.7286C718.875 59.3566 724.013 52.343 722.193 45.2351C718.008 28.9884 702.322 0.519309 689.509 -10.0941C675.878 -21.3765 662.113 -26.5838 649.168 -39.7396C641.875 -47.1393 633.782 -55.0429 622.407 -54.8175C614.854 -54.6646 600.438 -46.8468 593.58 -48.8561C589.082 -50.1709 581.741 -60.2945 577.211 -63.4252C571.138 -67.6215 554.058 -65.8886 550.415 -58.9815C547.986 -54.3768 554.337 -45.2112 554.466 -39.4331C554.538 -35.7929 552.027 -31.568 551.902 -28.8193C551.776 -26.0212 554.061 -23.0732 553.151 -19.2271C552.101 -14.8611 546.567 -8.65662 542.926 -6.15741C527.468 4.4498 492.727 0.659788 474.428 -0.810586C470.07 -1.1595 456.518 -4.00592 453.876 -3.479C451.879 -3.0673 433.565 6.56444 431.889 8.12365C429.213 10.5986 421.095 19.6495 419.013 22.4879C417.881 24.0309 417.327 26.119 416.963 27.9678C416.616 29.6845 415.922 45.3757 416.078 47.1505C416.842 55.6611 425.308 61.5921 420.275 72.4935C415.788 82.2231 400.982 94.886 393.919 103.987C388.005 111.611 391.726 115.633 388.363 122.474C385.264 128.77 376.362 136.343 371.522 142.334C369.16 145.254 370.323 147.063 373.691 146.14C381.377 144.022 392.946 135.502 401.053 132.039C411.968 127.373 414.401 130.849 425.032 132.043C432.271 132.864 440.567 131.671 446.954 135.438C449.199 136.76 456.963 142.121 458.646 143.757C466.649 151.503 469.5 161.938 479.806 169.034C481.134 169.951 495.091 173.615 497.27 173.764L497.27 173.781Z" fill="#DF6D26"/>
<path d="M507.44 365.766C505.533 365.856 498.961 368.824 497.499 370.136C496.021 371.464 495.483 373.371 494.137 374.666C491.197 377.471 472.779 383.215 468.04 383.939C458.374 385.411 444.341 385.8 436.528 379.251C433.533 376.748 431.734 375.047 428.318 372.404C420.207 366.102 419.935 350.336 414.698 340.997C410.624 333.731 404.574 333.126 402.54 323.178C400.457 313.049 406.607 311.195 409.12 303.998C409.831 301.968 408.355 298.938 408.571 296.462C410.074 279.549 436.04 283.805 439.999 273.184C440.933 270.683 438.632 266.794 438.732 264.632C439.058 257.013 452.514 254.742 458.525 250.931C462.455 248.441 475.254 239.367 477.749 236.215C479.64 233.814 480.352 229.704 481.022 226.626C482.901 217.902 479.736 207.285 488.695 202.576C490.99 201.372 494.349 202.356 496.908 201.747C502.695 200.371 507.097 196.717 514.039 196.514C528.534 196.076 538.068 211.83 551.02 209.847C567.373 207.338 579.591 203.514 596.915 207.857C605.185 209.924 607.272 212.674 610.644 220.526C616.267 233.62 607.2 256.389 600.954 268.47C595.632 278.786 593.438 277.15 586.534 283.552C578.094 291.373 582.694 317.764 577.488 329.417C574.943 335.111 569.905 340.358 566.51 345.846C563.288 351.061 561.948 356.69 557.752 361.591C548.791 372.044 534.766 372.623 522.155 369.975C518.268 369.156 510.436 365.611 507.431 365.758L507.44 365.766ZM463.585 379.512C468.885 379.036 485.734 375.553 490.019 372.922C491.803 371.834 492.646 369.011 494.702 367.204C507.329 356.043 521.066 368.307 535.173 367.762C555.199 366.979 555.807 355.861 564.176 342.436C567.389 337.278 572.394 332.856 574.485 327.368C579.138 315.162 574.512 289.324 583.811 280.81C585.777 279.012 588.716 278.204 590.73 276.554C596.858 271.539 607.627 244.528 608.564 236.299C609.882 224.686 607.652 212.724 594.173 210.348C588.206 209.297 572.127 208.859 566.092 209.591C560 210.331 551.067 214.734 545.537 213.592C533.99 211.2 524.662 196.396 510.611 200.053C508.424 200.622 506.5 202.478 504.444 202.981C499.326 204.233 488.983 203.938 486.652 210.227C486.412 210.879 485.532 222.005 485.39 223.929C485.066 228.295 487.532 233.802 483.807 238.183C476.598 242.562 469.612 249.014 462.626 253.451C458.861 255.843 446.403 260.797 444.858 262.324C442.298 264.848 444.202 270.107 443.119 273.235C438.06 287.843 412.499 282.076 411.849 295.828C411.707 298.791 414.222 302.895 413.247 305.42C410.685 312.072 404.014 314.066 406.667 323.23C408.917 331.015 411.129 329.943 415.312 334.84C419.321 339.53 424.416 352.046 426.542 358.172C427.301 360.352 426.556 363.026 427.909 365.074C428.833 366.477 444.139 377.818 446.12 378.711C451.508 381.132 457.906 380.071 463.585 379.562L463.585 379.512Z" fill="#DF6D26"/>
<path d="M273.133 412.276C272.167 411.904 266.529 411.81 264.582 411.149C257.748 408.867 251.27 405.422 244.04 403.503C226.692 398.905 210.332 399.012 198.091 382.662C192.713 375.495 191.208 364.507 185.829 358.628C182.554 355.052 178.187 354.843 175.563 352.415C173.732 350.73 172.569 347.816 170.111 345.602C164.467 340.531 154.739 334.278 150.359 328.522C148.371 325.905 144.472 313.843 146.125 311.384C151.155 303.9 156.409 311.901 161.207 308.626C171.561 301.566 174.42 281.154 191.362 288.501C194.052 289.675 195.875 291.913 198.888 292.814C199.829 293.095 211.26 294.347 211.904 294.216C216.395 293.244 229.831 282.198 235.206 279.469C237.938 278.075 250.074 274.367 253.013 274.368C254.705 274.377 260.879 274.843 262.596 275.058C276.611 276.766 286.627 285.356 300.956 287.245C312.214 288.736 326.718 286.441 337.942 289.682C356.429 295.024 371.636 308.165 385.868 320.413C400.546 333.041 418.367 366.621 401.437 383.435C396.184 388.649 384.949 390.005 378.287 392.75C371.36 395.595 359.148 403.026 353.623 408C346.05 414.823 343.743 424.075 333.736 428.147C319.965 433.753 297.828 431.876 285.789 422.733C281.614 419.561 278.01 414.103 273.108 412.235L273.133 412.276ZM264.938 408.648C279.786 412.032 277.275 414.094 289.24 421.843C301.205 429.592 319.925 431.401 333.077 425.77C339.624 422.958 338.024 420.448 341.262 416.322C346.507 409.631 359.29 398.494 366.664 394.049C382.534 384.498 405.916 388.745 404.311 363.601C402.649 337.442 389.248 328.9 370.816 313.571C363.703 307.657 361.996 304.363 353.018 299.851C328.806 287.705 306.161 294.272 281.79 285.023C277.912 283.552 274.149 280.347 270.146 279.412C265.954 278.436 246.721 278.443 242.75 279.588C232.084 282.67 221.569 295.302 212.596 297.088C211.011 297.401 200.743 296.389 198.894 295.893C193.357 294.396 187.846 288.103 181.753 290.56C178.343 291.937 171.817 301.987 168.736 305.263C165.582 308.629 163.343 311.872 158.473 312.166C155.163 312.371 148.668 308.447 148.253 313.812C147.364 325.293 158.694 330.706 165.996 337.404C173.116 343.937 177.547 348.107 185.162 354.013C192.885 359.993 193.566 369.511 198.16 377.198C208.963 395.297 227.618 395.752 245.42 401.168C251.205 402.929 260.266 407.573 264.946 408.64L264.938 408.648Z" fill="#DF6D26"/>
<path d="M434.322 -5.37879L431.88 -6.98138C428.146 -1.5354 420.41 1.53951 416.19 5.98645C412.639 9.73212 407.203 33.9394 399.018 27.926C392.161 22.8956 396.605 16.476 394.932 12.2076C393.901 9.59046 390.807 7.76466 390.322 4.17377C390.223 3.43082 393.135 -9.64258 393.54 -10.3935C395.341 -13.6943 400.378 -16.5478 401.081 -19.8079C401.644 -22.416 394.538 -41.4047 395.829 -47.3802C398.516 -56.1202 415.82 -77.812 415.568 -85.3814C415.446 -89.3353 406.938 -94.086 410.119 -98.7645C415.62 -106.835 427.388 -100.275 434.742 -98.8593L451.188 -106.23C455.736 -106.022 463.014 -100.19 466.934 -100.13C469.328 -100.096 472.672 -102.711 475.157 -103.312C477.972 -103.996 481.249 -103.078 484.064 -103.597C491.766 -105.021 497.29 -109.682 497.13 -117.887C496.888 -130.235 478.927 -129.997 477.824 -137.08C477.207 -141.034 481.048 -145.415 482.296 -148.724C483.899 -152.966 482.721 -156.442 486.784 -160.435C488.634 -162.25 495.734 -165.135 498.483 -166.199C507.367 -169.661 504.551 -168.565 512.19 -174.628C514.023 -176.08 516.549 -176.475 518.424 -178.149C523.106 -182.365 523.398 -188.498 532.073 -187.659C536.514 -187.228 555.693 -180.367 558.845 -177.84C563.268 -174.288 568.644 -163.274 569.524 -157.586C570.067 -154.037 568.201 -152.304 568.529 -149.365C569.285 -142.695 576.327 -128.56 578.445 -120.594C580.01 -114.683 583.184 -106.155 579.202 -100.725C570.323 -88.6206 555.675 -79.5152 542.291 -73.29C534.018 -69.4477 524.633 -69.9891 520.691 -59.6484C518.657 -54.3171 519.321 -44.2547 515.934 -39.1057C512.77 -34.295 497.957 -24.3808 492.26 -22.6008C479.39 -18.571 448.753 -26.1807 440.932 -17.2452C438.669 -14.6545 439.771 -7.35705 434.322 -5.36228L434.322 -5.37879ZM393.566 4.31576C393.903 5.64488 397.022 8.58503 397.97 11.5158C399.379 15.8336 396.784 21.2471 400.48 24.98L403.204 25.2125C408.084 23.4568 409.964 10.7213 412.847 6.71938C414.457 4.48327 425.325 -5.06972 427.843 -6.89264C429.957 -8.42688 433.152 -8.31794 434.77 -9.76988C437.025 -11.8076 436.88 -19.5502 442.214 -22.4365C442.998 -22.8571 452.26 -24.0245 453.878 -24.1062C469.595 -24.9071 486.051 -19.4343 500.46 -29.1918C503.342 -31.1467 510.361 -37.1027 512.195 -39.8257C516.276 -45.8989 514.671 -55.8957 517.291 -61.0533C522.05 -70.4444 531.378 -70.8853 539.535 -75.4376C546.372 -79.2476 559.599 -85.8939 564.884 -90.4311C567.65 -92.7987 575.826 -100.62 576.612 -103.5C577.637 -107.263 574.007 -126.985 572.697 -131.583C571.23 -136.702 566.793 -144.397 566.342 -149.391C566.071 -152.338 567.797 -154.162 567.493 -156.927C565.866 -171.323 553.703 -177.619 541.662 -181.844C536.206 -183.753 529.819 -186.761 525.161 -182.289C520.545 -177.859 512.723 -168.164 507.405 -164.766C505.102 -163.29 498.556 -162.988 495.064 -161.545C483.563 -156.821 488.522 -154.285 485.084 -145.999C484.002 -143.383 481.285 -141.56 481.3 -138.423C487.306 -132.626 494.486 -130.625 499.501 -123.391C505.168 -115.241 495.322 -102.848 486.803 -100.921C483.658 -100.204 480.868 -101.543 478.392 -101.313C474.355 -100.944 469.385 -97.6612 465.563 -97.9686C461.75 -98.2677 453.745 -103.274 450.493 -102.797L433.708 -95.3022C426.999 -98.1533 419.324 -102.152 412.19 -98.1114C411.965 -93.91 416.223 -91.3655 417.724 -87.8154C421.838 -78.0814 399.969 -56.7633 399.724 -44.6707C399.622 -39.388 405.192 -20.4662 404.564 -18.634C403.638 -15.9601 399.518 -13.5106 397.659 -10.4162C397.006 -9.31869 393.36 3.56452 393.557 4.30751L393.566 4.31576Z" fill="#DF6D26"/>
<path d="M399.04 -79.9253C399.4 -72.4632 388.508 -63.3147 385.153 -56.3002C380.74 -47.0906 380.488 -37.7798 378.436 -28.2223C377.757 -25.0529 374.072 -17.6094 375.383 -15.2067C378.41 -9.66647 380.019 -9.72342 381.278 -2.18655C382.793 6.89403 380.217 6.84318 378.456 13.5696C377.662 16.6233 380.672 21.9819 378.516 24.5809C378.12 25.0595 368.748 29.8505 367.568 30.2709C352.245 35.7935 327.561 25.9003 318.247 31.6571C311.65 35.7397 305.358 40.491 299.066 44.9286C295.309 47.5763 288.589 49.4384 284.686 46.4731C271.401 36.3795 281.144 32.3068 286.77 22.4292C290.868 15.2335 293.133 7.64061 299.765 1.19734C296.941 -13.5547 298.808 -32.4975 311.434 -42.4871C319.089 -48.5501 328.334 -48.4628 336.095 -52.1403C344.401 -56.0817 341.35 -62.307 346.058 -68.6439C352.146 -76.8209 354.242 -76.7208 362.143 -80.2744C368.798 -83.2756 374.487 -85.9058 380.646 -88.8082C383.428 -90.1192 389.62 -91.6348 392.285 -89.8258C394.967 -88.0167 398.885 -83.285 399.049 -79.9171L399.04 -79.9253ZM377.246 21.4436C373.182 12.6176 380.728 9.0226 379.132 -0.817419C378.07 -7.33066 375.529 -8.99934 372.675 -13.8379C370.151 -18.0984 374.811 -26.7961 375.846 -31.6409C378.146 -42.5025 378.333 -52.5727 385.082 -62.4662C389.782 -69.3562 402.73 -79.3869 390.922 -86.8301C385.855 -90.0189 381.065 -84.2268 377.217 -82.6935C364.817 -77.7637 356.224 -78.3211 347.154 -65.9112C344.784 -62.6684 345.417 -57.9714 343.674 -54.9594C336.387 -42.367 312.774 -48.3305 306.185 -27.5741C305.267 -24.6773 303.396 -13.4853 303.271 -10.456C303.095 -5.90796 305.924 -1.2263 303.974 3.24657C301.841 8.11556 296.681 10.8121 293.674 14.8882C291.965 17.2068 291.31 21.1603 289.749 23.7927C285.403 31.1533 275.875 35.9195 286 43.5765C289.069 45.9058 293.337 45.4045 296.301 43.3341C302.915 38.7233 309.29 33.7904 316.177 29.5842C325.936 23.6131 335.476 28.455 345.628 29.2526C356.945 30.1416 368.369 28.9918 377.247 21.4271L377.246 21.4436Z" fill="#DF6D26"/>
<path d="M104.569 187.762C104.046 193.581 107.175 208.539 107.898 215.506C108.079 217.24 107.087 218.956 107.342 220.979C107.983 226.047 116.38 238.714 107.134 240.69C106.333 240.863 91.5746 240.426 90.6997 240.161C85.9047 238.764 78.8094 231.794 75.7491 227.805C72.1774 223.156 72.6005 218.872 67.4275 214.041C60.6539 207.723 53.5393 206.333 47.5653 202.12C38.1092 195.445 42.65 193.764 40.3341 186.689C39.1226 182.998 36.4995 179.58 35.47 175.048C31.7391 158.644 43.0152 157.527 50.0203 146.965C53.1511 142.237 50.7459 132.43 55.7586 127.917C56.923 126.87 62.6284 123.661 64.0399 123.588C66.442 123.465 68.0339 125.802 70.2045 126.29C72.0946 126.712 73.9856 125.153 76.3705 126.335C84.3917 130.334 85.889 140.223 95.5361 144.628C102.749 147.917 108.371 145.782 110.503 156.588C111.195 160.055 111.304 173.312 110.171 176.456C108.559 180.904 104.976 183.065 104.561 187.753L104.569 187.762ZM103.851 219.962C103.728 218.715 104.629 216.776 104.448 214.828C103.783 207.671 100.237 185.588 103.368 180.58C104.623 178.566 106.968 177.395 107.844 175.101C108.605 173.104 108.217 156.38 107.269 154.556C103.657 147.637 93.8667 148.556 87.967 144.302L77.1041 128.423C74.0591 126.697 71.3007 129.667 68.8493 129.278C65.9853 128.839 64.7405 125.611 60.637 127.746C52.0997 132.199 56.1651 139.969 52.7277 146.983C48.7945 155.005 40.8362 157.246 38.9245 166.844C36.7481 177.714 43.8939 182.605 44.7486 189.951C45.1677 193.592 40.4043 194.77 47.5832 199.412C52.9138 202.865 62.3145 204.711 68.8163 209.964C74.6085 214.639 75.0093 221.713 79.2246 227.138C88.4964 239.062 93.4257 236.019 106.558 237.421C110.026 234.897 104.278 224.237 103.859 219.953L103.851 219.962Z" fill="#DF6D26"/>
<path d="M391.237 297.494C391.94 310.123 377.695 305.114 371.507 300.422C362.901 293.905 356.45 286.555 346.176 281.688C341.686 279.556 338.888 280.422 334.538 279.173C330.519 278.024 315.953 273.369 319.067 267.65C319.704 266.487 327.557 260.077 329.076 259.087C334.509 255.557 340.659 254.628 346.882 256.117C349.853 256.828 362.852 260.755 364.354 262.308C366.292 264.331 366.687 267.699 368.196 269.739C375.315 279.392 390.435 283.081 391.253 297.494L391.237 297.494ZM321.865 268.683C327.639 277.139 341.21 275.132 348.216 278.99C353.159 281.708 360.577 287.036 365.33 290.456C371.955 295.222 377.102 303.875 387.091 301.8C390.309 287.068 374.116 282.8 366.651 273.841C363.978 270.637 363.163 265.857 360.613 264.147C358.113 262.47 354.399 262.683 351.642 261.757C347.771 260.459 345.363 257.849 340.682 258.284C334.219 258.884 327.24 265.36 321.849 268.683L321.865 268.683Z" fill="#DF6D26"/>
<path d="M313.697 165.565C311.451 165.531 306.096 162.119 304.115 162.168C302.646 162.2 300.292 164.254 298.286 164.691C295.768 165.243 286.316 167.012 284.393 166.789C276.098 165.819 274.98 156.325 267.469 154.968C262.195 154.016 258.395 160.634 253.725 156.719C249.682 153.333 251.779 151.947 250.815 148.438C248.541 140.1 247.353 123.137 244.5 116.928C242.01 111.479 233.445 106.522 235.595 99.1108L258.61 79.6505C264.553 78.63 271.91 74.5479 277.787 74.4848C287.272 74.3824 293.507 84.0266 303.135 77.6097C310.979 72.3804 319.297 61.8273 329.862 61.6181C332.355 61.5699 334.839 62.8175 337.39 62.8766C347.864 63.1214 350.185 61.513 359.308 56.7218C366.219 53.1017 368.665 47.8532 375.776 56.7055C379.405 61.2307 377.085 63.6316 376.562 68.361C376.139 72.1661 376.822 75.9552 374.402 80.0069C365.545 94.8272 347.045 99.9932 342.076 116.293C339.942 123.308 340.456 134.906 336.045 141.639C334.211 144.445 331.569 146.078 329.917 148.487C326.456 153.496 321.447 165.677 313.705 165.574L313.697 165.565ZM256.871 155.425C258.406 155.789 264.352 150.41 268.849 152.22C275.212 154.79 276.825 163.491 283.916 164.312C289.239 164.934 298.883 160.481 303.778 160.013C310.844 159.34 312.763 166.498 320.221 159.279C322.541 157.027 332.082 143.304 333.619 140.251C339.229 129.168 335.777 116.678 343.897 106.009C352.479 94.7132 364.209 93.2912 372.347 77.934C374.132 74.5671 375.74 61.526 373.686 58.7102C372.927 57.6698 368.86 54.6054 367.894 54.6131C365.772 54.6368 352.941 62.8846 349.052 64.096C340.929 66.6177 330.308 62.2457 324.405 64.6612C313.086 69.3026 307.276 82.4984 292.196 81.2938C286.014 80.8036 282.392 77.013 275.755 77.9011C259.897 80.0309 258.706 84.207 247.657 93.6278C244.404 96.3996 239.599 97.5197 237.22 101.514C239.132 107.111 245.329 111.068 247.316 116.245C250.044 123.336 250.063 134.191 251.281 141.588C251.717 144.254 254.56 154.862 256.879 155.416L256.871 155.425Z" fill="#DF6D26"/>
<path d="M269.676 -27.9154C268.45 -19.0508 266.992 -8.89872 263.248 -0.192274C260.992 5.0646 258.076 10.9815 251.299 9.9132C245.156 -1.95146 252.647 -10.656 254.386 -21.2372C255.677 -29.0782 252.416 -42.617 256.257 -48.8306C257.876 -51.4381 260.387 -53.1703 262.031 -56.3639C267.468 -66.9597 250.835 -82.5194 254.867 -89.9298C256.61 -93.1233 261.506 -95.4073 262.787 -98.8322C264.068 -102.257 259.168 -107.856 265.517 -111.245C270.414 -113.859 272.046 -110.309 275.141 -108.731C278.994 -106.756 289.678 -112.347 294.656 -111.775C298.263 -111.369 306.439 -105.232 310.583 -104.404C313.901 -103.742 317.749 -107.389 321.089 -101.584C325.262 -94.3181 320.636 -87.5189 314.171 -83.816C305.089 -78.6039 300.251 -77.4012 292.9 -67.995C288.58 -62.475 289.376 -53.4691 285.989 -47.4452C281.916 -40.2082 270.588 -34.5514 269.668 -27.9237L269.676 -27.9154ZM267.446 -25.1926C267.628 -26.1665 266.473 -27.5373 267.151 -29.6336C270.152 -38.9182 280.315 -41.9259 284.471 -49.493C286.925 -53.9574 286.567 -63.9453 289.111 -67.9887C291.019 -71.0006 300.161 -79.9023 303.217 -82.245C308.493 -86.2952 319.001 -86.5457 319.682 -94.6842C320.405 -103.293 315.162 -100.564 310.078 -101.953C305.786 -103.127 300.117 -106.308 296.378 -106.979C290.881 -107.972 281.552 -104.13 275.824 -106.048C273.093 -106.966 268.902 -111.409 265.804 -107.688C263.624 -105.064 266.684 -100.745 265.263 -98.1376C262.305 -92.7242 253.893 -90.9043 256.308 -83.0862C257.873 -78.0172 262.559 -71.8735 264.438 -67.3822C267.118 -60.9507 267.619 -56.7985 263.398 -50.8823C261.73 -48.5389 258.212 -46.6752 257.303 -44.0343C256.757 -42.4497 258.612 -37.5209 258.693 -35.1271C258.799 -31.6024 258.571 -21.8046 257.926 -18.6848C256.271 -10.7284 248.622 -1.45443 254.883 6.99299C258.69 3.94907 260.376 -1.13474 261.889 -5.66561C263.592 -10.799 266.511 -20.1332 267.454 -25.1843L267.446 -25.1926Z" fill="#DF6D26"/>
<path d="M290.335 183.176C294.057 186.141 300.31 193.144 300.984 197.784C301.873 203.892 296.264 212.598 296.847 217.642C297.833 226.061 313.03 241.125 302.346 246.815C295.377 250.526 277.729 236.295 265.362 239.079C257.404 240.874 256.857 244.869 246.862 242.709C234.309 240.004 227.191 229.327 213.99 232.911C209.252 234.196 205.642 238.858 201.963 233.375C192.528 219.322 220.381 212.336 227.697 208.427C233.666 205.236 249.829 187.208 252.696 181.308C254.903 176.777 254.444 170.586 259.91 166.512C268.325 160.234 274.706 175.128 279.78 178.557C282.33 180.283 285.261 179.137 290.319 183.16L290.335 183.176ZM246.509 238.986C249.084 239.714 249.967 240.862 253.038 240.847C262.505 240.794 267.099 232.228 279.074 236.551C282.631 237.833 302.188 249.465 303.802 240.939C304.025 239.726 294.673 224.434 294.205 218.334C293.697 211.664 300.57 201.696 297.642 195.727C295.993 192.358 289.204 184.141 285.944 182.761C284.154 181.993 280.785 182.981 278.384 181.272C274.423 178.447 271.481 170.513 266.092 168.306C263.707 167.686 259.164 171.91 257.901 173.799C256.637 175.689 257.544 177.654 256.8 179.288C253.668 186.146 236.059 206.69 229.776 210.525C221.387 215.638 197.687 218.953 206.132 233.65C213.678 230.269 219.688 227.73 227.718 230.945C234.502 233.673 239.42 236.977 246.534 238.995L246.509 238.986Z" fill="#DF6D26"/>
<path d="M182.453 228.892C182.336 230.147 184.96 232.954 185.52 234.721C188.512 244.24 183.653 253.614 174.258 257.11C166.572 259.97 159.352 254.873 150.971 260.358C145.86 263.698 143.966 269.665 140.052 273.774C131.297 282.932 116.758 273.3 124.341 263.432C127.438 259.397 132.705 257.996 135.952 252.509C137.059 250.627 145.036 228.749 145.425 226.479C145.781 224.457 145.817 217.325 145.216 215.517C143.163 209.416 133.95 196.725 136.297 190.849C138.487 185.377 150.979 180.67 155.871 184.759C157.332 185.973 157.776 187.954 159.22 189.168C160.664 190.382 163.198 190.953 164.716 192.357C169.411 196.71 170.934 204.214 174.415 208.673C178.02 213.289 186.124 215.835 185.303 223.058C185.03 225.493 182.594 227.613 182.469 228.875L182.453 228.892ZM157.478 255.392C160.276 255.187 164.584 256.329 168.093 255.976C174.655 255.294 178.321 253.562 182.162 247.745C187.234 240.071 179.824 235.147 179.712 229.254C179.64 225.267 183.686 222.644 180.832 218.268C178.96 215.403 174.924 213.758 172.243 210.777C167.268 205.235 159.098 186.568 151.001 186.044C147.848 185.844 139.69 189.191 138.641 192.22C137.211 196.355 149.369 213.151 148.753 222.593C148.37 228.487 140.212 250.084 137.007 255.266C133.637 260.729 117.33 268.868 128.33 274.841C137.044 279.567 145.566 256.269 157.461 255.409L157.478 255.392Z" fill="#DF6D26"/>
<path d="M246.969 50.1601C247.107 54.6423 240.617 58.9478 238.09 62.1327C234.819 66.2747 226.68 82.4078 221.683 71.7241C218.822 65.5896 225.445 59.6334 225.01 55.6298C224.55 51.2383 214.945 44.6794 220.198 38.838C224.194 36.0665 226.487 40.0133 229.169 40.8153C233.684 42.1631 246.742 43.2924 246.953 50.1601L246.969 50.1601ZM226.066 72.7417L244.319 50.4972C240.733 42.9922 234.376 44.2931 228.483 42.5732C226.09 41.8786 223.162 37.6756 221.608 42.2642C220.219 46.3742 227.373 51.1076 227.899 55.9614C228.498 61.5169 219.044 67.1829 226.066 72.7417Z" fill="#DF6D26"/>
<path d="M429.808 185.204C434.132 189.597 432.149 192.419 433.501 196.481C434.226 198.661 436.074 200.197 436.659 202.649C437.03 204.192 434.025 219.684 433.249 221.137C429.448 228.217 419.41 229.467 413.324 234.854C408.642 238.987 404.18 247.453 398.937 250.298C394.825 252.525 363.708 248.514 358.526 246.167C352.551 243.473 340.644 235.105 336.734 230.002C329.714 220.828 330.977 205.096 340.754 198.431C343.057 196.856 354.335 192.107 357.192 191.283C362.566 189.726 374.113 192.447 378.431 190.625C383.128 188.638 385.896 182.837 390.083 180.355C393.732 178.194 401.069 180.369 403.785 179.322C410.349 176.791 410.105 168.867 420.23 176.722C422.688 178.621 427.68 183.007 429.833 185.196L429.808 185.204ZM413.007 176.545C411.818 176.726 407.739 180.521 405.13 181.477C401.34 182.87 395.151 181.067 392.12 182.675C387.563 185.083 384.53 191.462 379.791 193.358C373.64 195.807 363.72 192.582 358.552 193.9C355.779 194.609 343.65 199.894 341.429 201.585C338.431 203.853 337.011 205.058 336.002 208.755C330.114 230.527 355.44 244.217 373.589 247.008C377.923 247.679 391.517 248.85 395.504 248.53C401.134 248.087 408.098 236.345 413.317 232.088C418.486 227.865 426.7 226.59 430.508 221.845C432.036 219.939 435.172 204.959 434.48 202.631C433.928 200.757 432.137 199.147 431.495 197.149C430.745 194.812 430.796 190.223 429.765 188.877C429.081 187.977 420.36 180.634 418.833 179.453C417.975 178.792 413.659 176.438 413.007 176.545Z" fill="#DF6D26"/>
<path d="M547.976 140.484C546.92 140.401 545.533 141.259 544.237 141.101C525.979 138.88 514.091 143.282 495.588 136.273C478.043 129.627 475.194 114.372 454.511 110.234C446.464 108.62 432.618 114.994 424.372 115.608C419.749 115.953 413.946 116.42 415.592 110.156C417.246 103.851 434.05 91.8986 439.517 85.5125C456.325 65.851 442.978 32.8184 479.227 24.1121C498.999 19.3594 515.964 30.7261 534.701 31.4951C541.14 31.7625 555.593 30.9032 562.098 30.0481C564.624 29.7192 568.058 29.1266 570.321 28.0217C575.241 25.6305 586.804 13.3374 587.838 8.17893C589.402 0.412377 582.983 -5.20389 581.955 -11.6841C581.552 -14.2019 582.142 -22.6128 583.29 -24.7336C586.521 -30.6998 590.415 -26.6697 594.674 -26.1392C596.391 -25.9237 597.985 -27.3179 601.179 -26.334C608.251 -24.143 609.685 -19.1236 613.448 -17.0581C614.719 -16.3641 631.169 -15.1258 635.411 -13.9845C663.448 -6.45043 687.272 21.511 684.648 51.374C683.851 60.4534 676.525 85.0146 671.049 91.8382C666.828 97.0941 655.684 99.7628 653.486 103.377C651.751 106.216 653.425 109.659 653.085 112.325C652.464 117.153 648.363 130.672 645.488 134.269C639.517 141.72 625.503 136.677 616.835 139.43C607.167 142.504 600.518 151.192 588.747 152.705C585.924 153.067 569.555 153.1 567.517 152.381C561.228 150.182 555.694 141.074 548.001 140.476L547.976 140.484ZM681.803 46.9234C681.031 21.6234 660.063 -6.65027 634.708 -11.4343C629.723 -12.3778 617.663 -11.5007 613.479 -13.063C609.617 -14.5012 604.751 -22.2463 599.155 -24.4118C589.39 -24.6561 585.406 -28.9752 585.424 -15.793C585.435 -5.24389 596.928 4.49386 588.734 15.7156C586.479 18.8098 577.527 27.753 574.422 30.0131C565.595 36.4553 524.308 33.4296 512.77 31.3271C500.257 29.0425 494.168 23.0467 479.895 27.0593C444.313 37.0619 457.785 67.2302 439.508 88.2613C433.949 94.6556 424.801 100.297 420.233 106.064C419.077 107.517 418.118 108.936 418.15 110.884C423.265 117.49 430.094 111.41 435.32 109.919C442.874 107.768 450.146 106.525 458.004 107.916C475.031 110.921 482.765 128.226 498.321 134.417C502.018 135.888 514.25 138.849 518.179 139.016C526.26 139.342 531.9 134.483 540.104 135.66C553.054 137.524 555.512 141.008 565.439 147.592C569.086 150.004 592.223 150.09 596.26 148.235C602.023 145.58 609.852 139.492 615.449 137.101C623.4 133.713 638.776 137.724 643.574 132.254C644.962 130.67 650.325 118.745 650.879 116.442C652.12 111.226 649.647 105.183 651.358 99.9422C652.697 97.6151 661.869 94.0457 664.801 91.6451C672.761 85.0953 682.119 57.547 681.794 46.9317L681.803 46.9234Z" fill="#DF6D26"/>
<path d="M434.455 332.448C434.127 327.726 426.379 321.903 424.516 317.081C424.368 316.702 424.298 309.182 424.488 308.81C430.387 297.555 448.091 300.808 454.318 293.778C460.141 287.202 451.043 274.808 465.369 265.628C477.3 257.982 494.008 255.795 498.152 239.66C499.062 236.144 497.241 228.888 498.613 225.933C500.431 222.022 509.62 217.33 514.02 216.614C522.094 215.281 528.793 222.119 535.94 224.681C539.868 226.086 559.677 228.639 563.334 227.642C571.235 225.492 575.448 219.22 584.575 223.93C589.138 226.285 593.396 230.084 593.484 235.606C593.596 242.458 584.507 259.572 579.758 264.366C575.348 268.821 563.063 273.437 560.85 276.639C557.422 281.581 560.139 294.311 559.93 299.981C559.787 303.968 553.663 320.02 551.613 324.641C547.316 334.33 539.279 345.312 527.657 344.464C517.249 343.708 506.042 338.254 495.465 343.771C484.914 349.28 484.165 360.323 470.799 363.874C462.61 366.049 463.049 363.598 456.421 362.497C445.683 360.716 442.339 363.497 435.823 351.987C430.463 342.541 434.988 339.654 434.48 332.473L434.455 332.448ZM506.761 336.711C522.453 336.645 531.279 347.562 543.941 331.464C550.087 323.658 555.901 300.376 555.758 290.371C555.63 281.275 550.522 278.408 561.257 270.836C569.209 265.235 573.417 267.532 581.198 256.822C585.965 250.246 594.065 229.449 581.833 226.752C575.164 225.279 570.16 229.519 564.026 230.548C559.503 231.305 541.212 230.041 536.623 228.982C525.481 226.401 519.213 214.578 506.489 222.85C497.728 228.549 503.092 231.128 501.594 238.977C498.151 257.002 481.228 260.18 468.1 268.13C456.581 275.116 461.392 278.726 459.57 289.043C456.458 306.689 430.964 298.446 428.258 312.238C426.727 320.005 439.56 325.187 439.339 336.908C439.28 339.92 437.471 342.701 438.286 345.814C439.234 349.454 443.259 355.911 446.816 357.407C450.356 358.903 466.228 360.735 470.1 359.59C485.282 355.099 484.482 336.807 506.761 336.711Z" fill="#DF6D26"/>
<path d="M169.392 330.959C169.393 329.704 172.919 325.405 174.183 324.506C177.618 322.065 186.301 322.68 189.282 321.105C193.303 318.985 196.492 313.704 200.24 310.883C207.152 305.695 214.273 310.956 221.47 311.901C238.151 314.081 258.778 299.778 274.221 301.329C281.41 302.051 304.486 308.848 311.88 311.526C320.389 314.61 327.32 320.507 335.159 324.572C351.004 332.785 373.009 334.397 377.183 355.374C378.385 361.384 373.165 368.595 369.209 373.174C361.676 381.887 356.031 380.547 346.776 384.513C343.878 385.758 332.129 390.779 330.337 391.958C324.26 395.95 317.536 406.232 309.776 407.895C306.911 408.513 292.897 404.774 289.918 403.295C283.853 400.296 277.566 395.274 270.74 392.736C254.961 386.884 237.478 387.783 220.743 378.497C204.61 369.549 202.742 357.769 191.983 348.37C187.363 344.34 169.364 336.844 169.375 330.942L169.392 330.959ZM301.227 402.013C302.333 402.212 303.323 403.781 304.99 404.063C313.855 405.569 324.22 393.119 331.032 388.822C340.866 382.628 361.422 378.429 368.714 371.111C372.266 367.563 375.762 358.956 374.245 354.002C368.889 336.418 351.192 336.012 337.922 329.27C331.056 325.783 324.225 320.084 317.375 316.68C312.407 314.201 277.134 303.419 272.52 303.425C258.693 303.426 238.043 315.839 222.847 314.898C217.903 314.59 209.213 310.318 205.044 311.645C199.604 313.367 196.1 320.514 191.336 323.508C187.645 325.825 177.922 324.236 174.527 328.501C173.429 329.879 172.107 332.52 173.493 333.974C177.337 338.02 191.07 342.815 196.821 347.778C202.984 353.089 204.911 362.533 211.858 367.704C232.726 383.241 250.588 382.639 272.822 390.212C284.599 394.221 287.493 399.58 301.227 402.03L301.227 402.013Z" fill="#DF6D26"/>
<path d="M57.2417 165.145C57.5981 162.281 60.463 160.987 61.2979 158.635C61.9758 156.703 59.518 152.79 59.8992 149.736C60.8525 141.936 72.2398 133.101 79.1702 139.428C83.2294 143.128 82.2126 146.206 83.7956 149.74C86.6071 156.039 90.2538 159.458 91.3558 167.548C93.2389 181.408 67.7802 185.869 60.9087 177.174C59.4899 175.374 56.9765 167.291 57.25 165.137L57.2417 165.145ZM72.6076 140.159C68.4721 140.314 61.8571 146.658 61.9209 151.099C61.9445 153.286 64.0231 156.16 63.4441 158.636C62.7574 161.582 60.1075 162.068 59.8582 165.485C59.8249 165.964 61.1092 172.551 61.3318 173.038C65.3308 181.699 88.1554 179.094 88.0698 168.933C88.0621 167.901 85.8127 160.034 85.2604 158.655C84.1145 155.757 81.7878 153.643 80.8316 151.117C79.5044 147.657 82.1881 145.702 77.782 142.299C76.9651 141.663 73.5073 140.135 72.5993 140.167L72.6076 140.159Z" fill="#DF6D26"/>
<path d="M90.0317 206.904C96.732 211.349 107.809 227.871 96.1767 231.951C89.1344 234.416 77.8685 215.672 77.1616 210.026C76.3066 203.224 86.0462 204.269 90.0234 206.913L90.0317 206.904ZM98.3746 227.495C97.1875 224.556 98.5837 222.121 97.4132 218.935C95.608 213.989 87.1602 204.889 81.8012 208.625C80.2653 209.698 83.276 213.95 82.0698 216.162C86.2933 221.562 90.0927 232.864 98.3746 227.495Z" fill="#DF6D26"/>
<path d="M374.527 285.838L372.206 288.073L370.151 288.031C365.671 284.174 360.696 278.979 355.778 275.807C349.433 271.718 340.35 276.98 338.672 265.588C355.35 258.646 365.585 274.161 374.535 285.829L374.527 285.838ZM359.873 275.215C363.52 277.891 366.835 282.895 370.482 285.836L366.705 279.329C359.487 270.964 352.292 264.835 340.694 266.324C338.919 267.52 340.347 268.057 341.37 269.097C345.544 273.326 353.858 270.829 359.864 275.223L359.873 275.215Z" fill="#DF6D26"/>
<path d="M322.991 85.0323C326.308 86.817 332.446 93.9354 333.261 97.7906C335.731 109.397 324.223 113.123 319.506 121.069C314.293 129.841 320.029 146.815 307.199 152.223C299.867 155.306 293.846 147.792 288.027 146.031C283.711 144.733 281.142 147.1 276.382 143.524C263.551 133.901 262.583 121.139 264.795 106.654C268.04 103.56 270.997 100.045 274.358 97.0836C276.274 95.4007 282.063 90.6739 283.953 89.8907C287.066 88.6129 290.136 90.612 292.86 90.2007C295.708 89.7812 298.805 86.9845 301.768 86.8787C304.418 86.7728 306.653 88.8953 309.295 88.7976C312.919 88.6591 320.268 83.5617 322.999 85.0241L322.991 85.0323ZM321.619 87.7391C319.375 86.6483 312.786 90.1118 309.971 90.2672C307.189 90.4226 303.789 88.4234 301.073 88.8925C298.481 89.3369 296.681 91.3995 294.229 92.1164C291.909 92.8003 288.608 91.6926 286.701 92.3602C283.687 93.407 271.607 102.043 269.534 104.609C261.811 114.205 268.826 132.855 277.77 139.612C281.318 142.288 286.379 141.523 290.101 142.953C296.604 145.466 302.625 154.449 309.265 147.139C317.441 138.146 310.844 126.785 318.905 116.95C322.787 112.214 330.953 107.785 330.428 101.198C330.133 97.335 325.027 89.3834 321.636 87.7226L321.619 87.7391Z" fill="#DF6D26"/>
<path d="M344.572 77.1846C350.012 76.04 354.628 72.8314 360.019 71.7198C362.288 72.5216 362.58 82.5591 361.432 84.7954C358.11 91.2817 353.637 89.8762 348.337 91.3592C343.508 92.7187 340.269 97.9008 336.385 90.28C333.442 84.4922 333.858 77.5588 341.518 76.5227C342.559 76.3746 343.903 77.3246 344.564 77.1763L344.572 77.1846ZM344.571 80.3377C336.698 76.19 334.992 86.9033 340.76 90.9922L357.899 85.5366C360.756 83.6065 358.795 76.8369 357.599 74.1701L346.635 79.6454L355.178 79.9717C354.355 89.8683 332.705 89.04 344.571 80.3212L344.571 80.3377ZM343.206 84.4395C342.974 87.4274 353.03 82.9092 353.468 81.0191C351.554 80.2588 343.348 82.6483 343.206 84.4395Z" fill="#DF6D26"/>
<path d="M270.191 189.835C276.224 193.082 274.74 205.653 277.444 212.159C279.34 216.716 291.615 230.986 279.077 229.981C271.244 229.358 269.108 226.129 263.323 223.047C256.392 219.346 236.289 224.973 234.079 221.72C232.804 213.077 237.023 210.644 244.156 207.792C247.029 206.638 254.104 205.659 255.722 204.339C259.24 201.468 256.958 192.759 264.719 189.593C265.561 189.247 269.325 189.381 270.191 189.852L270.191 189.835ZM281.977 226.194C282.415 224.634 274.513 212.826 273.326 209.408C271.744 204.851 272.897 193.452 267.623 192.352C258.452 193.313 261.567 202.774 256.522 206.593C251.138 210.684 234.531 208.794 236.63 220.326C237.579 221.276 256.921 216.969 263.316 220.282C265.429 221.373 280.091 232.846 281.968 226.185L281.977 226.194Z" fill="#DF6D26"/>
<path d="M166.231 215.198C166.131 218.747 165.655 229.634 163.92 231.994C160.814 236.202 157.76 236.878 154.336 232.708C151.177 228.868 153.212 219.706 151.968 214.844C150.362 208.561 143.818 204.357 144.96 198.398C146.682 189.385 153.294 187.828 159.242 194.971C164.076 200.768 166.45 207.967 166.231 215.198ZM162.86 222.724C164.22 210.673 164.538 202.436 154.439 193.598C139.067 197.569 151.758 206.045 154.016 214.168C155.762 220.459 151.367 227.605 157.085 232.42L161.32 231.985C163.492 230.178 162.561 225.316 162.86 222.741L162.86 222.724Z" fill="#DF6D26"/>
<path d="M230.705 56.2762C230.623 55.913 231.234 55.1209 231.077 54.4522C230.666 52.6195 227.877 50.3234 229.809 48.3929C239.411 45.0878 241.873 57.5118 231.876 58.7531C230.844 58.7278 230.87 57.0687 230.697 56.2845L230.705 56.2762Z" fill="#DF6D26"/>
<path d="M346.181 222.809L357.184 207.346C361.924 202.445 367.512 202.423 373.613 201.395C374.76 201.205 376.246 201.982 377.723 201.727C382.784 200.879 388.052 196.887 394.161 196.593C403.075 196.152 414.909 201.705 411.957 212.211C405.011 221.031 403.131 232.529 391.4 236.212C385.282 238.132 378.879 234.91 372.902 234.808C369.073 234.74 361.725 237.163 358.523 235.808C355.725 234.626 346.188 225.508 346.189 222.801L346.181 222.809ZM348.971 222.81C348.606 226.211 354.695 232.421 357.847 233.76C361.577 235.347 368.727 232.66 372.92 232.695C381.059 232.765 387.618 237.927 395.521 231.947C399.864 228.664 406.606 217.458 408.639 212.209C411.656 204.443 401.497 199.675 394.86 199.821C389.297 199.95 384.59 203.513 379.794 204.543C373.545 205.885 365.63 203.297 359.874 208.75C358.221 212.91 349.386 219.129 348.987 222.794L348.971 222.81Z" fill="#DF6D26"/>
<path d="M652.66 40.0488C652.806 44.2256 651.004 66.1235 649.674 69.1687C647.013 75.259 637.897 80.8508 635.648 88.3446C634.201 93.1727 636.681 101.404 633.658 106.157C629.841 112.164 624.499 114.216 619.553 117.904C612.188 123.381 602.221 131.011 594.203 135.324C578.26 143.892 568.805 134.725 554.476 132.852C549.962 132.264 545.52 134.11 540.774 133.406C535.5 132.636 530.309 129.554 525.019 128.305C514.298 125.766 513.711 127.358 503.107 120.824C493.321 114.793 491.117 114.833 481.882 110.512C474.884 107.239 466.8 97.1152 459.288 97.9203C456.201 98.2489 443.602 104.202 442.119 97.895C440.456 90.8284 458.873 86.8015 462.146 79.3742C465.74 71.2455 465.451 73.1356 470.935 66.3698C475.139 61.18 478.346 52.4155 487.4 54.0958C492.501 55.0394 498.435 57.527 503.841 57.4885C507.878 57.4658 509.125 55.0974 514.118 57.2048C522.478 60.7337 525.382 64.6973 536.03 63.6627C544.211 62.8662 545.666 58.2775 551.106 56.9018C554.227 56.111 559.888 58.2105 564.115 57.4037C569.316 56.4159 573.824 52.6872 579.19 51.5673C582.872 50.7933 588.501 51.7867 591.696 51.1858C598.473 49.9263 610.338 44.1956 614.872 39.039C621 32.0754 611.266 21.5874 624.07 17.7887C639.66 22.5429 651.96 19.9408 652.652 40.057L652.66 40.0488ZM632.092 100.328C633.309 94.8396 632.285 94.7731 632.527 90.3901C633.01 81.5252 642.695 75.4962 645.926 68.4734C646.538 67.153 650.455 41.5582 650.423 39.7092C650.279 31.7189 646.187 26.7972 638.801 24.1933C637.406 23.7056 625.15 20.9837 624.423 21.0988C615.549 22.4728 623.121 33.587 618.999 39.008C613.829 45.8235 601.882 51.4881 593.577 53.1678C589.713 53.9417 584.489 53.4025 580.559 54.292C574.756 55.618 567.498 60.1789 562.066 60.7704C559.325 61.0662 554.877 59.3553 551.79 60.3277C544.64 62.5692 543.961 67.2079 533.288 67.0621C522.128 66.9078 518.491 61.3838 510.683 59.5803C507.002 58.7365 487.432 56.8858 483.973 57.47C473.993 59.1406 477.012 62.8401 472.931 68.4179C471.296 70.6458 468.769 72.1633 467.158 74.581C465.49 77.073 465.859 80.7629 463.448 83.5351C459.062 88.5928 448.422 89.3715 444.58 96.8397C451.231 99.8973 456.203 93.6265 463.409 95.3223C464.407 95.5622 473.948 99.1825 474.426 99.5294C476.844 101.272 476.917 104.071 480.523 106.144C485.581 109.061 492.325 109.237 496.963 111.601C500.742 113.534 503.316 116.672 506.551 118.77C515.891 124.85 522.685 123.36 532.573 126.221C535.692 127.13 538.366 129.476 541.477 130.047C545.224 130.726 551.119 128.698 555.865 129.501C569.979 131.902 580.49 140.558 595.593 130.454C598.128 128.764 606.244 123.642 607.797 122.272C609.754 120.548 610.407 118.031 613.413 116.051C620.275 111.523 626.876 115.241 631.967 103.39C632.727 101.624 631.943 101.054 632.101 100.336L632.092 100.328Z" fill="#DF6D26"/>
<path d="M534.605 252.927C536.239 253.902 536.353 255.85 536.6 257.484C538.303 268.62 524.267 276.389 519.095 284.178C515.973 288.898 518.528 296.163 516.495 301.297C511.734 313.362 492.981 311.751 484.509 317.343C479.522 320.642 470.502 332.557 463.918 325.967C462.475 324.522 462.054 323.126 461.998 321.137C461.65 307.459 488.341 297.559 496.196 287.584C503.019 278.937 497.421 264.332 511.936 257.835C514.396 256.73 533.045 251.993 534.588 252.91L534.605 252.927ZM531.136 257.498C521.18 259.491 512.455 259.99 505.682 268.422C502.229 272.729 503.697 275.966 502.201 280.612C496.728 297.63 479.178 299.717 468.696 312.25C465.855 315.65 461.055 324.702 468.756 324.648C473.494 324.618 478.154 317.059 482.455 314.23C490.58 308.902 510.721 309.672 513.228 298.571C514.808 291.547 510.749 286.791 516.721 279.39C521.759 273.152 533.64 266.563 531.136 257.498Z" fill="#DF6D26"/>
<path d="M349.606 352.909C352.981 355.213 357.921 364.254 355.789 368.364C351.377 376.88 340.565 374.778 333.11 377.886C325.985 380.862 321.07 386.547 312.552 386.889C304.182 387.232 298.926 382.615 291.325 380.391C288.544 379.572 286.356 380.19 283.104 378.983C274.191 375.693 267.782 367.642 260.511 364.609C253.926 361.865 241.915 362.065 235.858 358.761C227.672 354.299 222.188 345.159 214.638 339.6C210.776 336.758 207.341 340.058 203.62 335.458C197.838 328.332 214.718 327.474 219.447 329.532C225.727 332.267 229.391 335.026 237.258 334.048C243.895 333.226 253.349 327.444 259.863 325.491C268.935 322.764 282.859 326.725 290.689 331.59C294.733 334.102 296.902 337.809 300.962 339.875C303.24 341.032 324.186 346.903 328.354 348.019C333.884 349.508 345.349 349.968 349.639 352.892L349.606 352.909ZM204.01 333.024C206.319 336.508 210.703 335.314 213.938 336.784C222.677 340.776 228.177 351.485 235.843 356.02C242.593 360.019 257.798 359.828 263.929 363.488C267.287 365.496 269.168 368.65 272.147 370.921C279.861 376.794 287.48 377.285 296.121 379.741C302.55 381.568 306.205 384.897 313.932 384.174C320.841 383.526 326.019 378.171 332.434 375.624C339.336 372.887 358.552 372.435 352.087 360.149C347.016 350.513 336.449 352.241 327.66 349.901C317.582 347.213 302.231 343.706 294.103 338.031C291.81 336.428 290.366 333.827 287.94 332.357C287.231 331.927 273.737 327.785 272.194 327.446C260.688 324.897 244.974 336.355 233.831 336.828C222.34 337.317 214.678 326.459 204.043 333.024L204.01 333.024Z" fill="#DF6D26"/>
<path d="M74.3595 152.648C76.8847 154.02 75.9249 158.427 76.7492 160.706C78.068 164.339 82.6477 167.436 79.0467 171.413C72.2763 174.959 65.0896 169.367 65.9683 162.071C66.2916 159.421 70.7204 150.674 74.3595 152.648ZM78.0494 168.581L73.2767 155.562C65.8698 161.031 68.752 174.47 78.0494 168.581Z" fill="#DF6D26"/>
<path d="M92.4256 222.696L85.9004 214.942C89.1319 206.994 98.9484 219.166 92.4256 222.696Z" fill="#DF6D26"/>
<path d="M291.811 105.653C309.439 96.1443 324.397 127.436 299.672 132.632C291.954 134.254 280.984 134.158 280.444 123.806C280.183 118.755 282.51 119.482 283.956 116.965C286.409 112.683 284.165 110.601 290.086 105.941C291.275 105 291.737 105.694 291.811 105.653C287.799 106.724 287.193 114.59 286.011 117.635C284.358 121.86 280.024 122.824 284.916 128.646C289.37 133.947 307.829 130.539 310.622 123.128C312.747 117.492 304.226 104.999 297.639 105.276C296.178 105.333 294.659 106.207 293.156 106.586C292.669 106.71 291.894 105.636 291.82 105.661L291.811 105.653Z" fill="#DF6D26"/>
<path d="M267.785 217.288L258.873 211.126L264.679 204.55C269.013 203.851 271.078 217.034 267.785 217.288Z" fill="#DF6D26"/>
<path d="M160.179 204.232L156.818 207.59C154.111 205.476 150.084 202.816 151.209 198.656L155.799 197.14L160.179 204.232Z" fill="#DF6D26"/>
<path d="M385.577 229.259C384.025 229.49 379.519 227.374 377.364 227.381C369.993 227.419 363.204 235.752 356.448 227.998C349.823 220.392 359.803 220.141 363.329 217.593C366.153 215.547 368.474 212.073 371.216 209.813C372.569 210.854 370.306 212.008 369.505 212.874C365.376 217.379 361.949 220.258 356.516 223.012C359.548 234.95 369.788 226.04 377.027 225.92C382.301 225.832 389.282 230.937 389.774 221.09C387.787 216.128 384.221 216.307 381.135 213.978C379.609 212.813 379.28 210.221 376.696 209.832L378.753 207.778C381.796 212.146 389.521 214.824 391.401 219.761C392.777 223.386 389.423 228.716 385.593 229.276L385.577 229.259Z" fill="#DF6D26"/>
<path d="M529.721 102.323L537.391 116.029C537.472 118.638 532.295 121.896 529.834 122.555C523.836 117.888 516.127 116.398 509.971 112.532C505.796 109.905 502.331 105.627 499.014 103.678C495.119 101.381 487.615 103.119 481.204 98.6169C457.167 81.7079 494.101 74.8427 506.563 78.2498C509.782 79.1265 529.729 87.3167 531.156 88.927C534.431 92.6349 533.742 99.3124 529.721 102.323ZM534.972 116.036L527.087 103.354C526.198 100.068 533.636 97.0754 529.083 90.9978C526.419 87.4553 512.108 82.4459 507.247 81.197C499.538 79.212 479.199 80.3572 475.233 88.2629C473.663 91.3987 482.063 96.5868 484.63 97.884C489.829 100.512 496.92 99.4999 501.07 101.937C504.355 103.87 506.689 107.198 509.973 109.593C514.486 112.873 519.529 113.692 524.357 115.948C528.987 118.122 529.323 121.465 534.964 116.045L534.972 116.036Z" fill="#DF6D26"/>
<path d="M611.407 69.3971C616.721 72.2393 612.988 76.6287 612.837 80.112C612.695 83.2238 614.906 86.147 613.526 89.7039C612.385 92.6584 607.24 97.9633 604.507 99.6871C600.783 102.038 580.808 100.344 576.426 98.4511C566.482 94.162 571.151 84.3004 577.806 79.087C586.469 72.2981 590.917 73.4147 600.41 71.8182C603.374 71.3162 608.914 68.0916 611.398 69.4219L611.407 69.3971ZM592.523 97.4523C601.908 97.6634 605.449 98.3338 610.745 88.324C609.524 85.649 611.677 73.4997 610.736 72.5417C608.435 70.1715 603.769 74.0569 601.094 74.4352C599.138 74.7231 597.388 73.6492 595.622 73.9784C587.317 75.5425 575.627 78.7392 573.699 88.3051C571.746 97.9617 585.903 97.3003 592.531 97.444L592.523 97.4523Z" fill="#DF6D26"/>
<path d="M254.015 347.436C254.119 354.626 262.738 352.435 267.36 353.345C285.212 356.862 294.825 379.204 317.354 374.238C320.763 373.488 339.611 367.629 339.629 364.592C335.232 360.569 328.466 355.514 322.845 353.522C310.582 349.174 297.859 354.062 285.174 350.96C282.855 350.39 280.75 348.779 278.332 348.175C270.277 346.157 263.094 348.811 255.039 347.074L257.104 345.011C264.194 345.997 270.427 344.325 277.64 345.847C282.32 346.832 286.537 349.236 291.332 349.874C301.591 351.241 309.973 345.591 320.098 349.88C326.626 352.649 332.509 357.828 339.342 360.208C343.204 363.793 341.707 368.059 337.199 370.467C330.908 373.832 314.166 378.182 307.059 376.767C288.687 373.092 281.439 358.602 265.972 355.54C260.97 354.547 250.304 356.622 253.991 347.428L254.015 347.436Z" fill="#DF6D26"/>
<path d="M304.343 361.148C304.317 362.691 302.318 365.398 300.94 366.082C297.431 367.855 286.73 358.398 283.099 356.382C281.869 355.697 270.513 352.769 273.527 349.84C275.715 347.72 289.265 354.826 292.005 355.603C295.043 356.463 304.445 355.882 304.343 361.131L304.343 361.148ZM285.518 355.666C288.026 357.499 297.11 364.875 299.546 364.274C303.343 363.335 303.155 359.249 299.565 357.967L285.526 355.657L285.518 355.666Z" fill="#DF6D26"/>
<path d="M322.843 359.052C324.361 360.208 326.876 364.477 326.289 366.334C323.555 370.749 317.091 372.405 312.552 369.761C298.549 361.607 315.78 353.666 322.834 359.06L322.843 359.052ZM308.783 363.89C311.257 367.507 316.696 369.862 320.783 367.743C330.187 362.869 312.279 355.332 308.783 363.89Z" fill="#DF6D26"/>
<path d="M297.973 114.891C302.232 114.894 305.655 120.302 300.403 123.898C289.776 131.165 289.999 114.887 297.973 114.891ZM301.924 120.036C299.353 112.375 290.212 118.387 295.203 123.978L301.924 120.036Z" fill="#DF6D26"/>
<path d="M506.558 87.8585C508.827 89.0566 516.417 97.7771 515.334 99.9639C511.658 104.89 508.467 99.8944 504.497 98.1837C501.914 97.068 491.704 95.5193 495.569 90.9813C496.784 89.554 504.932 87.0075 506.558 87.8585ZM511.702 100.953L513.486 98.5598C509.899 91.2363 503.843 86.5777 496.642 92.7318L511.71 100.961L511.702 100.953Z" fill="#DF6D26"/>
<path d="M603.137 83.1857C603.06 87.4202 593.582 91.5095 590.108 89.7825C584.926 87.2045 587.717 84.2344 591.837 82.5113L589.433 86.2493C590.223 91.1528 601.237 86.0903 601.411 83.8699L594.569 82.5045C596.931 80.1119 603.197 78.3239 603.12 83.1857L603.137 83.1857Z" fill="#DF6D26"/>
</g>
</svg>
