<svg width="706" height="1035" viewBox="0 0 706 1035" fill="none" xmlns="http://www.w3.org/2000/svg">
<path d="M508.955 38.1821C509.354 33.6619 511.588 24.5418 512.492 18.1073C513.342 12.1779 510.763 12.4969 519.298 13.0819L520.016 121.965L529.668 173.893C528.711 118.561 540.437 64.2661 547.031 9.67847L553.891 13.1085L554.263 3.4566L567.744 2.97799L555.646 137.067L592.339 0L609.329 1.38264L574.71 133.691L628.155 2.57915C630.973 0.106357 646.475 0.904034 643.63 7.73746L616.243 73.3596C621.72 70.5944 626.825 60.065 629.75 54.6142C636.291 42.4098 635.254 42.7023 643.337 31.0828C648.442 23.7442 652.271 15.5547 659.477 9.70506L650.835 36.507C665.566 29.5672 661.418 8.58832 681.918 13.0553C664.928 57.8049 630.069 94.6044 619.593 142.013L675.563 45.4144L681.891 44.8294L612.786 180.621L675.085 76.7631C681.466 75.992 678.089 83.756 676.919 86.9201C671.309 101.89 656.259 117.551 655.994 133.691L714.995 40.0434L726.854 41.5323L633.579 192.426L635.254 197.372C673.409 160.998 694.255 112.658 728.715 73.4128C733.155 75.4868 729.194 82.6659 727.678 85.83C703.588 136.349 656.844 182.269 633.579 234.251L732.172 127.043L720.074 153.845L758.096 130.42L685.454 192.426L692.687 196.069L754.666 145.523C741.797 202.211 702.578 251.959 685.454 308.009L763.308 194.075C767.615 193.197 772.295 197.664 771.63 202.078C770.008 212.448 737.197 245.285 737.357 261.106C753.709 241.669 775.751 223.722 785.882 200.882L799.496 205.801L761.553 271.157L797.874 237.654L801.304 244.328L829.036 214.203C833.344 212.847 835.976 215.027 834.141 219.148C832.2 223.509 812.152 239.994 806.595 246.083C799.761 253.581 789.046 265.121 785.776 274.48L818.64 244.328L811.673 271.104L872.217 234.278C872.988 240.446 868.973 244.913 864.985 249.008C842.809 271.901 799.363 292.8 775.299 316.305L740.787 351.536C760.037 339.278 884.661 246.163 896.387 254.352L899.471 270.625C898.434 272.38 877.987 280.197 873.759 284.372C868.787 289.291 868.707 296.576 863.708 301.442C849.909 314.976 804.441 324.787 789.179 343.187C791.864 348.212 797.528 342.23 800.692 340.927C839.459 324.973 876.418 304.526 918.881 297.879L916.196 305.43L841.108 338.082C873.174 332.791 905.108 324.894 934.462 311.307C937.68 337.391 897.211 334.333 882.613 349.861L925.927 341.538L927.576 348.133L820.341 385.092C819.544 391.34 827.388 387.724 830.871 386.926C856.609 380.97 893.834 362.836 918.961 361.56C928.453 361.081 923.641 371.797 923.667 377.912L806.515 408.57C805.638 414.499 814.279 411.84 817.789 411.122C837.146 407.054 856.29 399.104 875.727 395.169L873.387 401.151L882.613 410.192C880.114 415.031 872.456 416.467 869.904 419.312C869.159 420.136 871.366 423.859 870.276 425.348C867.298 429.309 859.215 426.092 861.9 435.319L886.07 433.643C872.004 444.625 852.142 450.82 834.194 452.123L841.134 457.122L834.194 462.121C857.008 459.222 879.848 464.992 901.651 465.816C913.351 466.268 926.034 457.148 934.489 467.226L886.097 488.922C902.183 490.518 915.531 481.77 931.032 489.002L924.146 498.973L937.733 502.642V512.161L917.977 518.224L854.934 525.828H913.749L882.64 535.852C893.169 536.836 905.294 534.603 915.557 535.879C920.344 536.464 925.821 537.847 920.689 542.553L834.221 566.084C833.29 571.668 842.676 569.78 846.399 569.541C859.401 568.717 869.212 563.08 882.613 569.435L865.304 576.108L868.76 589.483C860.624 588.978 853.365 584.936 845.415 583.633C841.772 583.022 833.37 580.123 834.194 586.133L882.64 602.937L879.104 611.233L889.527 614.636C878.572 620.991 860.332 615.78 846.239 616.338C842.065 616.497 833.397 613.785 834.194 619.635C858.843 627.293 884.82 638.513 899.896 659.865L868.76 649.867C883.119 678.105 920.344 678.238 944.513 695.414C948.741 698.419 953.048 700.599 951.772 706.768L931.032 706.821L937.946 716.819C907.102 710.091 877.907 708.922 846.213 710.145C842.012 710.304 833.344 707.619 834.168 713.468C856.077 722.216 910.904 719.318 927.602 728.544C929.251 729.448 932.043 732.825 931.032 733.57L920.689 736.92L937.52 740.722L937.972 753.698C933.053 758.643 871.605 734.341 859.082 731.256C854.642 730.166 836.135 723.918 834.194 730.22C850.946 733.065 926.938 762.446 934.622 772.044C936.324 774.171 939.222 775.341 937.946 778.798L926.619 783.292L837.624 750.401C863.256 777.123 904.869 776.644 931.032 800.601C914.707 808.977 902.635 789.194 886.07 792.252C902.609 804.031 923.906 808.631 934.489 827.43L896.44 814.082C891.255 819.16 912.234 839.395 913.696 842.586C919.759 855.907 900.854 839.9 899.976 839.554C886.894 834.689 880.593 835.167 865.596 825.489C838.502 807.94 817.815 779.755 789.152 767.179L882.534 849.286C883.225 863.139 869.133 843.729 865.277 847.584L872.137 867.686L851.424 854.311L872.164 882.815L865.171 891.137L856.583 884.49C854.588 894.275 842.783 887.973 834.301 891.058C820.661 855.242 797.129 822.723 771.869 794.007L838.449 912.356C836.72 943.837 827.68 913.18 822.708 908.872C818.959 905.629 807.845 905.15 804.654 894.541C791.04 894.541 809.28 908.793 806.409 914.616C793.912 925.57 775.406 868.643 764.93 864.362L788.408 917.461L782 919.88C793.061 947.028 773.81 931.128 765.461 919.109C757.086 907.064 751.688 889.755 744.03 876.912L723.397 850.988C719.037 863.618 759.16 915.945 754.48 921.343L744.163 914.642L747.567 934.717C741.611 936.153 745.36 929.559 743.897 928.442C742.701 927.538 736.133 933.308 730.337 929.931C724.487 926.528 710.714 898.29 709.597 890.074L699.174 887.814C701.408 904.592 709.225 919.721 713.24 936.18C714.437 941.072 720.127 946.044 711.326 944.741L702.578 924.693L697.446 931.367C688.007 921.343 681.147 908.58 681.838 894.541C672.319 899.566 684.364 916.663 681.838 924.693C667.055 915.068 654.318 907.782 657.615 887.84C649.054 889.542 656.605 908.048 643.816 904.565L643.763 861.038L635.945 888.612L626.533 897.891L633.393 830.886L623.475 863.112L623.023 887.814L616.19 871.089C613.318 880.156 615.87 896.243 605.793 901.215C604.676 888.292 608.027 873.163 604.278 860.693C601.938 852.902 592.977 852.557 592.552 849.446C592.179 846.76 610.021 807.647 612.733 799.059C620.816 773.533 640.572 715.675 636.663 691.958C633.047 670.022 592.366 618.252 564.234 623.065L550.248 802.223C545.728 860.48 572.025 916.743 557.268 974.947C543.335 976.888 553.864 966.305 553.864 963.221V886.139C553.864 885.474 550.647 873.083 546.978 874.413L540.065 894.514L546.925 733.676L540.065 765.53L533.072 857.635C527.036 858.406 529.828 850.031 529.642 845.962C527.647 798.82 536.581 759.468 543.521 713.575L550.381 726.949C547.137 707.246 553.519 686.64 554.183 668.293C554.635 655.078 545.808 633.515 554.875 620.619C556.47 618.359 562.958 618.04 563.835 614.477C564.021 613.732 561.389 600.092 560.804 599.587C555.141 594.774 542.112 608.866 538.336 612.988C534.747 610.063 548.573 589.722 551.471 587.249C557.454 582.118 565.271 581.16 567.771 589.536L557.401 592.886L573.168 596.05L652.537 666.618L643.895 643.166L702.658 666.618C705.662 663.614 686.332 624.979 681.732 621.576C672.612 614.849 657.483 617.96 647.139 614.849C637.514 611.951 627.144 598.337 614.488 599.56C605.873 608.946 626.692 614.344 621.374 623.038L560.804 572.811C587.26 574.061 623.794 597.539 649.213 599.241C650.49 599.321 659.663 584.67 671.043 590.121L674.925 596.21C674.659 583.474 690.453 590.812 698.855 587.834C703.003 586.372 723.397 569.86 723.344 567.759L680.163 544.095L598.827 569.488L602.31 579.485L581.57 572.758C580.4 558.214 603.187 562.973 609.329 561.245C626.187 556.486 649.001 531.226 671.522 539.282L665.167 535.586L668.118 529.285L567.771 559.384C576.97 553.401 571.094 535.48 572.184 533.38C577.05 524.1 610.765 505.381 616.216 492.406C596.46 490.598 579.842 523.861 571.121 527.61C566.574 529.551 560.645 525.536 554.875 528.168C547.669 531.465 549.557 538.618 543.601 539.282C539.24 502.164 540.623 464.46 540.251 426.89C540.171 418.036 536.342 409.74 536.342 400.247C536.342 384.32 544.771 370.893 543.521 355.019L530.466 374.163C523.5 416.041 519.458 459.169 505.472 499.159L495.155 495.782L498.612 512.507C490.316 508.838 487.391 519.154 485.956 519.367C473.193 521.281 469.975 509.423 463.594 504.53C443.599 489.268 422.913 474.83 403.423 458.93C397.919 462.227 404.247 466.428 406.959 468.927C412.357 473.873 438.095 490.863 439.637 494.24C441.179 497.617 440.86 504.956 434.612 502.456C393.452 462.2 346.601 433.484 287.547 425.427L306.771 458.717C312.434 473.474 331.259 474.671 336.046 477.595C339.024 479.403 339.795 485.413 345.352 488.417C353.993 493.07 410.442 516.921 418.047 518.49C426.342 520.191 434.904 519.048 443.253 519.261L444.955 505.833C455.883 518.117 477.979 532.103 465.748 549.36C460.669 539.309 454.58 537.129 443.227 535.932L446.736 529.311C410.655 526.387 374.813 511.124 339.449 502.51C344.262 509.689 356.652 512.853 364.815 516.442C398.025 531.066 434.692 537.076 465.881 556.034C468.407 559.543 467.715 563.133 466.918 566.988C463.94 581.081 455.272 596.263 439.85 586.186L451.895 576.135C432.777 585.92 415.255 576.002 394.834 582.915C409.591 600.73 439.132 588.499 460.563 592.966L422.54 599.587L477.474 606.713L481.382 653.217L502.069 599.64C497.017 610.435 502.68 621.151 501.484 630.563C500.526 638.194 493.853 647.075 492.816 655.344C491.938 662.364 499.649 680.764 488.295 686.72L484.839 673.345C474.097 688.528 482.286 705.997 480.664 717.829C479.867 723.625 466.599 741.095 477.846 747.024L491.699 700.147C498.851 732.294 489.944 761.94 488.242 793.954C481.808 792.385 481.861 788.663 482.074 783.265C482.791 766.461 489.146 747.503 488.242 730.299L477.872 773.826C472.555 772.709 468.353 759.335 467.742 755.213C465.668 740.669 467.742 715.569 467.343 698.578C467.024 685.603 474.363 627.692 450.299 638.115C429.347 647.208 399.487 681.774 375.079 691L367.075 721.738L401.721 897.838L388.719 878.641L374.121 830.833C370.425 854.71 382.789 878.189 374.042 901.162L363.751 867.686L353.302 914.562V887.787L346.389 901.162L336.099 891.137L322.166 934.664L315.838 930.224C322.698 906.958 343.092 871.302 345.724 848.462C346.336 843.064 343.039 838.145 343.358 832.827C343.889 823.947 348.915 814.029 346.415 803.978C328.574 818.895 336.258 845.51 330.994 864.415C329.425 870.026 309.483 907.809 306.664 907.782L298.05 894.461L276.778 937.536L266.887 936.339L284.197 894.408L291.057 897.785C289.807 868.43 310.094 843.33 311.823 814.002C307.276 814.109 304.112 823.096 302.49 826.685C297.624 837.534 296.374 850.057 291.801 859.895C283.505 877.71 268.137 894.514 263.377 914.483C257.714 915.493 259.362 905.894 259.867 902.704C261.33 893.185 267.153 887.069 266.86 877.657C259.681 878.906 254.55 900.151 251.279 901.108C238.091 905.07 255.374 878.481 246.174 877.657L221.871 927.884C210.997 922.619 226.418 908.394 225.328 901.108L202.86 931.261L204.589 914.536L176.962 922.938C199.271 883.24 233.677 852.716 261.676 817.326C263.776 814.693 271.008 810.918 265.185 807.328L164.891 918.232L142.37 917.886C139.684 915.52 150.4 902.544 152.819 899.566C176.404 870.611 207.939 843.782 232.321 815.704C235.592 811.928 240.723 810.253 239.208 803.978C204.695 828.786 180.791 864.655 147.448 891.005C144.364 893.451 127.32 906.985 125.06 904.485C124.847 881.938 152.42 873.057 159.626 852.53L135.43 859.257C138.036 855.694 173.001 836.231 166.539 830.78C151.968 828.068 146.199 839.342 137.132 847.505L135.377 840.831L119.769 850.828C105.145 850.642 128.012 832.827 132.239 829.371C149.442 815.278 173.187 805.467 190.443 791.933C199.031 785.206 212.166 768.269 221.898 760.451L123.385 827.536L90.441 860.959C92.1161 839.448 117.615 829.078 128.437 812.354L107.724 820.756C98.3114 808.099 149.336 786.349 152.66 773.879C138.089 770.369 76.8273 820.809 73.0783 817.379L79.9915 807.381L69.6482 810.732C62.3628 791.029 71.1373 796.028 76.6412 788.131C80.3371 782.84 80.4435 777.734 86.7451 771.991C93.0468 766.248 101.529 766.407 104.188 760.478L96.9554 758.484L100.758 747.05L76.5614 750.348C74.4609 739.233 84.6977 746.333 92.063 740.297C93.1531 739.419 101.369 727.454 100.758 726.949L62.7351 747.024C58.4542 727.481 72.9453 725.194 83.4481 713.548L62.7085 715.223C70.18 700.44 96.4236 703.896 111.181 698.499L187.226 673.345C145.8 663.454 103.523 686.853 65.3408 691.293C57.7097 692.197 53.615 689.751 52.3387 681.747L69.5951 673.265L59.2785 666.645L111.154 643.193C84.2191 626.787 64.7292 649.521 40.9319 657.312C35.747 659.014 31.0939 661.859 28.1691 654.813C24.872 646.916 48.7491 648.298 45.4255 636.439L26.0951 642.874L21.2027 636.466L100.758 609.664L7.37631 623.012L17.7195 613.014L3.89313 606.287L44.7607 598.949L47.7653 587.648C46.2497 578.103 18.7033 578.927 10.8329 579.406L21.2027 569.408L0.463119 572.705C-5.54604 550.928 48.9087 554.332 48.9087 550.928L7.34972 549.227L8.86531 535.613L73.0783 529.099L36.7308 522.451L10.8063 522.372L14.2629 512.348H99.0293C100.758 512.348 106.395 517.586 111.127 515.671V508.997C104.666 511.816 95.2537 505.62 92.1161 505.62H38.4059V495.57C43.644 490.225 98.3114 500.781 109.426 500.489C124.183 500.09 143.593 491.502 159.493 492.166L121.417 478.712L124.901 468.768L62.6287 465.364C61.4854 464.487 67.0425 458.69 67.8136 458.69H135.27C135.802 453.506 126.097 453.904 122.056 453.08C92.3023 446.911 61.6981 443.907 31.8916 438.217L33.2476 425.161L131.84 436.941C97.5137 428.139 75.3915 399.45 38.3793 395.009L45.2925 385.038L31.5459 379.986C36.0661 373.605 39.3897 374.748 46.2232 375.652C61.831 377.726 83.6874 389.612 99.0293 394.983L93.7115 386.66C94.7219 378.896 145.295 394.85 152.553 395.009L93.7647 364.91C109.798 369.617 107.033 353.424 121.417 354.78L111.048 344.809C127.852 342.097 142.928 348.478 158.696 350.579C162.418 351.084 170.634 354.275 169.836 348.159C156.409 345.952 143.433 329.494 131.947 326.196C114.85 321.251 92.1959 332.206 83.3683 314.657C104.826 314.311 125.911 312.078 147.422 311.28C151.596 311.12 160.264 313.779 159.467 307.956C138.567 308.781 120.221 297.214 100.093 293.385C92.0098 291.843 80.4169 298.889 76.4551 287.855C100.279 278.655 124.236 287.376 147.448 284.478C153.75 283.68 153.032 285.648 152.58 277.777H102.406C100.492 277.777 95.1739 283.122 90.2815 281.101L93.7913 274.454L73.0251 274.401V267.727H126.629C127.985 267.727 140.668 279.426 131.787 266.105L79.9383 234.251C105.304 238.931 128.703 254.485 152.474 262.834C155.744 263.978 163.721 267.248 162.95 261.053C135.058 248.875 101.369 232.709 76.0297 216.223C71.1638 213.059 64.7292 211.251 66.1385 204.046C86.4792 214.708 111.792 228.72 134.393 233.427C137.903 234.145 146.518 236.83 145.667 230.874C122.614 225.636 90.0156 208.513 73.8759 191.655C70.313 187.933 67.6009 189.501 69.5951 180.594C82.1186 187.002 104.4 206.944 116.339 210.72C118.094 211.278 121.976 211.624 121.444 209.098L112.856 193.968L149.15 210.72C125.379 186.39 97.9392 168.23 79.9649 138.663L90.3081 137.014L85.1232 120.29L121.471 143.688L97.2744 121.912C96.3704 116.939 97.2744 115.956 102.486 116.86C108.681 117.95 135.776 143.741 144.55 149.857C164.572 163.816 188.396 179.078 211.422 187.241C175.021 156.876 136.653 129.676 104.214 95.1096C117.695 75.7261 129.634 101.464 145.667 103.459C150.985 98.4599 124.582 85.1652 133.542 76.6833L169.863 106.809L156.09 80.0069L166.406 86.7074C170.581 81.4959 136.068 62.006 166.273 54.5079C175.261 52.2744 227.562 120.928 242.531 126.91C237.027 105.825 198.287 73.5989 202.594 53.205C206.849 32.9972 220.702 64.213 228.678 66.5794C230.061 57.8847 205.758 34.2469 226.897 36.507L294.433 146.985L263.351 27.9719C262.393 18.3997 267.951 25.0204 269.785 28.477C273.268 35.0978 274.013 46.8502 280.58 49.8016C282.894 45.8398 268.084 19.2772 278.879 19.7292C285.579 19.9951 313.338 125.9 315.253 140.285C321.209 141.109 318.922 132.361 318.63 128.639C316.742 104.15 306.212 78.2255 304.883 53.1518C316.05 58.6292 315.439 73.7851 318.922 84.1017C320.225 87.9571 331.339 96.3593 326.021 111.382L339.422 183.838V84.9791L344.607 80.0069L348.117 83.2242C347.745 88.4357 353.249 98.646 353.249 101.704V177.111L380.875 128.213L370.585 73.2267L391.271 113.43L384.411 43.0479C387.336 44.7231 394.17 45.9993 394.914 48.6583C396.19 53.205 391.245 63.5216 398.185 63.1494L401.721 36.374C407.73 35.5764 404.991 44.0051 405.124 48.0467C406.188 75.5134 402.758 103.14 408.608 130.207C420.041 133.983 416.957 115.317 419.004 113.403L425.332 116.009L432.804 110.106C419.935 129.357 435.25 131.856 436.234 135.871C437.404 140.763 433.123 150.734 439.717 150.282C446.976 130.5 445.912 111.941 446.683 91.6264C446.843 87.5849 444.104 79.1561 450.113 79.9538L454.447 131.058L470.879 160.333C468.221 124.491 464.737 87.3722 467.316 51.3172C467.689 46.212 468.061 31.4284 474.336 29.6736C471.305 86.2554 477.739 141.774 488.242 197.212C494.57 195.936 494.65 190.618 495.235 185.619C498.559 158.02 485.371 130.899 484.786 103.405L502.042 140.258V63.176H505.472L505.552 86.6277H508.982C510.019 70.8337 507.573 53.6836 508.982 38.0492L508.955 38.1821ZM376.222 182.827C382.976 172.458 380.981 162.194 380.902 150.495L360.295 195.883C360.109 204.577 360.641 203.142 364.682 196.707C368.777 190.193 374.228 185.885 376.222 182.827ZM688.858 247.652L647.352 277.751C655.834 277.645 661.152 270.04 668.411 266.291C675.085 262.834 688.539 267.301 688.831 247.652H688.858ZM657.695 331.408L671.548 284.505C655.329 287.908 655.887 306.84 654.691 320.134C654.345 323.91 651.473 332.152 657.695 331.408ZM340.406 313.7C336.232 310.668 333.307 298.198 327.298 294.582L325.543 307.956L315.226 302.931C321.076 308.94 326.686 321.437 332.429 326.489C372.553 361.853 373.457 371.425 401.615 413.648C418.605 439.121 435.649 467.518 457.026 488.949C452.001 474.724 443.519 460.499 435.702 447.656C420.254 422.237 372.287 335.981 356.918 320.48C351.255 314.763 344.793 316.917 340.406 313.726V313.7ZM654.265 297.932C651.739 295.406 625.123 311.626 633.818 321.118L643.922 321.384L637.009 358.21L654.265 297.932ZM249.471 331.408C281.272 357.173 310.334 365.442 348.144 378.285L349.792 371.637L360.162 374.961C362.528 372.488 344.208 351.43 341.204 348.106C328.468 334.014 312.62 321.889 299.618 307.956L301.347 317.98L242.531 321.384C242.079 321.809 248.328 330.504 249.444 331.408C248.939 330.956 245.27 331.142 242.717 329.361C235.246 324.122 237.426 317.103 218.309 321.384C225.434 327.446 247.078 342.389 254.709 344.756C256.464 345.314 260.346 345.66 259.814 343.134C255.188 340.448 252.609 334.333 249.444 331.381L249.471 331.408ZM619.646 324.734L572.876 348.106C558.491 357.093 556.63 387.99 555.008 404.502C552.109 434.228 552.934 471.108 557.321 500.728C558.065 505.674 557.294 509.237 562.639 512.401L630.175 459.701C626.347 414.978 615.631 369.244 619.646 324.761V324.734ZM515.842 405.166C516.081 379.162 527.647 357.651 519.298 331.408L481.861 363.82C474.868 402.109 481.887 444.465 500.314 478.845C506.855 454.091 516.453 427.103 508.982 401.763L515.842 405.166ZM457.026 452.07C448.757 405.751 437.723 360.364 384.438 348.186L457.026 452.07ZM463.94 425.241L455.351 361.613L446.657 369.696L463.94 425.241ZM386.698 413.037C376.089 404.688 348.33 391.021 334.929 384.374C325.569 379.721 315.093 373.605 304.83 371.664L424.215 462.094C430.038 458.531 422.78 454.755 420.679 452.096C411.479 440.503 397.839 421.811 386.698 413.01V413.037ZM263.271 435.292C256.757 410.883 222.004 410.458 200.999 405.193C205.652 412.93 260.692 437.605 263.271 435.292ZM847.994 418.594L764.983 441.992L813.375 433.617L847.994 418.594ZM699.254 492.193C690.932 482.621 678.009 472.969 664.555 476.931C660.62 478.074 614.568 511.736 610.925 515.645C604.464 522.584 600.954 535.4 591.967 542.5C597.497 546.754 677.744 515.379 687.422 505.62C692.501 500.489 687.847 492.087 699.228 492.193H699.254ZM407.517 540.319C396.802 536.172 384.092 537.421 373.855 534.31C362.528 530.854 340.725 518.862 331.127 519.181C322.405 519.473 274.651 537.368 264.733 542.234C261.888 543.643 254.496 543.085 259.867 549.174C268.642 559.145 348.835 569.621 365.187 569.461C383.374 569.302 406.826 561.325 425.891 562.601L418.977 559.251L425.891 549.253C415.654 552.923 408.767 540.771 407.517 540.293V540.319ZM383.693 579.99L301.373 572.758L337.721 579.379L367.075 579.459L360.189 586.106L382.603 589.536L383.693 580.017V579.99ZM380.928 599.534C362.874 605.702 351.76 592.62 340.459 590.121C330.994 588.047 320.305 590.254 310.387 589.084C303.048 588.233 290.551 582.357 286.058 582.623C284.675 582.703 278.214 595.093 262.26 590.094L235.645 606.154L249.471 606.234L239.101 622.932C240.245 623.783 255.64 620.832 257.554 619.688C261.383 617.401 258.671 612.296 262.074 609.345C266.595 605.383 290.578 599.986 294.46 602.884L291.003 612.881L315.2 612.935C308.925 622.453 285.021 620.247 277.922 627.107C275.316 629.633 275.741 635.589 272.737 638.753C268.615 643.14 257.235 645.453 252.954 651.436C256.225 655.291 263.324 655.717 268.19 655.956C287.547 656.94 363.326 627 383.401 616.923C387.868 614.689 393.292 611.1 394.808 606.207L374.068 606.128L380.955 599.48L380.928 599.534ZM460.51 622.932C455.431 607.165 434.133 633.993 429.374 629.633L432.83 619.635C429.055 619.449 425.252 619.343 421.583 620.433C407.757 624.527 355.562 655.451 339.343 664.757C335.594 666.911 329.85 668.187 329.053 673.186C360.508 684.779 381.247 651.728 408.634 643.087C399.222 655.185 382.71 664.012 371.755 674.302C370.399 675.579 362.927 685.31 372.26 683.21C401.934 664.943 428.124 634.658 460.536 622.879L460.51 622.932ZM394.755 626.362C383.082 626.867 375.823 634.02 363.539 631.201L322.113 653.111L353.142 648.032L394.728 626.362H394.755ZM903.353 686.693C886.15 683.555 866.128 664.97 851.504 681.641C864.267 680.976 873.52 688.315 884.182 690.176C887.08 690.681 903.752 692.357 903.38 686.693H903.353Z" fill="#5F6C37"/>
<path d="M492.178 939.822L510.391 874.28L519.511 863.751C507.839 903.316 495.076 943.625 498.266 985.503L504.276 976.409L507.307 988.561L513.396 967.289L507.307 1005.31L513.476 1002.33L498.213 1118L508.264 1089.97C511.269 1092.15 522.782 1069.79 522.489 1081.41C494.624 1146.18 481.967 1222.55 483.031 1293.09C493.215 1288.27 487.604 1274.34 489.785 1264.88C495.528 1240.01 508.105 1214.68 513.422 1189.57L515.284 1224.09L501.271 1277.85L513.422 1249.61L525.574 1239.83C509.726 1274.45 500.314 1309.7 498.213 1347.89L510.311 1329.65C499.383 1364.85 487.897 1398.33 486.062 1436.19L492.151 1431.7C484.467 1459.64 482.552 1490.38 490.582 1518.43C500.234 1499.13 517.331 1515.93 527.089 1491.04L530.094 1497.11L543.761 1483.39L534.667 1478.76C531.742 1449.67 530.785 1419.07 531.503 1388.91C532.301 1354.59 531.928 1309.12 534.561 1276.28C535.226 1268.01 535.305 1253.63 546.845 1255.09C544.372 1297.85 540.783 1340.2 540.783 1383.06C540.783 1400.77 542.591 1390.48 543.761 1395.64C548.414 1415.9 537.964 1448.95 554.45 1469.75C557.64 1471.15 563.224 1443.02 571.201 1450.02C554.237 1482.75 528.924 1511.49 499.702 1533.69L504.329 1520.05L498.266 1518.51C494.943 1537.6 473.007 1540.63 470.72 1559.46C468.726 1575.94 473.858 1595.65 470.88 1612.85C478.83 1609.13 475.001 1596.63 479.814 1589.61C482.526 1585.67 487.737 1588.23 488.428 1587.56C494.358 1581.82 500.367 1569.38 508.876 1564.16C511.136 1563.69 510.95 1567.35 510.365 1568.68C506.509 1577.14 483.935 1595.22 480.026 1605.32C478.591 1609.02 481.116 1611.55 484.52 1609.82C486.913 1608.59 495.102 1590.94 501.271 1597.67C506.908 1603.83 485.477 1616.68 489.093 1625.05L483.27 1614.28H473.778C466.998 1620.88 475.612 1648.37 458.728 1649.41C456.149 1637.44 461.892 1625.32 461.999 1614.39C462.238 1592.56 454.873 1573.02 458.861 1547.57C460.164 1539.36 467.184 1533.43 469.577 1524.81C482.313 1479.1 471.624 1423.03 473.804 1376.79C475.799 1334.43 477.181 1331.03 471.039 1288.46C464.817 1245.36 485.583 1196.09 486.328 1154.64C486.541 1142.46 481.063 1137.33 479.92 1127.33C476.384 1096.46 492.55 1062.37 492.257 1038.84C492.151 1029.32 483.722 1019.86 482.951 1008.4C481.994 994.437 488.322 980.584 486.222 965.667C485.211 958.541 480.824 954.819 479.84 947.719C475.028 913.153 486.035 870.478 476.676 835.38L486.035 830.328L492.178 939.929V939.822Z" fill="#5F6C37"/>
<path d="M546.153 1194.97L531.609 1209.28C548.334 1136.87 558.677 1059 543.813 985.556L552.907 997.68L555.938 982.498C556.177 995.128 555.672 1007.84 555.991 1020.49C557.4 1078.38 553.518 1136.69 546.153 1194.95V1194.97Z" fill="#5F6C37"/>
<path d="M549.796 694.43C549.451 697.913 543.468 727.986 539.799 722.907C540.277 693.393 544.026 663.587 545.808 634.099C546.233 627.266 537.645 616.55 549.796 612.323C547.909 638.779 552.349 668.373 549.796 694.43Z" fill="#5F6C37"/>
<path d="M496.219 598.895C489.971 599.64 493.614 592.089 494.411 588.712C499.463 567.334 512.519 548.349 521.346 528.567C528.339 533.459 524.723 534.603 523.101 540.213C517.411 559.916 501.271 578.555 496.219 598.895Z" fill="#5F6C37"/>
<path d="M526.372 662.603C517.358 680.392 523.925 705.758 509.7 719.557C511.588 703.551 511.535 683.822 518.156 669.277C520.469 664.199 517.677 661.008 526.372 662.603Z" fill="#5F6C37"/>
</svg>
