<svg width="595" height="1646" viewBox="0 0 595 1646" fill="none" xmlns="http://www.w3.org/2000/svg">
<path d="M791.197 373.884C794.735 380.293 806.639 412.489 808.419 414.358C809.242 415.204 826.798 423.926 829.535 424.816C847.936 430.779 866.338 426.396 884.427 431.758L884.539 439.791C860.886 445.02 832.895 441.015 813.203 426.107C815.272 434.339 814.115 451.717 818.454 457.903C820.768 461.218 841.194 473.278 845.911 474.368C858.617 477.305 871.989 473.367 884.516 478.329C869.408 500.201 831.649 488.097 817.275 470.074C814.204 501.937 828.244 517.023 856.102 530.106L898.223 546.95C878.843 554.004 858.772 550.532 841.995 538.74L818.654 514.019V567.599C818.654 583.886 885.05 623.515 903.741 621.201C904.564 626.496 901.583 628.499 896.866 629.389C877.196 633.105 855.657 620.4 840.594 608.829L818.699 582.707C819.455 597.081 817.03 626.852 823.995 639.179C831.916 653.242 891.414 682.078 909.237 670.642C887.721 702.438 844.443 665.502 824.173 648.636C825.463 661.519 823.772 700.235 829.49 709.914C831.849 713.941 851.763 725.022 857.17 726.869C873.169 732.298 889.078 727.514 900.96 737.95C880.623 754.148 852.72 741.043 832.405 731.097C831.315 732.276 835.654 754.438 836.989 758.065C846.023 782.652 906.233 785.722 906.433 792.909C884.071 805.992 860.53 790.106 840.638 780.56C840.638 786.078 839.659 791.708 842.04 797.003C848.226 810.776 914.8 838.1 914.822 850.605C914.822 862.888 897.667 854.321 891.748 851.651C874.637 843.93 859.974 829.667 844.732 819.054C838.992 842.617 873.747 866.448 891.904 876.238C910.305 886.184 932.867 886.05 947.664 900.113C949.689 909.636 926.77 907.211 921.898 906.632C894.796 903.428 868.718 883.069 848.893 865.736L848.849 889.099C848.782 891.524 850.228 892.859 851.63 894.55C854.678 898.199 893.795 924.9 900.181 928.371C907.946 932.599 938.563 941.299 936.694 949.465C927.683 961.102 910.972 953.114 899.981 947.796C878.642 937.494 868.83 917.936 848.893 906.922L833.829 956.385C843.664 970.803 857.059 983.019 871.055 993.232C883.982 1002.67 914.421 1014.99 921.742 1022.18C926.125 1026.47 926.236 1030.3 925.725 1036.04C899.091 1036.22 866.093 1015.99 847.38 997.727C840.46 990.962 835.565 981.884 829.624 974.363C827.71 971.938 826.576 973.429 825.552 975.632C814.026 1000.42 815.05 1021.67 827.31 1045.3C842.04 1073.67 858.817 1077.27 884.539 1092.45C885.696 1098.57 881.802 1096.36 877.685 1096.59C844.688 1098.5 819.656 1067.79 810.422 1038.85L778.559 1085.48C777.446 1089.64 793.489 1115.72 797.271 1122.11C810.555 1144.6 828.645 1163.83 835.164 1189.93L811.868 1170.7C793.845 1148.5 779.226 1123.49 769.28 1096.56L743.625 1135.68C742.045 1142.73 761.915 1166.7 767.901 1173.51C785.078 1193 806.461 1208.26 825.485 1225.77L829.691 1244.89C825.107 1249.72 792.109 1219.37 787.081 1214.76C778.403 1206.77 765.564 1194.71 758.4 1185.79C750.412 1175.84 745.583 1162.92 736.416 1154.26C723.043 1213.29 798.651 1238.99 835.187 1268.29C808.931 1273.79 772.195 1246.2 755.685 1226.98C745.427 1215.03 741.2 1201.08 730.92 1189.97L735.125 1247.67C747.141 1258.26 758.222 1270.5 770.771 1280.56C788.883 1295.08 837.656 1319.87 843.375 1339.76C845.667 1347.75 834.586 1342.21 831.382 1340.77C799.741 1326.55 759.134 1291.57 741.845 1261.42C736.371 1260.93 740.221 1269.36 741.022 1271.88C744.671 1283.58 765.698 1321.99 774.798 1328.42C776.578 1329.68 780.784 1328.28 783.921 1330.33C802.79 1342.55 813.515 1350.49 836.855 1354.54C851.786 1357.12 887.276 1353.34 892.794 1372.74C895.353 1381.71 876.35 1370.14 871.589 1369.22C859.329 1366.89 844.332 1367.02 831.738 1365.15L799.519 1353.43C805.593 1359.41 819.923 1372.41 827.065 1375.32C832.45 1377.5 838.235 1376.17 843.464 1378.12C874.103 1389.58 934.336 1402.44 932.645 1442.72C910.26 1422.54 884.383 1405.31 854.411 1398.8L857.148 1409.74C843.887 1412.64 839.526 1398.59 829.713 1393.28V1446.86C829.713 1450.62 820.724 1483.99 813.27 1478.43C807.462 1467.42 815.339 1460.07 816.007 1449.62C817.342 1428.72 816.674 1404.98 813.136 1384.47L776.178 1352.07C774.887 1379.66 769.97 1411.21 748.81 1431.01L736.371 1426.21C742.112 1412.35 751.724 1402.11 756.353 1387.16C767.923 1349.75 759.957 1323.23 734.992 1294.35C729.763 1316.89 720.774 1337.96 706.133 1356.1C699.903 1363.79 678.742 1389.23 671.733 1374.05C673.09 1362.84 685.751 1356.3 692.382 1347.84C707.468 1328.59 719.483 1307.21 727.627 1284L719.928 1253.14C710.405 1279.06 689.089 1306.88 662.277 1316.29C657.27 1311.33 712.252 1256.88 715.656 1247.49C719.795 1236.1 712.719 1226.46 714.366 1214.67L682.903 1255.95C671.066 1264.85 641.406 1297.33 632.216 1274.06C653.688 1258.48 675.494 1242.26 692.382 1221.48C698.657 1213.76 716.346 1190.75 710.36 1181.61C706.199 1176.78 705.732 1179 701.994 1181.65C695.007 1186.61 687.487 1194.78 679.565 1200.43C672.467 1205.48 628.3 1236.37 625.007 1236.68C611.478 1237.97 615.661 1227.24 622.448 1220.19C642.652 1199.12 685.128 1185.66 704.375 1167.57C708.647 1163.54 714.366 1157 710.271 1151.5L630.236 1192.04L620.868 1188.04L618.843 1180.76C622.515 1162.85 700.236 1146.34 716.346 1138.37C722.977 1135.1 737.395 1115.39 726.759 1118.57C720.484 1120.46 711.651 1126.27 703.952 1128.72C691.625 1132.63 663.456 1142.11 652.064 1142.29C644.365 1142.42 641.183 1140.31 643.186 1132.48C644.187 1130.92 659.651 1128.54 662.855 1126.71C666.26 1124.78 666.504 1120.06 670.554 1117.3C689.155 1104.62 726.692 1107.31 745.405 1096.01C755.195 1090.09 770.86 1063.17 780.228 1053.93L713.765 1083.57C699.747 1088.69 687.62 1089.56 673.202 1085.53C671.911 1079.21 673.892 1081.14 676.717 1079.36C719.238 1052.55 803.858 1051.95 804.926 983.887C787.948 995.858 739.22 1038.58 718.793 1024.78C716.435 1023.18 713.654 1021.87 714.432 1018.33C715.434 1013.72 756.152 996.503 764.63 991.608C799.83 971.271 821.503 957.297 831.159 915.332C831.805 912.529 835.098 903.807 829.691 904.229C815.562 931.865 750.679 977.634 720.573 965.307C718.526 964.462 713.253 960.657 714.388 959.188C732.255 954.249 749.366 946.439 765.631 937.65C777.824 931.064 824.217 901.826 829.802 891.991C833.763 885.027 833.874 862.376 831.07 854.721C828.378 847.334 827.577 853.987 826.22 855.434C804.169 878.774 788.928 889.388 757.665 899.49C739.464 905.364 713.898 914.109 697.922 900.113C743.647 885.272 794.735 875.415 829.134 839.079C829.001 832.671 827.644 797.048 822.771 797.159C814.827 805.837 805.527 813.002 795.937 819.699C771.884 836.476 738.975 860.262 708.892 849.292C703.129 841.327 729.941 839.124 734.191 837.566C743.892 834.051 820.546 790.729 822.815 786.123C825.708 780.271 823.95 771.927 820.034 766.898C807.24 783.297 760.691 813.179 741.89 798.383C738.596 795.802 738.24 795.468 740.354 791.53C744.382 784.053 775.844 778.913 786.48 774.508C797.116 770.102 806.483 761.224 818.187 758.198L815.895 720.172C796.56 728.226 784.922 745.382 762.405 747.629C739.998 749.876 735.659 744.202 728.094 724.266C734.858 722.53 740.911 727.603 748.654 728.404C765.097 730.095 795.425 718.881 807.529 707.667C818.921 697.098 806.35 666.926 810.399 651.506C800.609 653.531 796.292 663.165 787.615 668.506C776.289 675.492 723.577 694.316 717.125 677.562C715.033 672.11 720.796 673.623 723.154 672.778C752.325 662.164 781.852 659.917 807.663 640.514V599.306C794.846 611.967 782.475 618.842 765.164 624.071C755.641 626.941 736.95 635.107 730.831 624.071C755.819 608.095 788.527 605.981 807.663 581.439V530.618L788.393 559.411C772.974 577.567 757.888 585.577 733.568 577.3C731.855 562.503 751.791 563.46 761.982 557.719C784.722 544.903 803.924 517.958 807.64 492.191L791.264 510.103C776.111 523.12 755.218 523.097 736.305 522.385C739.842 505.097 765.765 507.055 778.47 500.068C781.251 498.533 796.96 483.424 797.984 481.155C799.408 478.018 802.322 462.909 796.693 461.997C792.688 472.633 781.874 486.807 770.459 489.343C767.011 490.1 761.715 490.478 763.762 485.382C782.252 469.318 803.613 449.581 799.163 422.391L785.723 393.331C784.388 413.446 790.685 430.357 783.076 449.781C779.115 459.928 771.172 471.743 761.092 460.684C781.095 416.695 779.76 351.812 736.327 321.907C739.42 361.246 780.606 403.099 741.823 437.299C740.354 428.755 746.117 421.479 747.052 413.735C751.124 379.736 726.181 349.965 730.875 315.588L707.468 294.449C702.973 296.496 708.847 300.835 708.847 301.303V342.511C708.847 347.74 701.683 373.884 698.568 378.846C696.787 381.672 698.701 383.652 692.404 382.362C685.15 375.13 697.744 296.363 691.047 280.654L684.171 283.435C686.218 272.177 678.898 269.039 670.443 264.211C673.001 275.091 674.915 286.684 672.534 297.921C671.377 303.416 664.301 315.454 659.473 319.125C670.02 281.544 648.348 254.109 645.678 217.507L636.911 262.253C634.508 267.904 631.237 275.803 623.783 275.18C620.735 271.754 632.238 223.27 632.238 213.368C632.238 193.787 624.896 164.928 610.077 151.556C621.002 165.93 605.649 221.067 586.78 217.507C573.519 214.992 595.28 183.841 596.392 174.986C599.441 150.443 596.748 118.046 568.891 110.37C575.21 129.75 582.13 156.606 557.921 165.307C563.15 124.855 557.81 93.3255 508.502 102.137L533.378 117.045L535.915 132.331C517.959 125.166 491.035 105.007 471.388 105.296C457.192 105.497 416.095 124.922 406.95 137.827C425.73 136.269 444.176 130.039 463.267 132.309C469.675 133.065 478.887 135.068 478.286 143.345L403.345 146.616L374.019 184.531C397.405 176.677 439.369 146.683 453.588 181.794C443.775 178.991 435.698 178.101 425.44 179.725C419.411 180.682 363.094 202.109 357.665 205.269C355.751 206.381 336.504 229.411 338.374 231.258C359.467 220.533 386.057 199.573 410.955 203.911C414.204 204.468 417.452 205.513 417.92 209.252C408.396 213.012 397.916 215.526 388.616 219.776C373.04 226.896 341.756 241.181 329.117 250.883C321.107 257.046 322.286 264.189 314.721 269.618C300.236 266.035 308.513 256.935 308.068 249.258C307.734 243.473 301.682 236.664 300.058 229.744C294.117 204.379 291.291 177.722 291.692 151.6C296.186 150.755 298.856 154.003 301.393 156.963C312.674 170.224 312.362 215.905 313.653 233.994C319.972 228.053 344.915 200.796 343.424 194.833C341.578 187.446 332.789 179.614 330.808 165.974C326.492 136.158 336.171 91.0782 353.415 66.469C356.997 69.6286 359.823 74.0787 360.135 78.9071C361.114 94.0598 348.119 123.809 346.584 142.01C345.227 158.053 346.651 174.563 350.656 190.027C358.777 176.454 385.211 151.511 389.216 137.96C398.228 107.544 378.625 48.3124 415.138 27.9308C417.408 40.8807 409.776 50.76 407.684 63.0424C404.414 82.3337 404.08 101.981 402.789 121.339C414.582 110.036 430.447 105.074 445.288 99.222C430.58 80.6872 472.033 5.90263 485.161 0.495715C490.412 -1.6626 489.545 3.72206 489.055 7.12642C486.697 23.0802 445.021 85.026 453.61 96.6409C469.096 84.0248 507.479 92.9473 519.472 87.0509C523.232 85.204 532.733 68.5383 537.25 63.6431C552.625 47.0441 580.572 14.5581 604.514 19.7426L563.328 54.0086L530.441 88.3636C540.009 88.6529 550.979 90.1882 560.079 93.0585C586.291 101.336 583.086 111.438 616.284 98.7547C628.745 93.9931 636.889 83.157 651.196 85.6491C646.011 106.987 613.392 116.31 593.589 115.888C594.078 120.138 599.841 120.182 603.335 123.942C608.897 129.928 618.176 147.461 625.096 148.841C655.023 154.76 683.37 120.227 714.321 124.12C690.758 144.235 660.853 160.856 629.257 161.168C639.158 176.321 650.573 193.32 651.218 212.011L660.786 206.426C663.211 213.835 666.393 213.079 673.869 211.388C682.948 209.318 719.06 183.129 725.268 196.947C727.071 200.93 716.413 205.18 713.409 206.96C698.056 216.105 677.719 226.852 659.451 225.762C682.836 280.476 738.485 234.729 777.446 228.521C758.222 254.042 723.288 265.212 692.36 266.992L730.764 301.347C743.158 297.342 756.308 294.672 768.323 289.421C785.412 281.967 798.073 267.281 815.851 264.211C806.305 291.98 771.527 306.643 744.515 310.937C762.093 330.429 778.492 351.077 791.175 374.107C792.087 360.423 814.293 367.076 825.241 365.629C841.417 363.493 861.109 351.856 878.998 352.145C858.817 376.399 820.457 380.426 791.175 374.107L791.197 373.884Z" fill="#DF6D26"/>
<path d="M335.593 766.765C335.393 766.453 330.72 766.542 328.829 764.028C323.177 756.507 322.109 747.318 313.342 738.217C304.064 728.56 256.848 702.794 256.002 699.412C255.001 695.362 259.362 693.093 262.944 692.492C283.86 689.043 322.91 723.309 335.571 739.285L332.211 698.7C307.557 691.98 290.179 672.355 271.044 656.913C258.227 646.567 240.315 640.87 234.041 623.915C275.716 619.354 298.278 666.036 332.812 681.589L331.632 645.699C320.93 641.271 309.448 639.446 298.879 634.529C289.067 629.968 233.996 591.363 245.033 579.926C265.258 584.109 280.344 604.424 297.922 616.261C301.661 618.775 331.521 636.354 332.834 634.863L332.522 610.454C326.27 609.63 320.796 607.539 315.434 604.201C304.753 597.548 250.64 544.302 264.257 533.222C291.87 549.02 303.752 583.797 332.812 599.15C329.941 585.555 339.776 567.443 334.147 555.228C332.611 551.89 326.248 548.107 323.444 543.969C307.023 519.671 292.516 496.108 269.753 476.883C283.437 463.021 302.128 485.405 310.806 496.174C320.218 507.856 325.402 522.541 335.548 533.199L340.666 502.16C327.16 485.494 306.533 459.95 297.589 440.726C295.252 435.697 293.45 431.892 294.429 426.062L305.332 427.486L346.54 489.21C345.517 480.465 352.859 472.299 354.217 465.201C358.578 442.35 325.335 405.814 327.204 378.001C327.516 373.395 330.831 361.424 336.928 362.848C341 363.805 360.87 427.064 363.072 437.032C369.503 438.389 367.478 436.164 369.191 433.494C385.034 408.952 382.342 406.348 374.754 379.981C365.164 346.694 344.871 315.454 346.607 280.432C361.537 291.935 370.148 319.37 376.067 337.46C382.631 357.553 387.993 377.511 390.53 398.561L420.88 369.924C434.764 346.917 387.526 290.066 390.552 257.336C390.908 253.375 393.801 246.522 397.605 244.942L404.392 246.321C406.528 285.171 434.119 316.634 434.43 354.615C444.31 347.273 455.658 335.836 460.619 324.488C462.733 319.66 459.618 307.667 468.741 307.956C471.945 308.067 475.883 322.263 475.772 325.912C475.55 333.21 470.009 334.501 470.12 340.865C472.279 343.023 508.214 314.809 527.794 325.712C531.977 328.048 529.33 331.364 525.992 332.231C517.826 334.367 510.884 333.188 500.359 336.793C477.841 344.491 445.823 366.742 428.957 383.452C448.426 386.256 466.783 366.586 485.162 365.496C489.456 365.229 489.946 365.118 489.278 369.657C477.374 397.604 416.763 394.822 403.079 407.038C397.027 412.445 386.947 428.777 385.034 437.032C386.769 439.19 428.868 415.894 435.988 415.115C441.284 414.559 444.732 414.359 448.07 419.165C447.736 429.467 387.415 448.469 376.445 449.648L363.05 486.473C384.589 478.129 394.713 469.184 419.322 470.008C422.638 470.119 429.535 467.96 428.89 472.722C416.14 473.256 402.1 479.598 390.508 485.138C362.805 498.377 347.185 506.521 349.322 541.41C355.396 547.796 426.109 497.821 439.192 495.217C446.913 493.682 458.995 495.818 459.084 505.675C419.789 509.614 390.864 553.47 349.299 552.379L349.344 588.114C362.449 581.127 409.354 547.373 420.813 548.308C431.382 549.153 425.931 556.852 419.856 561.213C407.685 569.958 354.083 592.141 350.011 597.081C344.248 604.068 347.408 628.121 346.585 637.577C349.255 641.182 411.356 587.536 426.131 600.463C406.706 622.247 374.265 634.418 349.032 649.682L346.585 687.041C369.013 676.538 391.709 655.778 413.314 645.365C418.833 642.717 427.421 637.555 431.582 644.475C407.885 669.685 375.066 683.369 346.562 702.171V750.255C359.245 744.87 371.817 735.703 383.098 727.759C392.755 720.973 425.152 693.093 433.207 692.581C437.924 692.27 439.726 692.759 442.552 696.653C442.841 702.193 402.501 732.098 395.202 737.127C380.406 747.273 365.164 759.511 346.562 761.247V807.951C365.987 801.098 411.49 759.088 430.292 761.135C439.059 762.092 438.881 769.457 431.471 773.44C401.9 786.902 377.113 811.311 346.852 821.969L346.562 846.4C373.019 834.429 413.915 798.249 443.798 802.41L445.422 809.308C419.456 821.168 391.019 842.484 364.875 852.363C358.422 854.811 353.482 858.527 346.562 854.633V890.367C377.98 878.597 426.487 840.237 460.441 846.444C464.046 847.112 468.274 849.07 467.295 853.253C460.886 862.309 450.095 858.504 441.907 860.841C408.775 870.319 381.318 894.951 346.518 895.863C347.208 903.339 345.539 912.084 346.518 919.293C347.03 923.12 344.983 924.033 350.545 923.298C357.399 922.408 370.237 917.024 376.823 913.842C390.864 907.078 415.718 883.447 428.868 886.14C440.171 888.454 433.919 894.639 428 899.156C414.271 909.614 374.754 932.955 358.511 934.312C353.638 934.713 350.701 933.467 346.496 931.598V992.053C381.363 983.931 400.498 936.96 439.793 950.867L409.799 968.89C390.574 983.486 369.481 1006.16 343.759 1005.8V1041.52C361.982 1032.5 380.65 1022.94 400.187 1016.95C408.197 1014.5 442.596 1002.44 442.596 1015.42C443.153 1020.62 439.192 1020.85 435.676 1022.25C425.219 1026.41 409.532 1027.48 398.051 1031.3C379.716 1037.42 362.583 1047.1 344.115 1052.89L343.781 1077.23C368.012 1071.18 394.691 1063.46 419.567 1061.1C423.884 1060.7 445.333 1058.94 445.266 1064.88C429.268 1080.48 402.412 1071.44 382.097 1078.52C369.191 1083.01 363.006 1094.87 343.781 1085.51V1118.46C377.558 1107.89 423.327 1083.28 450.762 1117.1C442.797 1128.58 428.489 1122.64 416.519 1124C393.178 1126.67 370.282 1131.81 346.496 1129.47L352.459 1170.21C372.952 1179.11 394.09 1182.76 415.873 1175.55C425.085 1172.51 432.828 1163.96 441.35 1162.58C447.981 1161.51 475.238 1160.51 478.22 1166.61C479.555 1172.19 474.148 1171.39 470.521 1172.51C434.786 1183.59 402.323 1211.07 362.983 1195.45L383.944 1228.62C407.351 1221.95 441.595 1201.01 465.96 1203.48C476.618 1204.57 480.022 1210.2 468.63 1214.65C447.469 1222.93 422.638 1221.88 398.518 1235.12C390.352 1239.61 390.174 1238.41 393.178 1247.62L497.444 1220.17C499.113 1229.71 493.84 1230.14 487.231 1233.27C463.801 1244.4 427.377 1252.25 401.41 1253.16L434.186 1265.62C450.228 1268.67 475.327 1257.61 491.081 1250.87C499.135 1247.42 539.12 1224.75 542.658 1225.66C552.181 1233.07 543.592 1239.61 536.783 1244.42L461.799 1275.08C479.043 1275.84 483.671 1289.9 495.709 1296.89C505.566 1285.63 518.249 1279.04 530.197 1270.7C532.089 1269.39 532.778 1265.58 535.159 1264.07C545.929 1257.19 567.645 1244.98 579.839 1251.72C583.955 1254.52 581.463 1256.46 578.459 1258.68C572.607 1263.02 562.394 1264.36 555.007 1268.18C535.804 1278.17 516.469 1289.52 503.296 1307.3C502.161 1311.68 506.545 1322.43 512.085 1321.56C514.733 1321.16 545.55 1299.56 555.096 1295.77C560.414 1293.66 600.042 1281.65 601.711 1283.38C602.69 1284.4 602.312 1291.81 599.931 1294.6C598.04 1296.82 554.161 1320.36 548.799 1322.41C543.08 1324.59 514.355 1328.95 513.977 1334.16C520.385 1347.46 532.801 1358.32 533.157 1374.03L600.398 1357.59C618.911 1355.98 625.208 1359.01 640.16 1368.58C639.871 1372.43 627.744 1373.43 624.74 1373.7C612.124 1374.83 598.841 1372.78 586.692 1374.07C571.495 1375.68 554.651 1382.26 538.697 1382.35L541.389 1415.24C549.133 1417.82 546.084 1409.07 551.269 1407.38C554.673 1406.25 596.126 1401.82 603.024 1401.42C608.675 1401.09 645.322 1399.86 642.919 1411.1C635.799 1421.49 628.568 1410.48 622.894 1410.41L544.237 1429.1L544.148 1456.47C562.594 1442.52 588.85 1438.53 611.457 1437.18C620.824 1436.62 628.011 1436.69 626.476 1448.21C598.218 1451.17 572.051 1468.13 544.059 1474.25C539.854 1477.41 539.876 1490.71 544.059 1493.76C552.893 1492.18 564.308 1493.41 572.362 1491.58C576.078 1490.73 632.239 1463.77 631.905 1479.81C609.321 1509.03 569.87 1496.79 541.834 1517.32L541.412 1549.85L623.717 1522.4C622.805 1537.42 601.333 1552.15 586.58 1552.75C580.417 1552.99 575.945 1549.81 568.78 1550.92C557.365 1552.7 549.155 1564.94 536.45 1564.1C533.735 1566.01 528.284 1597.58 527.683 1603.48C526.837 1611.76 530.487 1621.01 529.218 1626.84C528.039 1632.23 520.741 1638.55 522.165 1646C491.17 1643.02 514.689 1588.15 519.45 1569.1C501.917 1575 481.001 1584.61 462.978 1588.1C455.947 1589.46 434.252 1593.82 434.252 1584.14C434.252 1577.85 446.646 1573.8 451.719 1571.35C465.804 1564.61 483.894 1558.04 498.757 1552.5C516.224 1545.98 528.017 1551.01 527.638 1525.11C513.932 1527.67 499.603 1523.44 485.362 1525.36C472.88 1527.03 441.729 1545.4 433.251 1539.11C417.386 1527.36 465.537 1514.21 472.635 1512.61C481.624 1510.58 517.403 1504.17 524.813 1504.42C529.307 1504.57 529.686 1507.53 533.134 1508.62V1472.89C514.778 1475.72 495.909 1478.39 477.641 1481.88C467.851 1483.75 425.931 1499.68 425.997 1485.26C426.042 1475.43 446.713 1470.98 454.011 1469.22C477.641 1463.52 506.523 1460.99 530.398 1459.18V1428.94C521.475 1433.93 511.573 1430.37 502.228 1432.33C484.517 1436.02 457.771 1450.71 440.127 1452.35C437.523 1452.6 435.543 1452.33 433.34 1450.8L428.69 1444.01C427.577 1433.66 440.171 1431.84 447.514 1429.77C472.301 1422.8 505.366 1414.62 530.398 1420.71L527.082 1384.07L523.745 1380.46C499.469 1376.48 477.597 1383 454.745 1390.27L426.175 1389.16C448.76 1368.96 498.112 1353.45 523.589 1374.01C525.881 1360.37 511.507 1348.2 506.634 1335.45C490.658 1336.54 473.547 1334.25 457.749 1335.6C443.086 1336.87 429.824 1343.44 415.184 1343.79C411.401 1334.47 425.619 1321.83 433.006 1321.83H500.248L493.039 1310.91L395.781 1306.88L393.467 1294.6C397.717 1288.25 466.115 1292.3 478.264 1294.33C479.666 1287.25 476.773 1289.52 472.924 1287.45C444.799 1272.28 409.688 1276.33 378.27 1278.22C370.638 1278.69 335.771 1288.52 338.33 1276.53C338.686 1274.88 349.344 1266.87 350.679 1266.87H395.959L370.304 1255.48C348.231 1254.66 330.764 1249.34 311.028 1243.37C302.306 1240.75 292.76 1245.29 286.241 1238.03C289.489 1233.14 293.495 1234.05 298.434 1233.74C314.655 1232.76 340.11 1237.03 356.976 1238.63C360.002 1238.92 366.321 1241.88 365.765 1236.7L277.964 1188.59L275.116 1183.14C281.323 1165.74 299.258 1185.5 309.048 1190.44C327.449 1199.76 348.365 1205.68 361.693 1222.9C363.762 1223.33 363.451 1220.26 363.006 1218.85C361.359 1213.63 346.184 1185.48 342.468 1181.7C327.783 1166.7 295.052 1155.82 275.472 1148.5C270.042 1121.35 310.027 1147.23 320.952 1153.77C328.094 1158.04 334.458 1163 341.044 1167.97L335.37 1132.45C323.066 1133.32 316.035 1124.31 305.354 1119.93C295.052 1115.7 254.066 1105.55 250.262 1100.88C245.678 1095.25 248.793 1087.26 255.001 1086.08C265.815 1084.01 320.195 1109.6 331.454 1118.55L332.834 1091.07C295.964 1092.07 269.175 1055.91 234.019 1055.33C227.722 1049.15 249.594 1037.89 256.692 1039.25C264.435 1040.74 271.355 1051.42 278.787 1055.89C284.35 1059.25 330.764 1082.44 332.834 1080.08C331.788 1074.71 334.681 1062.21 332.411 1058.54C331.298 1056.76 299.792 1042.83 294.385 1040.29C287.509 1037.04 277.608 1036.11 271.667 1032.82C265.503 1029.41 265.726 1022.49 258.784 1022.34C264.947 1011.54 284.327 1018.62 293.828 1021.62C308.425 1026.21 321.041 1035.02 332.834 1044.36L331.432 1008.7C323.466 989.65 266.104 986.601 249.705 973.095C245.767 969.847 243.208 958.966 242.318 953.693C244.699 951.356 298.1 971.204 305.376 974.341C316.235 979.014 326.537 984.488 335.615 992.164V939.964C312.474 946.261 265.459 932.288 249.171 915.244C244.209 910.059 235.732 892.704 248.682 896.486C258.027 899.223 273.002 912.306 285.484 917.357C301.772 923.944 318.215 926.992 335.615 928.994V827.331C335.615 826.975 331.12 826.953 328.784 824.683C318.66 814.782 309.56 806.126 298.434 797.226C283.371 785.166 262.967 776.555 253.243 760.045C287.287 758.866 314.633 787.324 335.615 810.843C334.035 803.501 337.729 770.08 335.615 766.876L335.593 766.765Z" fill="#DF6D26"/>
<path d="M121.496 481.021L99.6015 509.947C84.6045 526.146 49.2482 553.358 26.864 552.557C22.7254 552.401 18.8093 554.404 19.9663 548.374C47.9799 532.087 78.0406 518.18 102.316 496.174C113.486 486.05 127.17 475.859 120.139 459.06C99.9798 470.497 83.3807 491.056 61.7531 499.534C54.6996 502.293 45.0206 506.654 39.1909 498.889L111.417 452.807L121.452 453.564C120.517 449.648 128.594 427.219 120.406 429.088L79.2866 442.906L36.4096 470.007C26.3968 458.548 67.6718 429.934 76.9503 426.819C84.471 424.304 128.616 420.789 129.885 416.138L129.729 395.823C114.865 396.424 99.5125 397.27 84.7603 398.894C79.4424 399.495 33.7172 411.265 50.8948 393.776C62.1981 382.273 116.601 383.007 133.4 384.965L151.69 355.972C127.281 353.525 91.9695 366.208 72.1219 349.141C92.9263 342.644 123.276 341.065 144.993 343.445C149.777 343.979 152.758 345.27 155.851 348.963L176.211 325.378C178.725 311.36 120.117 306.554 110.46 303.772C106.9 302.749 103.918 303.127 105.097 298.321C127.148 280.409 166.71 299.211 185.667 315.943C200.82 302.015 216.952 286.773 236.799 280.387C238.201 273.979 235.931 276.004 233.284 274.268C208.14 257.98 171.649 256.223 143.502 247.411C142.812 246.544 145.06 243.829 146.194 243.273C162.482 235.24 215.394 250.371 231.459 259.649C238.868 263.944 244.364 273.845 246.879 274.646C253.02 276.582 266.348 268.505 275.204 274.958C277.763 287.44 256.202 273.378 258.738 285.883C269.997 280.632 304.931 309.802 297.165 318.858L255.979 290.066C230.747 280.187 221.29 293.27 209.342 313.34C237.978 316.856 262.499 341.688 280.7 362.803C236.732 358.398 207.495 290.088 170.915 349.075C195.635 351.678 221.357 356.64 236.332 378.401C240.026 383.764 251.863 403.322 237.422 399.361C224.984 395.935 223.226 384.298 212.991 377.044C208.185 373.64 171.026 357.018 166.732 357.085L146.217 386.211C177.546 391.129 232.127 400.318 228.5 442.505C217.085 438.589 211.456 427.286 201.999 420.989C197.749 418.163 153.025 396.046 150.155 395.757C135.759 394.288 143.435 411.644 137.984 420.433C169.78 432.871 212.902 462.375 212.056 500.201C207.072 506.12 182.597 466.536 179.237 463.02C172.828 456.256 153.537 438.567 146.217 432.893C143.48 430.757 142.701 427.597 137.984 428.799C134.58 431.269 136.382 455.21 138.473 458.481C139.052 459.371 152.425 464.622 157.231 468.561C180.015 487.207 205.804 519.226 206.561 549.665C200.152 557.185 181.239 515.554 179.192 512.528C171.293 500.758 155.584 481.578 144.815 472.744C141.722 470.207 140.387 466.069 135.225 467.27C134.135 472.432 136.026 475.459 137.806 479.775C148.353 505.386 189.628 569.49 187.581 592.297C187.202 596.48 187.047 599.35 183.197 601.865L176.767 597.37L132.421 494.75C127.615 494.105 129.862 500.98 129.707 504.318C128.06 543.679 152.803 564.662 166.665 599.239C172.539 613.902 178.792 626.585 176.344 643.095C169.869 644.809 168.445 637.043 166.265 632.682C163.839 627.853 131.398 546.394 126.992 552.446C119.85 603.489 157.03 644.541 184.221 683.502C188.448 686.017 185.445 698.766 183.242 698.032C151.49 680.209 141.678 641.916 122.809 612.901C122.297 622.736 116.913 634.573 118.693 644.363C119.405 648.28 156.185 704.952 161.481 711.561C176.099 729.851 203.201 742.533 203.779 766.72C199.018 771.66 166.198 743.958 161.547 738.973C144.058 720.216 129.173 688.62 118.693 665.101C114.621 664.901 113.931 674.825 113.553 677.762C112.485 686.195 108.88 717.746 110.482 723.554C111.105 725.823 138.985 753.103 143.391 757.152C165.597 777.667 220.578 807.394 196.948 843.596C185.178 832.916 181.729 815.76 170.87 803.812C153.871 785.121 124.344 770.191 109.103 747.495C101.693 781.049 122.497 803.144 143.346 825.862C165.219 849.693 191.119 868.472 214.771 890.322C167.689 891.479 141.5 838.768 110.482 810.665V861.486C130.597 874.947 151.601 887.964 170.626 902.939C183.553 913.107 208.741 926.969 202.444 945.282L110.504 876.616C106.099 910.704 114.932 924.344 139.386 945.215C149.643 953.959 196.792 981.083 198.261 987.936C199.463 993.699 195.724 992.431 191.675 991.808C165.464 987.869 138.651 958.632 118.759 942.545C122.342 961.68 119.16 988.07 135.358 1001.44C160.657 1022.31 199.529 1036.53 225.919 1056.4L228.477 1066.17C190.562 1058.14 160.479 1032.1 131.042 1008.5C128.928 1008.07 129.395 1010.97 129.751 1012.52C131.754 1021.31 139.497 1053.46 143.324 1058.65C157.498 1077.78 196.347 1094.58 211.077 1111.09C219.421 1120.44 227.921 1137.39 218.91 1148.61C202.466 1117.23 172.695 1104.66 148.931 1079.94L156.875 1124.89C169.024 1129.87 177.323 1141.47 187.291 1150.03C200.486 1161.4 247.012 1188.88 235.442 1209.17C226.074 1215.07 224.027 1200.76 218.954 1195.25C201.131 1175.84 175.877 1162.76 159.901 1140.38L173.518 1194.02C193.544 1214.76 241.539 1219.85 240.849 1253.01L180.416 1214.58C172.851 1211.69 179.059 1231.96 179.882 1234.36C189.361 1262.22 230.257 1269.59 247.702 1292.86C257.314 1305.68 255.467 1313.35 239.736 1303.58C235.931 1301.23 215.327 1279.95 212.034 1283.27C216.151 1289.77 218.242 1298.02 222.47 1304.39C238.423 1328.39 285.884 1353.69 292.292 1377.37C292.915 1379.64 297.01 1384.49 290.312 1382.11C272.979 1375.94 249.527 1347.86 235.353 1335.45C232.816 1372.36 296.186 1397.7 298.411 1431.24C298.545 1433.08 297.455 1439.58 297.076 1439.83C287.508 1446.21 267.238 1402.24 255.957 1398.62C260.207 1409.9 262.966 1433.06 268.395 1442.47C273.802 1451.84 310.382 1471.84 320.417 1481.06C329.229 1489.15 334.791 1497.41 323.176 1505.71C311.628 1487.51 291.736 1477.56 275.182 1464.55C274.114 1465.93 282.235 1494.78 284.015 1498.28C294.606 1519.13 344.314 1515.94 338.262 1552.48L288.91 1516.77C289.845 1531.81 303.64 1542.09 299.858 1557.98C286.618 1559.07 278.897 1552.55 275.026 1540.26L269.73 1511.29C259.295 1537.88 234.374 1558.24 212.079 1574.46C201.554 1560.07 247.546 1526.85 255.957 1515.39C259.984 1509.91 267.082 1497.59 266.838 1490.93C266.726 1487.78 255.356 1446.06 253.509 1440.89C252.13 1437 254.333 1436.27 247.747 1437.09C243.274 1453.13 239.358 1476.03 225.741 1485.91L206.583 1519.5C205.092 1512.3 203.957 1508.42 205.581 1500.9C210.499 1478.16 245.143 1439.42 245.232 1416.51C245.299 1395.26 227.476 1367.44 223.004 1346.44L219.644 1377.37C218.598 1383.62 199.151 1429.63 193.166 1410.59C189.672 1399.42 203.29 1383.73 207.072 1373.05C215.639 1348.95 212.568 1323.88 206.538 1299.71C199.374 1298.22 202.288 1301.25 200.798 1303.67C189.672 1322.05 180.861 1342.7 173.585 1362.9C167.577 1363.97 168.111 1362.37 166.754 1357.54C159.5 1331.73 189.071 1309.9 195.635 1287.59L173.585 1250.27C170.715 1248.34 147.129 1306.32 136.515 1307.95C114.02 1312.89 153.226 1258.44 154.917 1254.9C157.031 1250.43 164.306 1232.65 164.907 1228.98C165.842 1223.17 156.808 1181.61 153.048 1181.65C140.253 1193.33 127.037 1209.62 120.117 1225.55C117.714 1231.07 110.082 1269.61 102.294 1264C93.0598 1238.01 113.931 1205.75 131.019 1187.01C136.07 1181.47 149.777 1174.2 151.268 1168.61C152.514 1163.94 145.26 1134.92 142.078 1134.95C128.772 1155.53 100.625 1171.95 92.5703 1195.25C90.234 1202.01 93.6383 1220.12 80.2657 1213.27C65.9585 1205.93 81.4004 1177.76 88.6319 1169.3C97.7992 1158.58 139.653 1131.07 140.765 1122.37C141.433 1117.15 132.443 1076.58 130.018 1070.02C125.946 1059.12 113.597 1075.14 109.103 1079.9C90.4565 1099.66 77.9961 1124.89 72.0552 1151.35C68.495 1151.23 64.8682 1140.69 64.4899 1138.35C59.261 1107.07 100.024 1068.8 124.433 1053.42C118.292 1039.65 117.736 1012.12 111.928 1000.22C111.372 999.084 108.702 996.836 107.812 997.526C104.096 1009.68 96.7979 1022.58 89.7444 1033.04C79.7094 1047.97 61.4416 1073.25 50.1382 1086.8C47.3346 1090.18 44.175 1094.47 39.1686 1093.65C28.6663 1081.43 79.2644 1030.1 86.9631 1019.27C93.2378 1010.43 106.566 987.491 106.989 977.478C107.567 964.083 97.9772 943.546 99.5125 928.816C92.3033 927.481 95.2626 929.973 93.7941 932.755C75.4818 967.532 48.7364 996.569 33.606 1033.22L28.0211 1031.66C8.64072 1002.6 80.7997 945.015 91.2797 919.182L96.7534 923.32C98.2442 919.649 94.0388 915.199 94.0388 913.708V871.12C70.5421 891.257 49.0702 913.663 32.2932 939.763C25.9517 934.802 27.309 924.366 29.4006 917.691C34.0955 902.85 94.0388 857.859 94.0388 853.275V805.191C79.2199 821.635 66.0475 840.481 48.6697 854.566C44.6868 857.792 19.9886 877.84 17.2072 864.222C16.0502 858.526 94.0388 794.556 94.0388 784.587V739.263C75.237 761.58 57.8815 786.612 34.9633 805.147C29.4451 809.619 6.54915 827.042 0.719475 818.92C-5.46621 810.309 30.0904 790.261 36.4318 784.632C57.481 765.963 74.5695 742.266 96.1971 724.978L103.651 659.605C89.9447 682.457 42.5508 751.278 15.5607 753.014C8.77422 753.459 5.21411 750.588 6.03739 743.424C6.63816 738.128 32.894 721.618 39.1686 715.966C62.7989 694.695 79.9986 666.992 106.343 648.591L114.621 582.685C101.982 594.5 98.8227 612.122 89.6554 626.385C79.7761 641.782 38.7014 687.686 19.054 676.115L17.096 669.217C37.5666 659.205 55.9012 643.963 70.6979 626.674C80.1544 615.616 93.082 589.894 100.981 582.818C105.431 578.835 114.465 578.279 115.511 576.744C118.314 572.583 119.071 541.499 118.67 534.556C118.492 531.464 120.495 527.013 115.956 527.77C106.61 552.624 50.9393 620.822 21.4794 599.417C14.7152 586.445 41.6607 585.755 52.6081 578.39C73.5237 564.306 94.3726 538.116 113.174 520.739L121.407 522.252V481.043L121.496 481.021Z" fill="#DF6D26"/>
<path d="M560.635 1044.27C561.992 1051.73 556.763 1074.14 565.129 1076.85C584.109 1083.06 605.626 1069.44 623.76 1066.28C606.471 1082.37 583.909 1089.15 560.635 1082.72C558.365 1097.68 558.721 1105.04 570.247 1115.7C581.995 1126.54 615.483 1132.63 600.397 1154.17C593.699 1138.6 575.365 1135.95 564.64 1124L548.308 1143.18C541.588 1141.71 544.77 1121.2 544.125 1115.72C523.142 1129.12 486.184 1150.23 460.774 1148.56C449.648 1147.83 437.121 1138.06 452.296 1135.06C484.649 1128.63 515.51 1123.44 544.258 1105.69L544.125 1088.24C541.566 1085.66 480.91 1101.55 475.526 1080.03L543.835 1076.96L544.102 1044.27C519.805 1055.27 481.244 1050.82 472.767 1022.31C497.176 1027.23 516.645 1044.12 543.969 1035.89L546.861 1003.07C526.302 1004.89 463.043 1017.17 476.994 980.994C498.555 995.902 524.856 985.845 549.42 991.919L555.094 959.122C534.868 960.19 519.56 964.217 500.157 955.005C492.481 951.356 479.709 939.029 480.977 930.285C482.424 920.472 498.333 936.315 500.981 937.672C518.358 946.55 538.473 947.885 557.831 948.108V923.387C531.153 930.151 497.621 925.278 480.977 901.426C507.856 900.091 530.574 918.492 558.588 912.529L563.282 895.907C553.314 902.716 485.383 877.729 497.465 865.691L564.373 887.875L574.319 857.458C557.609 855.433 503.562 854.521 496.152 838.167C493.438 832.182 493.504 817.207 501.537 818.987C520.205 839.658 552.135 837.7 577.033 846.444V818.965C557.008 820.366 534.112 818.787 518.002 805.28C514.442 802.299 502.138 785.7 512.506 788.793C531.353 794.422 552.535 815.516 577.078 810.754L573.651 781.183L497.487 772.26C497.131 762.537 510.793 761.78 517.958 761.18C536.359 759.644 558.298 759.733 574.297 769.524C578.213 746.272 562.704 737.95 544.08 729.739C529.728 723.42 512.64 722.597 501.359 717.568C490.79 712.851 492.97 705.264 502.85 702.082C522.541 695.718 556.585 715.477 571.56 728.315L571.226 701.192C544.058 693.093 513.307 678.808 494.728 656.891C522.92 656.045 543.902 677.517 568.801 687.085L571.582 648.636C558.654 646.7 509.213 631.302 502.761 622.714C500.269 619.376 499.623 617.084 500.224 612.923C506.543 606.782 564.529 635.241 572.962 643.095L579.169 617.307C576.7 604.134 504.919 586.779 491.991 578.568C519.026 559.21 557.742 585.399 582.529 599.15L581.283 574.318C553.025 562.548 522.452 549.509 502.961 525.011C533.422 526.835 557.319 548.374 583.953 560.679L588.137 529.572C557.698 513.73 533.155 487.407 497.487 482.423C514.198 467.693 536.159 481.489 552.157 490.878C561.992 496.641 579.103 513.352 586.757 516.711C590.851 518.514 590.473 515.577 591.452 513.352C593.81 507.922 598.995 484.114 594.589 480.754L519.404 452.207L520.85 445.309C546.839 448.713 570.069 462.108 593.543 472.789L593.21 445.687C566.687 442.416 550.867 421.1 527.704 412.333C537.627 390.728 588.604 440.036 590.784 437.098C587.981 426.863 590.184 408.662 585.021 400.296C581.84 395.156 550.333 373.55 542.634 365.785C536.226 359.332 532.287 350.721 524.945 345.047C548.953 340.241 560.946 367.365 579.792 376.666C579.703 353.681 583.597 329.494 559.366 318.836C546.617 313.229 495.93 306.554 492.014 298.343C488.787 291.579 506.766 294.316 509.503 294.583C529.439 296.585 550.088 304.128 568.823 310.715C570.514 299.589 563.483 271.865 550.956 269.551C545.46 268.527 523.788 266.502 518.069 266.525C506.454 266.614 491.48 272.288 479.709 272.354C465.713 272.443 474.947 264.366 481.845 260.717C498.088 252.151 521.162 255.577 538.629 258.492C532.554 249.859 520.784 247.79 511.149 246.21L515.288 236.486C519.894 236.598 533.711 248.123 539.497 250.816C544.191 252.996 563.149 261.363 566.731 262.275C582.641 266.324 614.125 249.414 612.746 283.235C608.474 283.48 609.608 277.917 605.715 275.225C597.126 269.284 579.303 273.467 568.89 272.288L582.418 315.031C585.555 317.279 595.969 316.7 600.285 316.055C605.715 315.231 624.628 303.016 626.519 312.161C628.788 323.086 594.344 333.811 585.355 329.984L593.744 384.765C616.506 392.753 629.1 364.739 645.677 361.246C650.95 360.133 661.497 360.556 659.494 368.433C634.685 367.387 623.204 403.722 596.369 393.176L601.865 439.88C618.509 428.532 644.675 405.591 664.946 416.517L605.959 448.135L602.266 519.114C604.291 519.47 607.695 522.296 608.696 522.296H671.821C672.333 522.296 679.921 525.233 681.411 526.413C656.646 540.965 626.274 534.289 599.084 533.288L593.61 563.482C600.33 568.355 641.049 550.399 652.663 549.665C659.517 549.242 668.306 548.797 667.683 557.986C641.382 556.073 617.085 578.813 590.851 571.737V610.209C616.996 607.116 640.648 588.381 667.727 595.123C667.994 600.952 662.61 601.197 658.582 602.443C648.369 605.647 619.799 614.147 610.654 615.059C602.444 615.883 597.549 614.659 589.783 613.124C585.333 614.459 582.841 628.766 582.574 633.572C582.262 639.29 582.529 637.088 586.646 637.688C611.566 641.426 634.218 620.133 652.441 621.29C656.847 621.579 668.083 627.075 664.901 632.148C647.702 631.703 632.015 647.746 613.502 650.727C602.132 652.552 590.807 651.773 579.859 648.658C580.215 663.165 574.208 675.27 580.126 689.532C608.785 693.582 636.799 664.5 664.901 680.254L608.407 695.117L579.815 695.34L582.574 728.315C584.843 730.83 640.537 711.561 648.414 724.243C651.061 736.682 591.741 741.399 582.552 739.307L588.047 813.491C613.68 812.957 637.578 805.992 662.142 799.762C647.012 823.793 613.636 829.311 588.07 821.724V846.444C616.884 844.152 643.719 834.607 670.375 824.483C656.758 857.436 613.502 850.294 585.155 859.194L579.837 890.389C586.668 896.731 649.126 873.924 662.164 882.201C640.96 899.601 603.489 904.229 577.1 898.667V906.877L659.405 909.658C660.051 913.619 654.644 913.374 651.751 914.286C629.679 921.318 597.17 918.47 574.363 915.11L568.845 945.326C597.727 947.996 625.473 940.075 653.91 937.116C652.908 947.952 640.782 952.357 632.015 955.005C610.654 961.436 588.07 958.476 566.086 959.055L563.349 989.271C576.099 996.347 635.486 974.43 640.203 981.061C650.572 995.68 592.653 1006 583.953 1006C575.342 1006 568.178 1004.2 560.635 1000.29L563.171 1032.06L626.452 1030.52C627.298 1036.31 626.786 1034.97 623.003 1036.67C620.6 1037.73 601.598 1044.25 600.397 1044.25H560.59L560.635 1044.27Z" fill="#DF6D26"/>
<path d="M332.521 893.46L332.677 901.181C295.541 910.749 267.95 869.941 236.777 856.079L234.262 845.354C235.642 841.193 239.78 840.704 243.608 840.726C261.341 840.77 308.579 891.146 332.543 893.438L332.521 893.46Z" fill="#DF6D26"/>
<path d="M254.51 800.408C257.759 801.298 261.008 802.455 263.967 804.124C275.337 810.51 307.89 833.873 318.882 842.573C322.175 845.176 333.611 854.833 332.833 858.771C331.498 865.491 320.795 859.35 317.279 857.926C304.241 852.608 250.616 824.327 248.213 811.733L254.51 800.408Z" fill="#DF6D26"/>
<path d="M670.42 769.523C659.829 802.187 613.08 776.555 588.093 777.712C611.055 758.865 643.497 779.625 670.42 769.523Z" fill="#DF6D26"/>
</svg>
