<?xml version="1.0" encoding="UTF-8" standalone="no"?>
<svg
   id="Camada_2"
   data-name="Camada 2"
   viewBox="0 0 1344.89 371.04"
   version="1.1"
   sodipodi:docname="logotipo horizontal v1.svg"
   inkscape:version="1.3 (0e150ed6c4, 2023-07-21)"
   xmlns:inkscape="http://www.inkscape.org/namespaces/inkscape"
   xmlns:sodipodi="http://sodipodi.sourceforge.net/DTD/sodipodi-0.dtd"
   xmlns="http://www.w3.org/2000/svg"
   xmlns:svg="http://www.w3.org/2000/svg">
  <sodipodi:namedview
     id="namedview24"
     pagecolor="#ffffff"
     bordercolor="#000000"
     borderopacity="0.25"
     inkscape:showpageshadow="2"
     inkscape:pageopacity="0.0"
     inkscape:pagecheckerboard="0"
     inkscape:deskcolor="#d1d1d1"
     inkscape:zoom="0.90713738"
     inkscape:cx="672.44501"
     inkscape:cy="185.74915"
     inkscape:window-width="1920"
     inkscape:window-height="1017"
     inkscape:window-x="-8"
     inkscape:window-y="-8"
     inkscape:window-maximized="1"
     inkscape:current-layer="g24" />
  <defs
     id="defs1">
    <style
       id="style1">&#10;      .cls-1 {&#10;        fill: #5f6c37;&#10;      }&#10;&#10;      .cls-2 {&#10;        fill: #273617;&#10;      }&#10;    </style>
  </defs>
  <g
     id="Camada_1-2"
     data-name="Camada 1">
    <g
       id="g24">
      <path
         class="cls-2"
         d="m 365.87,173.76 -61.91,-1.35 c -1.53,-0.03 -2.14,-2.03 -0.89,-2.91 21.83,-15.2 45.38,-24.95 55.04,-28.62 2.56,-0.97 3.93,-3.73 3.18,-6.36 -1.04,-3.68 -2.47,-8.77 -3.53,-12.53 -0.79,-2.8 -3.72,-4.45 -6.52,-3.65 -10.49,3.02 -35.29,11.11 -59.32,26.8 -1.35,0.88 -3.06,-0.55 -2.32,-1.99 13.67,-26.75 36.51,-44.66 45.59,-51.04 2.2,-1.54 2.86,-4.47 1.59,-6.83 l -6.02,-11.11 c -1.43,-2.64 -4.75,-3.59 -7.33,-2.05 -15.11,9.04 -60.84,40.4 -69.39,95.21 -0.43,2.76 -2.83,4.77 -5.62,4.56 l -41.21,-3.19 c -2.6,-0.2 -4.66,-2.26 -4.86,-4.86 l -3.23,-41.2 c -0.22,-2.79 1.8,-5.2 4.56,-5.63 54.84,-8.53 86.21,-54.3 95.25,-69.42 1.54,-2.58 0.6,-5.89 -2.04,-7.32 l -11.08,-6.02 c -2.36,-1.28 -5.29,-0.62 -6.83,1.58 -6.38,9.08 -24.31,31.93 -51.07,45.6 -1.44,0.74 -2.88,-0.97 -1.99,-2.32 15.7,-24.05 23.8,-48.85 26.82,-59.34 0.8,-2.79 -0.85,-5.72 -3.65,-6.5 L 236.55,9.74 c -2.63,-0.74 -5.39,0.63 -6.36,3.18 -3.65,9.66 -13.38,33.23 -28.63,55.09 -0.87,1.25 -2.87,0.64 -2.9,-0.89 L 197.29,5.16 C 197.23,2.29 194.88,-0.01 192,-0.01 h -12.93 c -2.88,0 -5.22,2.3 -5.29,5.17 l -1.36,61.91 c -0.03,1.53 -2.03,2.14 -2.91,0.89 -15.2,-21.83 -24.95,-45.38 -28.62,-55.04 -0.97,-2.56 -3.73,-3.93 -6.36,-3.19 -3.68,1.04 -8.78,2.47 -12.53,3.53 -2.8,0.79 -4.45,3.72 -3.65,6.51 3.01,10.49 11.11,35.29 26.81,59.33 0.88,1.35 -0.55,3.06 -1.99,2.32 C 116.42,67.76 98.51,44.91 92.13,35.83 c -1.54,-2.2 -4.46,-2.87 -6.82,-1.59 -3.26,1.77 -7.76,4.2 -11.13,6.03 -2.64,1.43 -3.58,4.74 -2.03,7.32 9.04,15.11 40.4,60.84 95.21,69.39 2.76,0.43 4.77,2.83 4.56,5.62 l -3.19,41.21 c -0.2,2.6 -2.26,4.66 -4.86,4.86 l -41.2,3.23 c -2.79,0.22 -5.2,-1.8 -5.63,-4.56 C 108.51,112.5 62.74,81.13 47.62,72.1 45.04,70.56 41.73,71.5 40.3,74.14 l -6.02,11.08 c -1.28,2.36 -0.62,5.29 1.58,6.83 9.08,6.38 31.93,24.31 45.6,51.07 0.74,1.44 -0.97,2.88 -2.32,1.99 -24.05,-15.7 -48.86,-23.8 -59.34,-26.82 -2.79,-0.8 -5.72,0.85 -6.5,3.65 l -3.53,12.54 c -0.74,2.63 0.63,5.39 3.19,6.36 9.66,3.65 33.23,13.38 55.09,28.63 1.25,0.87 0.64,2.87 -0.89,2.9 L 5.2,173.74 c -2.87,0.06 -5.17,2.41 -5.17,5.29 v 12.93 c 0,2.88 2.3,5.22 5.17,5.29 l 61.91,1.35 c 1.53,0.03 2.15,2.03 0.89,2.9 -21.84,15.21 -45.4,24.96 -55.06,28.62 -2.56,0.97 -3.92,3.71 -3.18,6.34 1.04,3.69 2.48,8.8 3.54,12.57 0.79,2.8 3.71,4.44 6.51,3.63 10.49,-3.01 35.29,-11.11 59.33,-26.81 1.35,-0.88 3.06,0.55 2.32,1.99 -13.67,26.75 -36.51,44.66 -45.59,51.04 -2.2,1.54 -2.86,4.47 -1.59,6.83 l 6.02,11.11 c 1.43,2.64 4.75,3.59 7.33,2.05 15.11,-9.04 60.84,-40.4 69.39,-95.21 0.43,-2.76 2.83,-4.77 5.62,-4.56 l 41.21,3.19 c 2.6,0.2 4.66,2.26 4.86,4.86 l 3.23,41.2 c 0.22,2.79 -1.8,5.2 -4.56,5.63 -54.84,8.53 -86.21,54.3 -95.25,69.42 -1.54,2.58 -0.6,5.89 2.04,7.32 l 11.08,6.02 c 2.36,1.28 5.29,0.62 6.83,-1.58 6.38,-9.08 24.31,-31.93 51.07,-45.6 1.44,-0.74 2.88,0.97 1.99,2.32 -15.7,24.05 -23.8,48.85 -26.82,59.34 -0.8,2.79 0.85,5.72 3.65,6.5 l 12.54,3.53 c 2.63,0.74 5.39,-0.63 6.36,-3.18 3.65,-9.66 13.38,-33.23 28.63,-55.09 0.87,-1.25 2.87,-0.64 2.9,0.89 l 1.37,61.96 c 0.06,2.87 2.41,5.17 5.29,5.17 h 12.93 c 2.88,0 5.22,-2.3 5.29,-5.17 l 1.36,-61.91 c 0.03,-1.53 2.03,-2.14 2.91,-0.89 15.2,21.83 24.95,45.38 28.62,55.04 0.97,2.56 3.73,3.93 6.36,3.19 3.68,-1.04 8.78,-2.47 12.53,-3.53 2.8,-0.79 4.45,-3.72 3.65,-6.51 -3.01,-10.49 -11.11,-35.29 -26.81,-59.33 -0.88,-1.35 0.55,-3.06 1.99,-2.32 26.75,13.67 44.66,36.51 51.04,45.59 1.54,2.2 4.47,2.87 6.83,1.59 l 11.11,-6.02 c 2.64,-1.43 3.59,-4.75 2.05,-7.33 -9.04,-15.11 -40.4,-60.84 -95.21,-69.39 -2.76,-0.43 -4.77,-2.83 -4.56,-5.62 l 3.19,-41.21 c 0.2,-2.6 2.26,-4.66 4.86,-4.86 l 41.2,-3.23 c 2.79,-0.22 5.2,1.8 5.63,4.56 8.53,54.84 54.3,86.21 69.42,95.24 2.58,1.54 5.89,0.6 7.32,-2.04 l 6.02,-11.08 c 1.28,-2.36 0.62,-5.29 -1.58,-6.83 -9.08,-6.38 -31.93,-24.31 -45.6,-51.07 -0.74,-1.44 0.97,-2.88 2.32,-1.99 24.05,15.7 48.85,23.8 59.34,26.82 2.79,0.8 5.71,-0.85 6.5,-3.65 l 3.54,-12.54 c 0.74,-2.63 -0.63,-5.39 -3.18,-6.36 -9.66,-3.65 -33.23,-13.38 -55.09,-28.64 -1.25,-0.87 -0.64,-2.87 0.89,-2.9 l 61.96,-1.37 c 2.87,-0.06 5.17,-2.41 5.17,-5.29 v -12.93 c 0,-2.88 -2.3,-5.22 -5.17,-5.29 z"
         id="path1"
         style="fill:#ffffff;fill-opacity:1"
         sodipodi:nodetypes="ccccccccccccccccccccccccccccccccssccccccccccccccccccccccccccccccccssccccccccccccccccccccccccccccccccssccccccccccccccccccccccccccccccccsscc" />
      <g
         id="g23">
        <path
           class="cls-1"
           d="M997.31,114.49v-.26c-.05-8.32-2.34-36.97-35.87-36.97-11.61,0-21.2,2.08-34.08,6-1.29.37-2.08,1.69-1.84,2.98l2.74,15.04c.29,1.53,1.82,2.48,3.32,2.05,7.85-2.16,14.9-3.42,20.57-3.58.53-.18,1.05-.18,1.4-.18,12.38,0,15.33,9.85,15.98,15.8.29,2.58.16,4.42.16,4.42h-.16l-8.77.32c-27.23,1.05-41.63,9.66-42.16,26.86,0,1.24,0,2.48.18,3.69,1.24,13.88,12.3,22.49,27.39,22.49,1.4,0,14.37-.3,24.39-8.7v5.03c0,1.45,1.18,2.63,2.63,2.63h21.48c1.45,0,2.63-1.18,2.63-2.63v-25.27c-.03-.37-.03-.76-.03-1.21v-26.57c0-.18.03-.87.03-1.92ZM970.3,152.27c-3.34,1.26-8.36,2.26-12.02,2.61-1.21.16-2.45.16-3.5.16-6.14-.53-9.66-3.69-9.66-9.48s3.69-9.82,13.01-10.35c1.74-.18,3.84-.18,5.95-.18h6.23v17.25Z"
           id="path2"
           style="fill:#ffffff;fill-opacity:1" />
        <path
           class="cls-1"
           d="m 485.79,46.54 c 12.86,0 25.56,3.25 34.91,8.15 1.07,0.56 1.58,1.8 1.29,2.97 l -4.39,17.3 c -0.38,1.51 -1.99,2.34 -3.46,1.82 -8.73,-3.06 -18.1,-4.78 -25.88,-4.78 -20.9,0 -37.05,11.24 -37.05,37.93 0,26.69 16.15,38.28 37.05,38.28 7.76,0 17.08,-1.14 25.79,-4.58 1.5,-0.59 3.19,0.2 3.59,1.77 l 4.38,17.24 c 0.29,1.13 -0.18,2.33 -1.19,2.91 -9.23,5.31 -22.13,8.12 -35.03,8.12 -6.34917,0 -12.37236,-0.67679 -17.99849,-1.99303 C 440.12722,165.2025 422.06,143.25604 422.06,110.28 c 0,-39.68 26.16,-63.74 63.74,-63.74 z"
           id="path3"
           sodipodi:nodetypes="cccccsssccccssscc"
           style="fill:#ffffff;fill-opacity:1" />
        <path
           class="cls-1"
           d="M630.82,173.67c-28.8,0-47.41-18.79-47.41-47.76s19.84-47.94,46.01-47.94c31.48,0,41.89,24.6,37.35,50.2-.18,1.01-.95,1.81-1.95,2.05-10.54,2.56-33.89,2.98-49.84,2.48-1.73-.05-3.03,1.59-2.58,3.26,3.32,12.58,12.69,16.46,23.7,16.46,7.25,0,15.85-1.49,22.6-3.4,1.47-.42,2.96.52,3.26,2.01l2.69,13.21c.25,1.24-.41,2.46-1.57,2.96-8.08,3.49-20.62,6.47-32.26,6.47ZM625.37,58.43l-.65,1.09c-4.8,8.08-14.01,13.1-24.02,13.1h0c-2.05,0-3.31-2.05-2.26-3.66l9.48-14.52c3.42-5.23,9.57-8.43,16.21-8.43h3.39c6.52,0,12.59,3.09,16.04,8.17l10.02,14.74c1.09,1.61-.17,3.7-2.23,3.7h-1.33c-10.19,0-19.53-5.2-24.25-13.49l-.4-.7ZM611.33,116.43s30.03-.35,30.03-.35c1.41-9.48-2.28-18.79-12.64-18.79-7.2,0-15.28,4.57-17.38,19.14,0,0,0,0,0,0Z"
           id="path4"
           style="fill:#ffffff;fill-opacity:1" />
        <path
           class="cls-1"
           d="M712.99,119.01v46.82c0,4.57-1.18,5.74-2.63,5.74h-23.18c-1.45,0-2.63-1.18-2.63-2.63v-83.36c0-1.25.88-2.33,2.11-2.58l21.78-4.38c1.63-.33,3.15.92,3.15,2.58v3.24c0,2.14,2.4,3.35,4.16,2.13,8.03-5.54,17.17-8.58,26.57-8.58,16.5,0,28.62,9.48,28.62,29.32v61.63c0,1.45-1.18,2.63-2.63,2.63h-23c-1.45,0-2.63-1.18-2.63-2.63v-50.22c0-12.99-2.63-18.09-11.94-18.09-.06,0-.11,0-.17,0-9.84.07-17.57,8.55-17.57,18.38Z"
           id="path5"
           style="fill:#ffffff;fill-opacity:1" />
        <path
           class="cls-1"
           d="M857.68,100.28c-.26,1.64-1.97,2.63-3.52,2.03-5.74-2.21-11.96-3.1-17.03-3.1-15.8,0-21.6,10.89-21.6,26.34s7.2,26.87,24.06,26.87c4.6,0,9.94-.5,15.2-2.14,1.53-.48,3.12.54,3.35,2.13l2.04,13.9c.18,1.22-.49,2.42-1.65,2.85-7.68,2.86-16.71,4.5-25.44,4.5-30.9,0-47.24-18.96-47.24-47.06s17.21-48.64,47.41-48.64c9.51,0,18.42,2.07,25.25,5.12,1.07.48,1.66,1.65,1.47,2.81l-2.31,14.38Z"
           id="path6"
           style="fill:#ffffff;fill-opacity:1" />
        <path
           class="cls-1"
           d="M1035.19,154.18c7.55,0,12.47-3.16,12.47-7.73,0-12.82-38.81-12.12-38.81-39.33,0-16.86,13.87-29.15,38.81-29.15,8.16,0,16.31,1.6,23.81,4.14,1.26.43,1.98,1.75,1.7,3.04l-2.78,13.13c-.32,1.53-1.9,2.41-3.39,1.96-6.06-1.86-11.45-2.78-16.18-2.78-8.08,0-12.29,3.51-12.29,7.9,0,11.94,38.81,12.47,38.81,38.98,0,16.51-14.4,29.32-38.81,29.32-10.47,0-21.68-2.81-29.02-6.39-1.11-.54-1.71-1.76-1.44-2.97l2.92-12.97c.35-1.55,1.98-2.44,3.46-1.89,6.89,2.55,14.56,4.72,20.73,4.72Z"
           id="path7"
           style="fill:#ffffff;fill-opacity:1" />
        <path
           class="cls-1"
           d="M495.33,295.27h-39.98c-1.12,0-2.12.71-2.49,1.78l-8.26,24.01c-.37,1.06-1.37,1.78-2.49,1.78h-22.77c-1.84,0-3.11-1.84-2.47-3.56l42.92-114.45c.32-.86,1.08-1.5,1.98-1.66l26.56-4.94c1.26-.23,2.5.47,2.95,1.67l44.44,119.39c.64,1.72-.63,3.55-2.47,3.55h-24.54c-1.12,0-2.12-.71-2.49-1.76l-8.42-24.04c-.37-1.06-1.37-1.76-2.49-1.76ZM489.65,273.32l-14.75-41.44-14.22,41.44h28.97Z"
           id="path8"
           style="fill:#ffffff;fill-opacity:1" />
        <path
           class="cls-1"
           d="M576.56,263.79c0,14.17,0,46.93,0,56.43,0,1.45-1.18,2.62-2.63,2.62h-23.18c-1.45,0-2.63-1.18-2.63-2.63v-83.36c0-1.25.88-2.33,2.11-2.58l21.78-4.38c1.63-.33,3.15.92,3.15,2.58v2.87c0,2.17,2.45,3.36,4.21,2.09,6.3-4.54,13.22-7.11,20.37-7.83,2.11-.17,4.04-.35,5.97-.17,9.05.31,16.44,3.67,21.05,10.46.89,1.31,2.72,1.63,3.92.6,8.6-7.4,18.46-11.24,28.76-11.24,14.57,0,25.11,7.9,27.04,24.41.35,2.11.35,4.39.35,6.67v59.88c0,1.45-1.18,2.63-2.63,2.63h-23c-1.45,0-2.63-1.18-2.63-2.63v-50.22c0-12.99-1.93-18.09-10.71-18.09-.53,0-1.23,0-1.76.17-2.57.19-5.04.8-7.63,1.81-4.11,1.62-6.76,5.64-6.76,10.06,0,.02,0,.05,0,.07v56.19c0,1.45-1.18,2.63-2.63,2.63h-23c-1.45,0-2.63-1.18-2.63-2.63v-50.22c0-12.99-2.11-18.09-10.89-18.09-3.02,0-5.98.63-9.02,1.81-4.18,1.61-6.96,5.61-6.96,10.08Z"
           id="path9"
           style="fill:#ffffff;fill-opacity:1" />
        <path
           class="cls-1"
           d="M755.13,324.94c-8.63,0-15.7-2.51-21.49-6.05-.64-.39-1.4-.5-2.11-.29l-18.15,5.35c-1.69.5-3.38-.77-3.38-2.53v-124.77c0-1.26.9-2.35,2.14-2.59l23.18-4.44c1.62-.31,3.13.93,3.13,2.59v41.39c0,2.07,2.25,3.29,4.03,2.22,6.4-3.88,14.21-6.59,22.84-6.59,20.9,0,33.71,17.74,33.71,46.71,0,38.45-25.11,48.99-43.9,48.99ZM738.45,255.93v41.97c3.51,2.63,9.13,4.39,14.57,4.39,10.54,0,17.03-6.67,17.03-25.81,0-17.38-5.97-24.58-16.33-24.58-5.27,0-11.24,1.76-15.28,4.04,0,0,0,0,0,0Z"
           id="path10"
           style="fill:#ffffff;fill-opacity:1" />
        <path
           class="cls-1"
           d="M910.7,324.94c-28.8,0-47.41-18.79-47.41-47.76s19.84-47.94,46.01-47.94c31.46,0,41.88,24.58,37.36,50.16-.18,1.03-.97,1.85-1.99,2.1-10.54,2.55-33.83,2.97-49.76,2.47-1.75-.05-3.06,1.61-2.61,3.3,3.33,12.55,12.69,16.42,23.69,16.42,7.25,0,15.85-1.49,22.6-3.4,1.47-.41,2.96.52,3.26,2.01l2.69,13.21c.25,1.24-.41,2.46-1.57,2.96-8.08,3.49-20.62,6.47-32.26,6.47ZM891.21,267.7l30.03-.35c1.41-9.48-2.28-18.79-12.64-18.79-7.2,0-15.28,4.57-17.38,19.14,0,0,0,0,0,0Z"
           id="path11"
           style="fill:#ffffff;fill-opacity:1" />
        <path
           class="cls-1"
           d="M992.87,270.29v49.91c0,1.45-1.18,2.63-2.63,2.63h-23.18c-1.45,0-2.63-1.18-2.63-2.63v-83.36c0-1.25.88-2.33,2.11-2.58l21.78-4.38c1.63-.33,3.15.92,3.15,2.58v3.24c0,2.14,2.4,3.35,4.16,2.13,8.03-5.54,17.17-8.58,26.57-8.58,16.51,0,28.62,9.48,28.62,29.32v61.63c0,1.45-1.18,2.63-2.63,2.63h-23c-1.45,0-2.63-1.18-2.63-2.63v-50.22c0-12.99-2.63-18.09-11.94-18.09-.06,0-.11,0-.17,0-9.84.07-17.57,8.55-17.57,18.39Z"
           id="path12"
           style="fill:#ffffff;fill-opacity:1" />
        <path
           class="cls-1"
           d="M1106.12,324.94c-17.91,0-30.55-8.78-30.55-36.17v-34.77c0-1.45-1.18-2.63-2.63-2.63h-7.38c-1.45,0-2.63-1.18-2.63-2.63v-12.57c0-1.41,1.12-2.58,2.53-2.63l8.6-.34c1.28-.05,2.34-1.01,2.51-2.28l2.62-19.47c.15-1.11.99-2.01,2.09-2.23l19.59-3.92c1.63-.33,3.15.92,3.15,2.58v21.45c0,1.49,1.24,2.69,2.73,2.63l18.6-.68c1.49-.05,2.73,1.14,2.73,2.63v14.83c0,1.45-1.18,2.63-2.63,2.63h-18.79c-1.45,0-2.63,1.18-2.63,2.63v33.19c0,9.66,2.46,14.93,13.17,14.93,2.15,0,4.72-.21,7.53-.54,1.46-.17,2.77.89,2.92,2.35l1.45,14.49c.12,1.25-.64,2.41-1.84,2.78-5.46,1.69-12.74,3.75-21.12,3.75Z"
           id="path13"
           style="fill:#ffffff;fill-opacity:1" />
        <path
           class="cls-1"
           d="M1302.75,305.45c7.55,0,12.47-3.16,12.47-7.73,0-12.82-38.81-12.12-38.81-39.33,0-16.86,13.87-29.15,38.81-29.15,8.16,0,16.31,1.6,23.81,4.14,1.26.43,1.98,1.75,1.7,3.04l-2.78,13.13c-.32,1.53-1.9,2.41-3.39,1.96-6.06-1.86-11.45-2.78-16.18-2.78-8.08,0-12.29,3.51-12.29,7.9,0,11.94,38.81,12.47,38.81,38.98,0,16.51-14.4,29.32-38.81,29.32-10.47,0-21.68-2.81-29.02-6.39-1.11-.54-1.71-1.76-1.44-2.97l2.92-12.97c.35-1.55,1.98-2.44,3.46-1.89,6.89,2.55,14.56,4.72,20.73,4.72Z"
           id="path14"
           style="fill:#ffffff;fill-opacity:1" />
        <g
           id="g16">
          <path
             class="cls-1"
             d="M537.23,168.93v-83.34c0-1.26.9-2.35,2.14-2.59l23.18-4.44c1.62-.31,3.13.93,3.13,2.59v87.77c0,1.45-1.18,2.63-2.63,2.63h-23.18c-1.45,0-2.63-1.18-2.63-2.63Z"
             id="path15"
             style="fill:#ffffff;fill-opacity:1" />
          <path
             class="cls-1"
             d="M564.7,49v17.24c0,1.18-.84,2.19-1.99,2.41l-21.59,4.13c-1.51.29-2.91-.87-2.91-2.41v-21.37c0-1.35,1.1-2.45,2.45-2.45h21.59c1.35,0,2.45,1.1,2.45,2.45Z"
             id="path16"
             style="fill:#ffffff;fill-opacity:1" />
        </g>
        <g
           id="g18">
          <path
             class="cls-1"
             d="M874.87,168.4v-83.34c0-1.26.9-2.35,2.14-2.59l23.18-4.44c1.62-.31,3.13.93,3.13,2.59v87.77c0,1.45-1.18,2.63-2.63,2.63h-23.18c-1.45,0-2.63-1.18-2.63-2.63Z"
             id="path17"
             style="fill:#ffffff;fill-opacity:1" />
          <path
             class="cls-1"
             d="M902.35,48.46v17.24c0,1.18-.84,2.19-1.99,2.41l-21.59,4.13c-1.51.29-2.91-.87-2.91-2.41v-21.37c0-1.35,1.1-2.45,2.45-2.45h21.59c1.35,0,2.45,1.1,2.45,2.45Z"
             id="path18"
             style="fill:#ffffff;fill-opacity:1" />
        </g>
        <g
           id="g20">
          <path
             class="cls-1"
             d="M817.11,320.2v-83.34c0-1.26.9-2.35,2.14-2.59l23.18-4.44c1.62-.31,3.13.93,3.13,2.59v87.77c0,1.45-1.18,2.63-2.63,2.63h-23.18c-1.45,0-2.63-1.18-2.63-2.63Z"
             id="path19"
             style="fill:#ffffff;fill-opacity:1" />
          <path
             class="cls-1"
             d="M844.58,200.27v17.24c0,1.18-.84,2.19-1.99,2.41l-21.59,4.13c-1.51.29-2.91-.87-2.91-2.41v-21.37c0-1.35,1.1-2.45,2.45-2.45h21.59c1.35,0,2.45,1.1,2.45,2.45Z"
             id="path20"
             style="fill:#ffffff;fill-opacity:1" />
        </g>
        <g
           id="g22">
          <path
             class="cls-1"
             d="M1229.71,320.2v-83.34c0-1.26.9-2.35,2.14-2.59l23.18-4.44c1.62-.31,3.13.93,3.13,2.59v87.77c0,1.45-1.18,2.63-2.63,2.63h-23.18c-1.45,0-2.63-1.18-2.63-2.63Z"
             id="path21"
             style="fill:#ffffff;fill-opacity:1" />
          <path
             class="cls-1"
             d="M1257.18,200.27v17.24c0,1.18-.84,2.19-1.99,2.41l-21.59,4.13c-1.51.29-2.91-.87-2.91-2.41v-21.37c0-1.35,1.1-2.45,2.45-2.45h21.59c1.35,0,2.45,1.1,2.45,2.45Z"
             id="path22"
             style="fill:#ffffff;fill-opacity:1" />
        </g>
        <path
           class="cls-1"
           d="M1215.73,266.39v-.26c-.05-8.32-2.34-36.97-35.87-36.97-11.61,0-21.2,2.08-34.08,6-1.29.37-2.08,1.69-1.84,2.98l2.74,15.04c.29,1.53,1.82,2.48,3.32,2.05,7.85-2.16,14.9-3.42,20.57-3.58.53-.18,1.05-.18,1.4-.18,12.38,0,15.33,9.85,15.98,15.8.29,2.58.16,4.42.16,4.42h-.16l-8.77.32c-27.23,1.05-41.63,9.66-42.16,26.86,0,1.24,0,2.48.18,3.69,1.24,13.88,12.3,22.49,27.39,22.49,1.4,0,14.37-.3,24.39-8.7v5.03c0,1.45,1.18,2.63,2.63,2.63h21.48c1.45,0,2.63-1.18,2.63-2.63v-25.27c-.03-.37-.03-.76-.03-1.21v-26.57c0-.18.03-.87.03-1.92ZM1188.72,304.18c-3.34,1.26-8.36,2.26-12.02,2.61-1.21.16-2.45.16-3.5.16-6.14-.53-9.66-3.69-9.66-9.48s3.69-9.82,13.01-10.35c1.74-.18,3.84-.18,5.95-.18h6.23v17.25Z"
           id="path23"
           style="fill:#ffffff;fill-opacity:1" />
      </g>
    </g>
  </g>
</svg>
